SplineFontDB: 3.2
FontName: DECTerminal18
FullName: DEC Terminal 18
FamilyName: DEC Terminal 18
Weight: Medium
Copyright: Copyright (c) 1991 Digital Equipment Corporation. All Rights Reserved.
UComments: "2020-2-12: Created with FontForge (http://fontforge.org)"
Version: 001.000
ItalicAngle: 0
UnderlinePosition: -100
UnderlineWidth: 50
Ascent: 800
Descent: 200
InvalidEm: 0
LayerCount: 2
Layer: 0 0 "Back" 1
Layer: 1 0 "Fore" 0
XUID: [1021 914 -1746032191 14520579]
StyleMap: 0x0000
FSType: 0
OS2Version: 0
OS2_WeightWidthSlopeOnly: 0
OS2_UseTypoMetrics: 1
CreationTime: 1581547021
ModificationTime: 1581547022
OS2TypoAscent: 0
OS2TypoAOffset: 1
OS2TypoDescent: 0
OS2TypoDOffset: 1
OS2TypoLinegap: 90
OS2WinAscent: 0
OS2WinAOffset: 1
OS2WinDescent: 0
OS2WinDOffset: 1
HheadAscent: 0
HheadAOffset: 1
HheadDescent: 0
HheadDOffset: 1
DEI: 91125
Encoding: ISO8859-1
UnicodeInterp: none
NameList: AGL For New Fonts
DisplaySize: 18
AntiAlias: 1
FitToEm: 0
BeginChars: 256 195

StartChar: exclam
Encoding: 33 33 1
Width: 550
VWidth: 0
Flags: HW
LayerCount: 2
Back
Fore
SplineSet
277.77734375 522.22265625 m 1
 388.888671875 522.22265625 l 1
 388.888671875 577.77734375 l 1
 277.77734375 577.77734375 l 1
 277.77734375 522.22265625 l 1025
277.77734375 466.666992188 m 1
 388.888671875 466.666992188 l 1
 388.888671875 522.22265625 l 1
 277.77734375 522.22265625 l 1
 277.77734375 466.666992188 l 1025
277.77734375 411.111328125 m 1
 388.888671875 411.111328125 l 1
 388.888671875 466.666992188 l 1
 277.77734375 466.666992188 l 1
 277.77734375 411.111328125 l 1025
277.77734375 355.555664062 m 1
 388.888671875 355.555664062 l 1
 388.888671875 411.111328125 l 1
 277.77734375 411.111328125 l 1
 277.77734375 355.555664062 l 1025
277.77734375 300 m 1
 388.888671875 300 l 1
 388.888671875 355.555664062 l 1
 277.77734375 355.555664062 l 1
 277.77734375 300 l 1025
277.77734375 244.444335938 m 1
 388.888671875 244.444335938 l 1
 388.888671875 300 l 1
 277.77734375 300 l 1
 277.77734375 244.444335938 l 1025
277.77734375 188.888671875 m 1
 388.888671875 188.888671875 l 1
 388.888671875 244.444335938 l 1
 277.77734375 244.444335938 l 1
 277.77734375 188.888671875 l 1025
277.77734375 77.77734375 m 1
 388.888671875 77.77734375 l 1
 388.888671875 133.333007812 l 1
 277.77734375 133.333007812 l 1
 277.77734375 77.77734375 l 1025
222.22265625 22.22265625 m 1
 444.444335938 22.22265625 l 1
 444.444335938 77.77734375 l 1
 222.22265625 77.77734375 l 1
 222.22265625 22.22265625 l 1025
277.77734375 -33.3330078125 m 1
 388.888671875 -33.3330078125 l 1
 388.888671875 22.22265625 l 1
 277.77734375 22.22265625 l 1
 277.77734375 -33.3330078125 l 1
EndSplineSet
EndChar

StartChar: quotedbl
Encoding: 34 34 2
Width: 550
VWidth: 0
Flags: HW
LayerCount: 2
Back
Fore
SplineSet
166.666992188 633.333007812 m 1
 277.77734375 633.333007812 l 1
 277.77734375 688.888671875 l 1
 166.666992188 688.888671875 l 1
 166.666992188 633.333007812 l 1025
388.888671875 633.333007812 m 1
 500 633.333007812 l 1
 500 688.888671875 l 1
 388.888671875 688.888671875 l 1
 388.888671875 633.333007812 l 1025
166.666992188 577.77734375 m 1
 277.77734375 577.77734375 l 1
 277.77734375 633.333007812 l 1
 166.666992188 633.333007812 l 1
 166.666992188 577.77734375 l 1025
388.888671875 577.77734375 m 1
 500 577.77734375 l 1
 500 633.333007812 l 1
 388.888671875 633.333007812 l 1
 388.888671875 577.77734375 l 1025
166.666992188 522.22265625 m 1
 277.77734375 522.22265625 l 1
 277.77734375 577.77734375 l 1
 166.666992188 577.77734375 l 1
 166.666992188 522.22265625 l 1025
388.888671875 522.22265625 m 1
 500 522.22265625 l 1
 500 577.77734375 l 1
 388.888671875 577.77734375 l 1
 388.888671875 522.22265625 l 1025
166.666992188 466.666992188 m 1
 277.77734375 466.666992188 l 1
 277.77734375 522.22265625 l 1
 166.666992188 522.22265625 l 1
 166.666992188 466.666992188 l 1025
388.888671875 466.666992188 m 1
 500 466.666992188 l 1
 500 522.22265625 l 1
 388.888671875 522.22265625 l 1
 388.888671875 466.666992188 l 1025
166.666992188 411.111328125 m 1
 277.77734375 411.111328125 l 1
 277.77734375 466.666992188 l 1
 166.666992188 466.666992188 l 1
 166.666992188 411.111328125 l 1025
388.888671875 411.111328125 m 1
 500 411.111328125 l 1
 500 466.666992188 l 1
 388.888671875 466.666992188 l 1
 388.888671875 411.111328125 l 1
EndSplineSet
EndChar

StartChar: numbersign
Encoding: 35 35 3
Width: 550
VWidth: 0
Flags: HW
LayerCount: 2
Back
Fore
SplineSet
166.666992188 522.22265625 m 1
 277.77734375 522.22265625 l 1
 277.77734375 577.77734375 l 1
 166.666992188 577.77734375 l 1
 166.666992188 522.22265625 l 1025
388.888671875 522.22265625 m 1
 500 522.22265625 l 1
 500 577.77734375 l 1
 388.888671875 577.77734375 l 1
 388.888671875 522.22265625 l 1025
166.666992188 466.666992188 m 1
 277.77734375 466.666992188 l 1
 277.77734375 522.22265625 l 1
 166.666992188 522.22265625 l 1
 166.666992188 466.666992188 l 1025
388.888671875 466.666992188 m 1
 500 466.666992188 l 1
 500 522.22265625 l 1
 388.888671875 522.22265625 l 1
 388.888671875 466.666992188 l 1025
166.666992188 411.111328125 m 1
 277.77734375 411.111328125 l 1
 277.77734375 466.666992188 l 1
 166.666992188 466.666992188 l 1
 166.666992188 411.111328125 l 1025
388.888671875 411.111328125 m 1
 500 411.111328125 l 1
 500 466.666992188 l 1
 388.888671875 466.666992188 l 1
 388.888671875 411.111328125 l 1025
166.666992188 355.555664062 m 1
 277.77734375 355.555664062 l 1
 277.77734375 411.111328125 l 1
 166.666992188 411.111328125 l 1
 166.666992188 355.555664062 l 1025
388.888671875 355.555664062 m 1
 500 355.555664062 l 1
 500 411.111328125 l 1
 388.888671875 411.111328125 l 1
 388.888671875 355.555664062 l 1025
166.666992188 300 m 1
 277.77734375 300 l 1
 277.77734375 355.555664062 l 1
 166.666992188 355.555664062 l 1
 166.666992188 300 l 1025
388.888671875 300 m 1
 500 300 l 1
 500 355.555664062 l 1
 388.888671875 355.555664062 l 1
 388.888671875 300 l 1025
55.5556640625 244.444335938 m 1
 611.111328125 244.444335938 l 1
 611.111328125 300 l 1
 55.5556640625 300 l 1
 55.5556640625 244.444335938 l 1025
166.666992188 188.888671875 m 1
 277.77734375 188.888671875 l 1
 277.77734375 244.444335938 l 1
 166.666992188 244.444335938 l 1
 166.666992188 188.888671875 l 1025
388.888671875 188.888671875 m 1
 500 188.888671875 l 1
 500 244.444335938 l 1
 388.888671875 244.444335938 l 1
 388.888671875 188.888671875 l 1025
166.666992188 133.333007812 m 1
 277.77734375 133.333007812 l 1
 277.77734375 188.888671875 l 1
 166.666992188 188.888671875 l 1
 166.666992188 133.333007812 l 1025
388.888671875 133.333007812 m 1
 500 133.333007812 l 1
 500 188.888671875 l 1
 388.888671875 188.888671875 l 1
 388.888671875 133.333007812 l 1025
55.5556640625 77.77734375 m 1
 611.111328125 77.77734375 l 1
 611.111328125 133.333007812 l 1
 55.5556640625 133.333007812 l 1
 55.5556640625 77.77734375 l 1025
166.666992188 22.22265625 m 1
 277.77734375 22.22265625 l 1
 277.77734375 77.77734375 l 1
 166.666992188 77.77734375 l 1
 166.666992188 22.22265625 l 1025
388.888671875 22.22265625 m 1
 500 22.22265625 l 1
 500 77.77734375 l 1
 388.888671875 77.77734375 l 1
 388.888671875 22.22265625 l 1025
166.666992188 -33.3330078125 m 1
 277.77734375 -33.3330078125 l 1
 277.77734375 22.22265625 l 1
 166.666992188 22.22265625 l 1
 166.666992188 -33.3330078125 l 1025
388.888671875 -33.3330078125 m 1
 500 -33.3330078125 l 1
 500 22.22265625 l 1
 388.888671875 22.22265625 l 1
 388.888671875 -33.3330078125 l 1025
166.666992188 -88.888671875 m 1
 277.77734375 -88.888671875 l 1
 277.77734375 -33.3330078125 l 1
 166.666992188 -33.3330078125 l 1
 166.666992188 -88.888671875 l 1025
388.888671875 -88.888671875 m 1
 500 -88.888671875 l 1
 500 -33.3330078125 l 1
 388.888671875 -33.3330078125 l 1
 388.888671875 -88.888671875 l 1025
166.666992188 -144.444335938 m 1
 277.77734375 -144.444335938 l 1
 277.77734375 -88.888671875 l 1
 166.666992188 -88.888671875 l 1
 166.666992188 -144.444335938 l 1025
388.888671875 -144.444335938 m 1
 500 -144.444335938 l 1
 500 -88.888671875 l 1
 388.888671875 -88.888671875 l 1
 388.888671875 -144.444335938 l 1025
166.666992188 -200 m 1
 277.77734375 -200 l 1
 277.77734375 -144.444335938 l 1
 166.666992188 -144.444335938 l 1
 166.666992188 -200 l 1025
388.888671875 -200 m 1
 500 -200 l 1
 500 -144.444335938 l 1
 388.888671875 -144.444335938 l 1
 388.888671875 -200 l 1
EndSplineSet
EndChar

StartChar: dollar
Encoding: 36 36 4
Width: 550
VWidth: 0
Flags: HW
LayerCount: 2
Back
Fore
SplineSet
277.77734375 633.333007812 m 1
 333.333007812 633.333007812 l 1
 333.333007812 688.888671875 l 1
 277.77734375 688.888671875 l 1
 277.77734375 633.333007812 l 1025
277.77734375 577.77734375 m 1
 333.333007812 577.77734375 l 1
 333.333007812 633.333007812 l 1
 277.77734375 633.333007812 l 1
 277.77734375 577.77734375 l 1025
166.666992188 522.22265625 m 1
 500 522.22265625 l 1
 500 577.77734375 l 1
 166.666992188 577.77734375 l 1
 166.666992188 522.22265625 l 1025
111.111328125 466.666992188 m 1
 277.77734375 466.666992188 l 1
 277.77734375 522.22265625 l 1
 111.111328125 522.22265625 l 1
 111.111328125 466.666992188 l 1025
388.888671875 466.666992188 m 1
 500 466.666992188 l 1
 500 522.22265625 l 1
 388.888671875 522.22265625 l 1
 388.888671875 466.666992188 l 1025
111.111328125 411.111328125 m 1
 222.22265625 411.111328125 l 1
 222.22265625 466.666992188 l 1
 111.111328125 466.666992188 l 1
 111.111328125 411.111328125 l 1025
388.888671875 411.111328125 m 1
 500 411.111328125 l 1
 500 466.666992188 l 1
 388.888671875 466.666992188 l 1
 388.888671875 411.111328125 l 1025
111.111328125 355.555664062 m 1
 222.22265625 355.555664062 l 1
 222.22265625 411.111328125 l 1
 111.111328125 411.111328125 l 1
 111.111328125 355.555664062 l 1025
111.111328125 300 m 1
 277.77734375 300 l 1
 277.77734375 355.555664062 l 1
 111.111328125 355.555664062 l 1
 111.111328125 300 l 1025
166.666992188 244.444335938 m 1
 444.444335938 244.444335938 l 1
 444.444335938 300 l 1
 166.666992188 300 l 1
 166.666992188 244.444335938 l 1025
333.333007812 188.888671875 m 1
 500 188.888671875 l 1
 500 244.444335938 l 1
 333.333007812 244.444335938 l 1
 333.333007812 188.888671875 l 1025
388.888671875 133.333007812 m 1
 500 133.333007812 l 1
 500 188.888671875 l 1
 388.888671875 188.888671875 l 1
 388.888671875 133.333007812 l 1025
111.111328125 77.77734375 m 1
 222.22265625 77.77734375 l 1
 222.22265625 133.333007812 l 1
 111.111328125 133.333007812 l 1
 111.111328125 77.77734375 l 1025
388.888671875 77.77734375 m 1
 500 77.77734375 l 1
 500 133.333007812 l 1
 388.888671875 133.333007812 l 1
 388.888671875 77.77734375 l 1025
111.111328125 22.22265625 m 1
 222.22265625 22.22265625 l 1
 222.22265625 77.77734375 l 1
 111.111328125 77.77734375 l 1
 111.111328125 22.22265625 l 1025
333.333007812 22.22265625 m 1
 500 22.22265625 l 1
 500 77.77734375 l 1
 333.333007812 77.77734375 l 1
 333.333007812 22.22265625 l 1025
111.111328125 -33.3330078125 m 1
 444.444335938 -33.3330078125 l 1
 444.444335938 22.22265625 l 1
 111.111328125 22.22265625 l 1
 111.111328125 -33.3330078125 l 1025
277.77734375 -88.888671875 m 1
 333.333007812 -88.888671875 l 1
 333.333007812 -33.3330078125 l 1
 277.77734375 -33.3330078125 l 1
 277.77734375 -88.888671875 l 1025
277.77734375 -144.444335938 m 1
 333.333007812 -144.444335938 l 1
 333.333007812 -88.888671875 l 1
 277.77734375 -88.888671875 l 1
 277.77734375 -144.444335938 l 1025
277.77734375 -200 m 1
 333.333007812 -200 l 1
 333.333007812 -144.444335938 l 1
 277.77734375 -144.444335938 l 1
 277.77734375 -200 l 1
EndSplineSet
EndChar

StartChar: percent
Encoding: 37 37 5
Width: 550
VWidth: 0
Flags: HW
LayerCount: 2
Back
Fore
SplineSet
111.111328125 522.22265625 m 1
 277.77734375 522.22265625 l 1
 277.77734375 577.77734375 l 1
 111.111328125 577.77734375 l 1
 111.111328125 522.22265625 l 1025
55.5556640625 466.666992188 m 1
 166.666992188 466.666992188 l 1
 166.666992188 522.22265625 l 1
 55.5556640625 522.22265625 l 1
 55.5556640625 466.666992188 l 1025
222.22265625 466.666992188 m 1
 333.333007812 466.666992188 l 1
 333.333007812 522.22265625 l 1
 222.22265625 522.22265625 l 1
 222.22265625 466.666992188 l 1025
55.5556640625 411.111328125 m 1
 111.111328125 411.111328125 l 1
 111.111328125 466.666992188 l 1
 55.5556640625 466.666992188 l 1
 55.5556640625 411.111328125 l 1025
277.77734375 411.111328125 m 1
 333.333007812 411.111328125 l 1
 333.333007812 466.666992188 l 1
 277.77734375 466.666992188 l 1
 277.77734375 411.111328125 l 1025
55.5556640625 355.555664062 m 1
 166.666992188 355.555664062 l 1
 166.666992188 411.111328125 l 1
 55.5556640625 411.111328125 l 1
 55.5556640625 355.555664062 l 1025
222.22265625 355.555664062 m 1
 333.333007812 355.555664062 l 1
 333.333007812 411.111328125 l 1
 222.22265625 411.111328125 l 1
 222.22265625 355.555664062 l 1025
111.111328125 300 m 1
 277.77734375 300 l 1
 277.77734375 355.555664062 l 1
 111.111328125 355.555664062 l 1
 111.111328125 300 l 1025
388.888671875 300 m 1
 500 300 l 1
 500 355.555664062 l 1
 388.888671875 355.555664062 l 1
 388.888671875 300 l 1025
222.22265625 244.444335938 m 1
 388.888671875 244.444335938 l 1
 388.888671875 300 l 1
 222.22265625 300 l 1
 222.22265625 244.444335938 l 1025
111.111328125 188.888671875 m 1
 222.22265625 188.888671875 l 1
 222.22265625 244.444335938 l 1
 111.111328125 244.444335938 l 1
 111.111328125 188.888671875 l 1025
333.333007812 188.888671875 m 1
 500 188.888671875 l 1
 500 244.444335938 l 1
 333.333007812 244.444335938 l 1
 333.333007812 188.888671875 l 1025
277.77734375 133.333007812 m 1
 388.888671875 133.333007812 l 1
 388.888671875 188.888671875 l 1
 277.77734375 188.888671875 l 1
 277.77734375 133.333007812 l 1025
444.444335938 133.333007812 m 1
 555.555664062 133.333007812 l 1
 555.555664062 188.888671875 l 1
 444.444335938 188.888671875 l 1
 444.444335938 133.333007812 l 1025
277.77734375 77.77734375 m 1
 333.333007812 77.77734375 l 1
 333.333007812 133.333007812 l 1
 277.77734375 133.333007812 l 1
 277.77734375 77.77734375 l 1025
500 77.77734375 m 1
 555.555664062 77.77734375 l 1
 555.555664062 133.333007812 l 1
 500 133.333007812 l 1
 500 77.77734375 l 1025
277.77734375 22.22265625 m 1
 388.888671875 22.22265625 l 1
 388.888671875 77.77734375 l 1
 277.77734375 77.77734375 l 1
 277.77734375 22.22265625 l 1025
444.444335938 22.22265625 m 1
 555.555664062 22.22265625 l 1
 555.555664062 77.77734375 l 1
 444.444335938 77.77734375 l 1
 444.444335938 22.22265625 l 1025
333.333007812 -33.3330078125 m 1
 500 -33.3330078125 l 1
 500 22.22265625 l 1
 333.333007812 22.22265625 l 1
 333.333007812 -33.3330078125 l 1
EndSplineSet
EndChar

StartChar: ampersand
Encoding: 38 38 6
Width: 550
VWidth: 0
Flags: HW
LayerCount: 2
Back
Fore
SplineSet
222.22265625 522.22265625 m 1
 333.333007812 522.22265625 l 1
 333.333007812 577.77734375 l 1
 222.22265625 577.77734375 l 1
 222.22265625 522.22265625 l 1025
388.888671875 522.22265625 m 1
 444.444335938 522.22265625 l 1
 444.444335938 577.77734375 l 1
 388.888671875 577.77734375 l 1
 388.888671875 522.22265625 l 1025
166.666992188 466.666992188 m 1
 277.77734375 466.666992188 l 1
 277.77734375 522.22265625 l 1
 166.666992188 522.22265625 l 1
 166.666992188 466.666992188 l 1025
333.333007812 466.666992188 m 1
 444.444335938 466.666992188 l 1
 444.444335938 522.22265625 l 1
 333.333007812 522.22265625 l 1
 333.333007812 466.666992188 l 1025
166.666992188 411.111328125 m 1
 222.22265625 411.111328125 l 1
 222.22265625 466.666992188 l 1
 166.666992188 466.666992188 l 1
 166.666992188 411.111328125 l 1025
166.666992188 355.555664062 m 1
 277.77734375 355.555664062 l 1
 277.77734375 411.111328125 l 1
 166.666992188 411.111328125 l 1
 166.666992188 355.555664062 l 1025
222.22265625 300 m 1
 277.77734375 300 l 1
 277.77734375 355.555664062 l 1
 222.22265625 355.555664062 l 1
 222.22265625 300 l 1025
166.666992188 244.444335938 m 1
 333.333007812 244.444335938 l 1
 333.333007812 300 l 1
 166.666992188 300 l 1
 166.666992188 244.444335938 l 1025
388.888671875 244.444335938 m 1
 500 244.444335938 l 1
 500 300 l 1
 388.888671875 300 l 1
 388.888671875 244.444335938 l 1025
111.111328125 188.888671875 m 1
 222.22265625 188.888671875 l 1
 222.22265625 244.444335938 l 1
 111.111328125 244.444335938 l 1
 111.111328125 188.888671875 l 1025
277.77734375 188.888671875 m 1
 333.333007812 188.888671875 l 1
 333.333007812 244.444335938 l 1
 277.77734375 244.444335938 l 1
 277.77734375 188.888671875 l 1025
388.888671875 188.888671875 m 1
 444.444335938 188.888671875 l 1
 444.444335938 244.444335938 l 1
 388.888671875 244.444335938 l 1
 388.888671875 188.888671875 l 1025
111.111328125 133.333007812 m 1
 222.22265625 133.333007812 l 1
 222.22265625 188.888671875 l 1
 111.111328125 188.888671875 l 1
 111.111328125 133.333007812 l 1025
277.77734375 133.333007812 m 1
 444.444335938 133.333007812 l 1
 444.444335938 188.888671875 l 1
 277.77734375 188.888671875 l 1
 277.77734375 133.333007812 l 1025
111.111328125 77.77734375 m 1
 222.22265625 77.77734375 l 1
 222.22265625 133.333007812 l 1
 111.111328125 133.333007812 l 1
 111.111328125 77.77734375 l 1025
333.333007812 77.77734375 m 1
 444.444335938 77.77734375 l 1
 444.444335938 133.333007812 l 1
 333.333007812 133.333007812 l 1
 333.333007812 77.77734375 l 1025
111.111328125 22.22265625 m 1
 222.22265625 22.22265625 l 1
 222.22265625 77.77734375 l 1
 111.111328125 77.77734375 l 1
 111.111328125 22.22265625 l 1025
333.333007812 22.22265625 m 1
 444.444335938 22.22265625 l 1
 444.444335938 77.77734375 l 1
 333.333007812 77.77734375 l 1
 333.333007812 22.22265625 l 1025
166.666992188 -33.3330078125 m 1
 333.333007812 -33.3330078125 l 1
 333.333007812 22.22265625 l 1
 166.666992188 22.22265625 l 1
 166.666992188 -33.3330078125 l 1025
388.888671875 -33.3330078125 m 1
 500 -33.3330078125 l 1
 500 22.22265625 l 1
 388.888671875 22.22265625 l 1
 388.888671875 -33.3330078125 l 1
EndSplineSet
EndChar

StartChar: quoteright
Encoding: 39 8217 7
Width: 550
VWidth: 0
Flags: HW
LayerCount: 2
Back
Fore
SplineSet
277.77734375 633.333007812 m 1
 444.444335938 633.333007812 l 1
 444.444335938 688.888671875 l 1
 277.77734375 688.888671875 l 1
 277.77734375 633.333007812 l 1025
277.77734375 577.77734375 m 1
 388.888671875 577.77734375 l 1
 388.888671875 633.333007812 l 1
 277.77734375 633.333007812 l 1
 277.77734375 577.77734375 l 1025
277.77734375 522.22265625 m 1
 388.888671875 522.22265625 l 1
 388.888671875 577.77734375 l 1
 277.77734375 577.77734375 l 1
 277.77734375 522.22265625 l 1025
222.22265625 466.666992188 m 1
 333.333007812 466.666992188 l 1
 333.333007812 522.22265625 l 1
 222.22265625 522.22265625 l 1
 222.22265625 466.666992188 l 1025
277.77734375 411.111328125 m 1
 333.333007812 411.111328125 l 1
 333.333007812 466.666992188 l 1
 277.77734375 466.666992188 l 1
 277.77734375 411.111328125 l 1
EndSplineSet
EndChar

StartChar: parenleft
Encoding: 40 40 8
Width: 550
VWidth: 0
Flags: HW
LayerCount: 2
Back
Fore
SplineSet
388.888671875 577.77734375 m 1
 444.444335938 577.77734375 l 1
 444.444335938 633.333007812 l 1
 388.888671875 633.333007812 l 1
 388.888671875 577.77734375 l 1025
333.333007812 522.22265625 m 1
 388.888671875 522.22265625 l 1
 388.888671875 577.77734375 l 1
 333.333007812 577.77734375 l 1
 333.333007812 522.22265625 l 1025
277.77734375 466.666992188 m 1
 388.888671875 466.666992188 l 1
 388.888671875 522.22265625 l 1
 277.77734375 522.22265625 l 1
 277.77734375 466.666992188 l 1025
277.77734375 411.111328125 m 1
 333.333007812 411.111328125 l 1
 333.333007812 466.666992188 l 1
 277.77734375 466.666992188 l 1
 277.77734375 411.111328125 l 1025
222.22265625 355.555664062 m 1
 333.333007812 355.555664062 l 1
 333.333007812 411.111328125 l 1
 222.22265625 411.111328125 l 1
 222.22265625 355.555664062 l 1025
222.22265625 300 m 1
 333.333007812 300 l 1
 333.333007812 355.555664062 l 1
 222.22265625 355.555664062 l 1
 222.22265625 300 l 1025
222.22265625 244.444335938 m 1
 333.333007812 244.444335938 l 1
 333.333007812 300 l 1
 222.22265625 300 l 1
 222.22265625 244.444335938 l 1025
222.22265625 188.888671875 m 1
 333.333007812 188.888671875 l 1
 333.333007812 244.444335938 l 1
 222.22265625 244.444335938 l 1
 222.22265625 188.888671875 l 1025
222.22265625 133.333007812 m 1
 333.333007812 133.333007812 l 1
 333.333007812 188.888671875 l 1
 222.22265625 188.888671875 l 1
 222.22265625 133.333007812 l 1025
222.22265625 77.77734375 m 1
 333.333007812 77.77734375 l 1
 333.333007812 133.333007812 l 1
 222.22265625 133.333007812 l 1
 222.22265625 77.77734375 l 1025
222.22265625 22.22265625 m 1
 333.333007812 22.22265625 l 1
 333.333007812 77.77734375 l 1
 222.22265625 77.77734375 l 1
 222.22265625 22.22265625 l 1025
277.77734375 -33.3330078125 m 1
 333.333007812 -33.3330078125 l 1
 333.333007812 22.22265625 l 1
 277.77734375 22.22265625 l 1
 277.77734375 -33.3330078125 l 1025
277.77734375 -88.888671875 m 1
 388.888671875 -88.888671875 l 1
 388.888671875 -33.3330078125 l 1
 277.77734375 -33.3330078125 l 1
 277.77734375 -88.888671875 l 1025
333.333007812 -144.444335938 m 1
 388.888671875 -144.444335938 l 1
 388.888671875 -88.888671875 l 1
 333.333007812 -88.888671875 l 1
 333.333007812 -144.444335938 l 1025
388.888671875 -200 m 1
 444.444335938 -200 l 1
 444.444335938 -144.444335938 l 1
 388.888671875 -144.444335938 l 1
 388.888671875 -200 l 1
EndSplineSet
EndChar

StartChar: parenright
Encoding: 41 41 9
Width: 550
VWidth: 0
Flags: HW
LayerCount: 2
Back
Fore
SplineSet
222.22265625 577.77734375 m 1
 277.77734375 577.77734375 l 1
 277.77734375 633.333007812 l 1
 222.22265625 633.333007812 l 1
 222.22265625 577.77734375 l 1025
277.77734375 522.22265625 m 1
 333.333007812 522.22265625 l 1
 333.333007812 577.77734375 l 1
 277.77734375 577.77734375 l 1
 277.77734375 522.22265625 l 1025
277.77734375 466.666992188 m 1
 388.888671875 466.666992188 l 1
 388.888671875 522.22265625 l 1
 277.77734375 522.22265625 l 1
 277.77734375 466.666992188 l 1025
333.333007812 411.111328125 m 1
 388.888671875 411.111328125 l 1
 388.888671875 466.666992188 l 1
 333.333007812 466.666992188 l 1
 333.333007812 411.111328125 l 1025
333.333007812 355.555664062 m 1
 444.444335938 355.555664062 l 1
 444.444335938 411.111328125 l 1
 333.333007812 411.111328125 l 1
 333.333007812 355.555664062 l 1025
333.333007812 300 m 1
 444.444335938 300 l 1
 444.444335938 355.555664062 l 1
 333.333007812 355.555664062 l 1
 333.333007812 300 l 1025
333.333007812 244.444335938 m 1
 444.444335938 244.444335938 l 1
 444.444335938 300 l 1
 333.333007812 300 l 1
 333.333007812 244.444335938 l 1025
333.333007812 188.888671875 m 1
 444.444335938 188.888671875 l 1
 444.444335938 244.444335938 l 1
 333.333007812 244.444335938 l 1
 333.333007812 188.888671875 l 1025
333.333007812 133.333007812 m 1
 444.444335938 133.333007812 l 1
 444.444335938 188.888671875 l 1
 333.333007812 188.888671875 l 1
 333.333007812 133.333007812 l 1025
333.333007812 77.77734375 m 1
 444.444335938 77.77734375 l 1
 444.444335938 133.333007812 l 1
 333.333007812 133.333007812 l 1
 333.333007812 77.77734375 l 1025
333.333007812 22.22265625 m 1
 444.444335938 22.22265625 l 1
 444.444335938 77.77734375 l 1
 333.333007812 77.77734375 l 1
 333.333007812 22.22265625 l 1025
333.333007812 -33.3330078125 m 1
 388.888671875 -33.3330078125 l 1
 388.888671875 22.22265625 l 1
 333.333007812 22.22265625 l 1
 333.333007812 -33.3330078125 l 1025
277.77734375 -88.888671875 m 1
 388.888671875 -88.888671875 l 1
 388.888671875 -33.3330078125 l 1
 277.77734375 -33.3330078125 l 1
 277.77734375 -88.888671875 l 1025
277.77734375 -144.444335938 m 1
 333.333007812 -144.444335938 l 1
 333.333007812 -88.888671875 l 1
 277.77734375 -88.888671875 l 1
 277.77734375 -144.444335938 l 1025
222.22265625 -200 m 1
 277.77734375 -200 l 1
 277.77734375 -144.444335938 l 1
 222.22265625 -144.444335938 l 1
 222.22265625 -200 l 1
EndSplineSet
EndChar

StartChar: asterisk
Encoding: 42 42 10
Width: 550
VWidth: 0
Flags: HW
LayerCount: 2
Back
Fore
SplineSet
277.77734375 411.111328125 m 1
 388.888671875 411.111328125 l 1
 388.888671875 466.666992188 l 1
 277.77734375 466.666992188 l 1
 277.77734375 411.111328125 l 1025
277.77734375 355.555664062 m 1
 388.888671875 355.555664062 l 1
 388.888671875 411.111328125 l 1
 277.77734375 411.111328125 l 1
 277.77734375 355.555664062 l 1025
111.111328125 300 m 1
 222.22265625 300 l 1
 222.22265625 355.555664062 l 1
 111.111328125 355.555664062 l 1
 111.111328125 300 l 1025
277.77734375 300 m 1
 388.888671875 300 l 1
 388.888671875 355.555664062 l 1
 277.77734375 355.555664062 l 1
 277.77734375 300 l 1025
444.444335938 300 m 1
 555.555664062 300 l 1
 555.555664062 355.555664062 l 1
 444.444335938 355.555664062 l 1
 444.444335938 300 l 1025
166.666992188 244.444335938 m 1
 500 244.444335938 l 1
 500 300 l 1
 166.666992188 300 l 1
 166.666992188 244.444335938 l 1025
222.22265625 188.888671875 m 1
 444.444335938 188.888671875 l 1
 444.444335938 244.444335938 l 1
 222.22265625 244.444335938 l 1
 222.22265625 188.888671875 l 1025
222.22265625 133.333007812 m 1
 444.444335938 133.333007812 l 1
 444.444335938 188.888671875 l 1
 222.22265625 188.888671875 l 1
 222.22265625 133.333007812 l 1025
166.666992188 77.77734375 m 1
 277.77734375 77.77734375 l 1
 277.77734375 133.333007812 l 1
 166.666992188 133.333007812 l 1
 166.666992188 77.77734375 l 1025
388.888671875 77.77734375 m 1
 500 77.77734375 l 1
 500 133.333007812 l 1
 388.888671875 133.333007812 l 1
 388.888671875 77.77734375 l 1025
166.666992188 22.22265625 m 1
 277.77734375 22.22265625 l 1
 277.77734375 77.77734375 l 1
 166.666992188 77.77734375 l 1
 166.666992188 22.22265625 l 1025
388.888671875 22.22265625 m 1
 500 22.22265625 l 1
 500 77.77734375 l 1
 388.888671875 77.77734375 l 1
 388.888671875 22.22265625 l 1
EndSplineSet
EndChar

StartChar: plus
Encoding: 43 43 11
Width: 550
VWidth: 0
Flags: HW
LayerCount: 2
Back
Fore
SplineSet
277.77734375 466.666992188 m 1
 388.888671875 466.666992188 l 1
 388.888671875 522.22265625 l 1
 277.77734375 522.22265625 l 1
 277.77734375 466.666992188 l 1025
277.77734375 411.111328125 m 1
 388.888671875 411.111328125 l 1
 388.888671875 466.666992188 l 1
 277.77734375 466.666992188 l 1
 277.77734375 411.111328125 l 1025
277.77734375 355.555664062 m 1
 388.888671875 355.555664062 l 1
 388.888671875 411.111328125 l 1
 277.77734375 411.111328125 l 1
 277.77734375 355.555664062 l 1025
277.77734375 300 m 1
 388.888671875 300 l 1
 388.888671875 355.555664062 l 1
 277.77734375 355.555664062 l 1
 277.77734375 300 l 1025
111.111328125 244.444335938 m 1
 555.555664062 244.444335938 l 1
 555.555664062 300 l 1
 111.111328125 300 l 1
 111.111328125 244.444335938 l 1025
111.111328125 188.888671875 m 1
 555.555664062 188.888671875 l 1
 555.555664062 244.444335938 l 1
 111.111328125 244.444335938 l 1
 111.111328125 188.888671875 l 1025
277.77734375 133.333007812 m 1
 388.888671875 133.333007812 l 1
 388.888671875 188.888671875 l 1
 277.77734375 188.888671875 l 1
 277.77734375 133.333007812 l 1025
277.77734375 77.77734375 m 1
 388.888671875 77.77734375 l 1
 388.888671875 133.333007812 l 1
 277.77734375 133.333007812 l 1
 277.77734375 77.77734375 l 1025
277.77734375 22.22265625 m 1
 388.888671875 22.22265625 l 1
 388.888671875 77.77734375 l 1
 277.77734375 77.77734375 l 1
 277.77734375 22.22265625 l 1025
277.77734375 -33.3330078125 m 1
 388.888671875 -33.3330078125 l 1
 388.888671875 22.22265625 l 1
 277.77734375 22.22265625 l 1
 277.77734375 -33.3330078125 l 1
EndSplineSet
EndChar

StartChar: comma
Encoding: 44 44 12
Width: 550
VWidth: 0
Flags: HW
LayerCount: 2
Back
Fore
SplineSet
277.77734375 77.77734375 m 1
 444.444335938 77.77734375 l 1
 444.444335938 133.333007812 l 1
 277.77734375 133.333007812 l 1
 277.77734375 77.77734375 l 1025
277.77734375 22.22265625 m 1
 444.444335938 22.22265625 l 1
 444.444335938 77.77734375 l 1
 277.77734375 77.77734375 l 1
 277.77734375 22.22265625 l 1025
277.77734375 -33.3330078125 m 1
 388.888671875 -33.3330078125 l 1
 388.888671875 22.22265625 l 1
 277.77734375 22.22265625 l 1
 277.77734375 -33.3330078125 l 1025
277.77734375 -88.888671875 m 1
 388.888671875 -88.888671875 l 1
 388.888671875 -33.3330078125 l 1
 277.77734375 -33.3330078125 l 1
 277.77734375 -88.888671875 l 1025
222.22265625 -144.444335938 m 1
 333.333007812 -144.444335938 l 1
 333.333007812 -88.888671875 l 1
 222.22265625 -88.888671875 l 1
 222.22265625 -144.444335938 l 1025
277.77734375 -200 m 1
 333.333007812 -200 l 1
 333.333007812 -144.444335938 l 1
 277.77734375 -144.444335938 l 1
 277.77734375 -200 l 1
EndSplineSet
EndChar

StartChar: minus
Encoding: 45 8722 13
Width: 550
VWidth: 0
Flags: HW
LayerCount: 2
Back
Fore
SplineSet
55.5556640625 244.444335938 m 1
 555.555664062 244.444335938 l 1
 555.555664062 300 l 1
 55.5556640625 300 l 1
 55.5556640625 244.444335938 l 1025
55.5556640625 188.888671875 m 1
 555.555664062 188.888671875 l 1
 555.555664062 244.444335938 l 1
 55.5556640625 244.444335938 l 1
 55.5556640625 188.888671875 l 1
EndSplineSet
EndChar

StartChar: period
Encoding: 46 46 14
Width: 550
VWidth: 0
Flags: HW
LayerCount: 2
Back
Fore
SplineSet
277.77734375 77.77734375 m 1
 388.888671875 77.77734375 l 1
 388.888671875 133.333007812 l 1
 277.77734375 133.333007812 l 1
 277.77734375 77.77734375 l 1025
222.22265625 22.22265625 m 1
 444.444335938 22.22265625 l 1
 444.444335938 77.77734375 l 1
 222.22265625 77.77734375 l 1
 222.22265625 22.22265625 l 1025
277.77734375 -33.3330078125 m 1
 388.888671875 -33.3330078125 l 1
 388.888671875 22.22265625 l 1
 277.77734375 22.22265625 l 1
 277.77734375 -33.3330078125 l 1
EndSplineSet
EndChar

StartChar: slash
Encoding: 47 47 15
Width: 550
VWidth: 0
Flags: HW
LayerCount: 2
Back
Fore
SplineSet
444.444335938 577.77734375 m 1
 555.555664062 577.77734375 l 1
 555.555664062 633.333007812 l 1
 444.444335938 633.333007812 l 1
 444.444335938 577.77734375 l 1025
444.444335938 522.22265625 m 1
 500 522.22265625 l 1
 500 577.77734375 l 1
 444.444335938 577.77734375 l 1
 444.444335938 522.22265625 l 1025
388.888671875 466.666992188 m 1
 500 466.666992188 l 1
 500 522.22265625 l 1
 388.888671875 522.22265625 l 1
 388.888671875 466.666992188 l 1025
388.888671875 411.111328125 m 1
 444.444335938 411.111328125 l 1
 444.444335938 466.666992188 l 1
 388.888671875 466.666992188 l 1
 388.888671875 411.111328125 l 1025
333.333007812 355.555664062 m 1
 444.444335938 355.555664062 l 1
 444.444335938 411.111328125 l 1
 333.333007812 411.111328125 l 1
 333.333007812 355.555664062 l 1025
333.333007812 300 m 1
 388.888671875 300 l 1
 388.888671875 355.555664062 l 1
 333.333007812 355.555664062 l 1
 333.333007812 300 l 1025
277.77734375 244.444335938 m 1
 388.888671875 244.444335938 l 1
 388.888671875 300 l 1
 277.77734375 300 l 1
 277.77734375 244.444335938 l 1025
277.77734375 188.888671875 m 1
 333.333007812 188.888671875 l 1
 333.333007812 244.444335938 l 1
 277.77734375 244.444335938 l 1
 277.77734375 188.888671875 l 1025
222.22265625 133.333007812 m 1
 333.333007812 133.333007812 l 1
 333.333007812 188.888671875 l 1
 222.22265625 188.888671875 l 1
 222.22265625 133.333007812 l 1025
222.22265625 77.77734375 m 1
 277.77734375 77.77734375 l 1
 277.77734375 133.333007812 l 1
 222.22265625 133.333007812 l 1
 222.22265625 77.77734375 l 1025
166.666992188 22.22265625 m 1
 277.77734375 22.22265625 l 1
 277.77734375 77.77734375 l 1
 166.666992188 77.77734375 l 1
 166.666992188 22.22265625 l 1025
166.666992188 -33.3330078125 m 1
 222.22265625 -33.3330078125 l 1
 222.22265625 22.22265625 l 1
 166.666992188 22.22265625 l 1
 166.666992188 -33.3330078125 l 1025
111.111328125 -88.888671875 m 1
 222.22265625 -88.888671875 l 1
 222.22265625 -33.3330078125 l 1
 111.111328125 -33.3330078125 l 1
 111.111328125 -88.888671875 l 1
EndSplineSet
EndChar

StartChar: zero
Encoding: 48 48 16
Width: 550
VWidth: 0
Flags: HW
LayerCount: 2
Back
Fore
SplineSet
222.22265625 522.22265625 m 1
 388.888671875 522.22265625 l 1
 388.888671875 577.77734375 l 1
 222.22265625 577.77734375 l 1
 222.22265625 522.22265625 l 1025
166.666992188 466.666992188 m 1
 277.77734375 466.666992188 l 1
 277.77734375 522.22265625 l 1
 166.666992188 522.22265625 l 1
 166.666992188 466.666992188 l 1025
333.333007812 466.666992188 m 1
 444.444335938 466.666992188 l 1
 444.444335938 522.22265625 l 1
 333.333007812 522.22265625 l 1
 333.333007812 466.666992188 l 1025
166.666992188 411.111328125 m 1
 222.22265625 411.111328125 l 1
 222.22265625 466.666992188 l 1
 166.666992188 466.666992188 l 1
 166.666992188 411.111328125 l 1025
388.888671875 411.111328125 m 1
 444.444335938 411.111328125 l 1
 444.444335938 466.666992188 l 1
 388.888671875 466.666992188 l 1
 388.888671875 411.111328125 l 1025
111.111328125 355.555664062 m 1
 222.22265625 355.555664062 l 1
 222.22265625 411.111328125 l 1
 111.111328125 411.111328125 l 1
 111.111328125 355.555664062 l 1025
388.888671875 355.555664062 m 1
 500 355.555664062 l 1
 500 411.111328125 l 1
 388.888671875 411.111328125 l 1
 388.888671875 355.555664062 l 1025
111.111328125 300 m 1
 222.22265625 300 l 1
 222.22265625 355.555664062 l 1
 111.111328125 355.555664062 l 1
 111.111328125 300 l 1025
388.888671875 300 m 1
 500 300 l 1
 500 355.555664062 l 1
 388.888671875 355.555664062 l 1
 388.888671875 300 l 1025
111.111328125 244.444335938 m 1
 222.22265625 244.444335938 l 1
 222.22265625 300 l 1
 111.111328125 300 l 1
 111.111328125 244.444335938 l 1025
388.888671875 244.444335938 m 1
 500 244.444335938 l 1
 500 300 l 1
 388.888671875 300 l 1
 388.888671875 244.444335938 l 1025
111.111328125 188.888671875 m 1
 222.22265625 188.888671875 l 1
 222.22265625 244.444335938 l 1
 111.111328125 244.444335938 l 1
 111.111328125 188.888671875 l 1025
388.888671875 188.888671875 m 1
 500 188.888671875 l 1
 500 244.444335938 l 1
 388.888671875 244.444335938 l 1
 388.888671875 188.888671875 l 1025
111.111328125 133.333007812 m 1
 222.22265625 133.333007812 l 1
 222.22265625 188.888671875 l 1
 111.111328125 188.888671875 l 1
 111.111328125 133.333007812 l 1025
388.888671875 133.333007812 m 1
 500 133.333007812 l 1
 500 188.888671875 l 1
 388.888671875 188.888671875 l 1
 388.888671875 133.333007812 l 1025
166.666992188 77.77734375 m 1
 222.22265625 77.77734375 l 1
 222.22265625 133.333007812 l 1
 166.666992188 133.333007812 l 1
 166.666992188 77.77734375 l 1025
388.888671875 77.77734375 m 1
 444.444335938 77.77734375 l 1
 444.444335938 133.333007812 l 1
 388.888671875 133.333007812 l 1
 388.888671875 77.77734375 l 1025
166.666992188 22.22265625 m 1
 277.77734375 22.22265625 l 1
 277.77734375 77.77734375 l 1
 166.666992188 77.77734375 l 1
 166.666992188 22.22265625 l 1025
333.333007812 22.22265625 m 1
 444.444335938 22.22265625 l 1
 444.444335938 77.77734375 l 1
 333.333007812 77.77734375 l 1
 333.333007812 22.22265625 l 1025
222.22265625 -33.3330078125 m 1
 388.888671875 -33.3330078125 l 1
 388.888671875 22.22265625 l 1
 222.22265625 22.22265625 l 1
 222.22265625 -33.3330078125 l 1
EndSplineSet
EndChar

StartChar: one
Encoding: 49 49 17
Width: 550
VWidth: 0
Flags: HW
LayerCount: 2
Back
Fore
SplineSet
277.77734375 522.22265625 m 1
 388.888671875 522.22265625 l 1
 388.888671875 577.77734375 l 1
 277.77734375 577.77734375 l 1
 277.77734375 522.22265625 l 1025
222.22265625 466.666992188 m 1
 388.888671875 466.666992188 l 1
 388.888671875 522.22265625 l 1
 222.22265625 522.22265625 l 1
 222.22265625 466.666992188 l 1025
166.666992188 411.111328125 m 1
 222.22265625 411.111328125 l 1
 222.22265625 466.666992188 l 1
 166.666992188 466.666992188 l 1
 166.666992188 411.111328125 l 1025
277.77734375 411.111328125 m 1
 388.888671875 411.111328125 l 1
 388.888671875 466.666992188 l 1
 277.77734375 466.666992188 l 1
 277.77734375 411.111328125 l 1025
277.77734375 355.555664062 m 1
 388.888671875 355.555664062 l 1
 388.888671875 411.111328125 l 1
 277.77734375 411.111328125 l 1
 277.77734375 355.555664062 l 1025
277.77734375 300 m 1
 388.888671875 300 l 1
 388.888671875 355.555664062 l 1
 277.77734375 355.555664062 l 1
 277.77734375 300 l 1025
277.77734375 244.444335938 m 1
 388.888671875 244.444335938 l 1
 388.888671875 300 l 1
 277.77734375 300 l 1
 277.77734375 244.444335938 l 1025
277.77734375 188.888671875 m 1
 388.888671875 188.888671875 l 1
 388.888671875 244.444335938 l 1
 277.77734375 244.444335938 l 1
 277.77734375 188.888671875 l 1025
277.77734375 133.333007812 m 1
 388.888671875 133.333007812 l 1
 388.888671875 188.888671875 l 1
 277.77734375 188.888671875 l 1
 277.77734375 133.333007812 l 1025
277.77734375 77.77734375 m 1
 388.888671875 77.77734375 l 1
 388.888671875 133.333007812 l 1
 277.77734375 133.333007812 l 1
 277.77734375 77.77734375 l 1025
277.77734375 22.22265625 m 1
 388.888671875 22.22265625 l 1
 388.888671875 77.77734375 l 1
 277.77734375 77.77734375 l 1
 277.77734375 22.22265625 l 1025
166.666992188 -33.3330078125 m 1
 500 -33.3330078125 l 1
 500 22.22265625 l 1
 166.666992188 22.22265625 l 1
 166.666992188 -33.3330078125 l 1
EndSplineSet
EndChar

StartChar: two
Encoding: 50 50 18
Width: 550
VWidth: 0
Flags: HW
LayerCount: 2
Back
Fore
SplineSet
166.666992188 522.22265625 m 1
 444.444335938 522.22265625 l 1
 444.444335938 577.77734375 l 1
 166.666992188 577.77734375 l 1
 166.666992188 522.22265625 l 1025
111.111328125 466.666992188 m 1
 222.22265625 466.666992188 l 1
 222.22265625 522.22265625 l 1
 111.111328125 522.22265625 l 1
 111.111328125 466.666992188 l 1025
333.333007812 466.666992188 m 1
 500 466.666992188 l 1
 500 522.22265625 l 1
 333.333007812 522.22265625 l 1
 333.333007812 466.666992188 l 1025
111.111328125 411.111328125 m 1
 222.22265625 411.111328125 l 1
 222.22265625 466.666992188 l 1
 111.111328125 466.666992188 l 1
 111.111328125 411.111328125 l 1025
388.888671875 411.111328125 m 1
 500 411.111328125 l 1
 500 466.666992188 l 1
 388.888671875 466.666992188 l 1
 388.888671875 411.111328125 l 1025
388.888671875 355.555664062 m 1
 500 355.555664062 l 1
 500 411.111328125 l 1
 388.888671875 411.111328125 l 1
 388.888671875 355.555664062 l 1025
388.888671875 300 m 1
 500 300 l 1
 500 355.555664062 l 1
 388.888671875 355.555664062 l 1
 388.888671875 300 l 1025
333.333007812 244.444335938 m 1
 444.444335938 244.444335938 l 1
 444.444335938 300 l 1
 333.333007812 300 l 1
 333.333007812 244.444335938 l 1025
277.77734375 188.888671875 m 1
 388.888671875 188.888671875 l 1
 388.888671875 244.444335938 l 1
 277.77734375 244.444335938 l 1
 277.77734375 188.888671875 l 1025
222.22265625 133.333007812 m 1
 333.333007812 133.333007812 l 1
 333.333007812 188.888671875 l 1
 222.22265625 188.888671875 l 1
 222.22265625 133.333007812 l 1025
166.666992188 77.77734375 m 1
 277.77734375 77.77734375 l 1
 277.77734375 133.333007812 l 1
 166.666992188 133.333007812 l 1
 166.666992188 77.77734375 l 1025
111.111328125 22.22265625 m 1
 222.22265625 22.22265625 l 1
 222.22265625 77.77734375 l 1
 111.111328125 77.77734375 l 1
 111.111328125 22.22265625 l 1025
388.888671875 22.22265625 m 1
 500 22.22265625 l 1
 500 77.77734375 l 1
 388.888671875 77.77734375 l 1
 388.888671875 22.22265625 l 1025
111.111328125 -33.3330078125 m 1
 500 -33.3330078125 l 1
 500 22.22265625 l 1
 111.111328125 22.22265625 l 1
 111.111328125 -33.3330078125 l 1
EndSplineSet
EndChar

StartChar: three
Encoding: 51 51 19
Width: 550
VWidth: 0
Flags: HW
LayerCount: 2
Back
Fore
SplineSet
166.666992188 522.22265625 m 1
 444.444335938 522.22265625 l 1
 444.444335938 577.77734375 l 1
 166.666992188 577.77734375 l 1
 166.666992188 522.22265625 l 1025
111.111328125 466.666992188 m 1
 222.22265625 466.666992188 l 1
 222.22265625 522.22265625 l 1
 111.111328125 522.22265625 l 1
 111.111328125 466.666992188 l 1025
333.333007812 466.666992188 m 1
 500 466.666992188 l 1
 500 522.22265625 l 1
 333.333007812 522.22265625 l 1
 333.333007812 466.666992188 l 1025
388.888671875 411.111328125 m 1
 500 411.111328125 l 1
 500 466.666992188 l 1
 388.888671875 466.666992188 l 1
 388.888671875 411.111328125 l 1025
388.888671875 355.555664062 m 1
 500 355.555664062 l 1
 500 411.111328125 l 1
 388.888671875 411.111328125 l 1
 388.888671875 355.555664062 l 1025
333.333007812 300 m 1
 444.444335938 300 l 1
 444.444335938 355.555664062 l 1
 333.333007812 355.555664062 l 1
 333.333007812 300 l 1025
222.22265625 244.444335938 m 1
 388.888671875 244.444335938 l 1
 388.888671875 300 l 1
 222.22265625 300 l 1
 222.22265625 244.444335938 l 1025
333.333007812 188.888671875 m 1
 444.444335938 188.888671875 l 1
 444.444335938 244.444335938 l 1
 333.333007812 244.444335938 l 1
 333.333007812 188.888671875 l 1025
388.888671875 133.333007812 m 1
 500 133.333007812 l 1
 500 188.888671875 l 1
 388.888671875 188.888671875 l 1
 388.888671875 133.333007812 l 1025
388.888671875 77.77734375 m 1
 500 77.77734375 l 1
 500 133.333007812 l 1
 388.888671875 133.333007812 l 1
 388.888671875 77.77734375 l 1025
111.111328125 22.22265625 m 1
 222.22265625 22.22265625 l 1
 222.22265625 77.77734375 l 1
 111.111328125 77.77734375 l 1
 111.111328125 22.22265625 l 1025
388.888671875 22.22265625 m 1
 500 22.22265625 l 1
 500 77.77734375 l 1
 388.888671875 77.77734375 l 1
 388.888671875 22.22265625 l 1025
166.666992188 -33.3330078125 m 1
 444.444335938 -33.3330078125 l 1
 444.444335938 22.22265625 l 1
 166.666992188 22.22265625 l 1
 166.666992188 -33.3330078125 l 1
EndSplineSet
EndChar

StartChar: four
Encoding: 52 52 20
Width: 550
VWidth: 0
Flags: HW
LayerCount: 2
Back
Fore
SplineSet
333.333007812 522.22265625 m 1
 444.444335938 522.22265625 l 1
 444.444335938 577.77734375 l 1
 333.333007812 577.77734375 l 1
 333.333007812 522.22265625 l 1025
277.77734375 466.666992188 m 1
 444.444335938 466.666992188 l 1
 444.444335938 522.22265625 l 1
 277.77734375 522.22265625 l 1
 277.77734375 466.666992188 l 1025
277.77734375 411.111328125 m 1
 444.444335938 411.111328125 l 1
 444.444335938 466.666992188 l 1
 277.77734375 466.666992188 l 1
 277.77734375 411.111328125 l 1025
222.22265625 355.555664062 m 1
 277.77734375 355.555664062 l 1
 277.77734375 411.111328125 l 1
 222.22265625 411.111328125 l 1
 222.22265625 355.555664062 l 1025
333.333007812 355.555664062 m 1
 444.444335938 355.555664062 l 1
 444.444335938 411.111328125 l 1
 333.333007812 411.111328125 l 1
 333.333007812 355.555664062 l 1025
166.666992188 300 m 1
 277.77734375 300 l 1
 277.77734375 355.555664062 l 1
 166.666992188 355.555664062 l 1
 166.666992188 300 l 1025
333.333007812 300 m 1
 444.444335938 300 l 1
 444.444335938 355.555664062 l 1
 333.333007812 355.555664062 l 1
 333.333007812 300 l 1025
166.666992188 244.444335938 m 1
 222.22265625 244.444335938 l 1
 222.22265625 300 l 1
 166.666992188 300 l 1
 166.666992188 244.444335938 l 1025
333.333007812 244.444335938 m 1
 444.444335938 244.444335938 l 1
 444.444335938 300 l 1
 333.333007812 300 l 1
 333.333007812 244.444335938 l 1025
111.111328125 188.888671875 m 1
 222.22265625 188.888671875 l 1
 222.22265625 244.444335938 l 1
 111.111328125 244.444335938 l 1
 111.111328125 188.888671875 l 1025
333.333007812 188.888671875 m 1
 444.444335938 188.888671875 l 1
 444.444335938 244.444335938 l 1
 333.333007812 244.444335938 l 1
 333.333007812 188.888671875 l 1025
111.111328125 133.333007812 m 1
 500 133.333007812 l 1
 500 188.888671875 l 1
 111.111328125 188.888671875 l 1
 111.111328125 133.333007812 l 1025
333.333007812 77.77734375 m 1
 444.444335938 77.77734375 l 1
 444.444335938 133.333007812 l 1
 333.333007812 133.333007812 l 1
 333.333007812 77.77734375 l 1025
333.333007812 22.22265625 m 1
 444.444335938 22.22265625 l 1
 444.444335938 77.77734375 l 1
 333.333007812 77.77734375 l 1
 333.333007812 22.22265625 l 1025
277.77734375 -33.3330078125 m 1
 500 -33.3330078125 l 1
 500 22.22265625 l 1
 277.77734375 22.22265625 l 1
 277.77734375 -33.3330078125 l 1
EndSplineSet
EndChar

StartChar: five
Encoding: 53 53 21
Width: 550
VWidth: 0
Flags: HW
LayerCount: 2
Back
Fore
SplineSet
111.111328125 522.22265625 m 1
 444.444335938 522.22265625 l 1
 444.444335938 577.77734375 l 1
 111.111328125 577.77734375 l 1
 111.111328125 522.22265625 l 1025
111.111328125 466.666992188 m 1
 222.22265625 466.666992188 l 1
 222.22265625 522.22265625 l 1
 111.111328125 522.22265625 l 1
 111.111328125 466.666992188 l 1025
111.111328125 411.111328125 m 1
 222.22265625 411.111328125 l 1
 222.22265625 466.666992188 l 1
 111.111328125 466.666992188 l 1
 111.111328125 411.111328125 l 1025
111.111328125 355.555664062 m 1
 222.22265625 355.555664062 l 1
 222.22265625 411.111328125 l 1
 111.111328125 411.111328125 l 1
 111.111328125 355.555664062 l 1025
111.111328125 300 m 1
 388.888671875 300 l 1
 388.888671875 355.555664062 l 1
 111.111328125 355.555664062 l 1
 111.111328125 300 l 1025
111.111328125 244.444335938 m 1
 222.22265625 244.444335938 l 1
 222.22265625 300 l 1
 111.111328125 300 l 1
 111.111328125 244.444335938 l 1025
333.333007812 244.444335938 m 1
 444.444335938 244.444335938 l 1
 444.444335938 300 l 1
 333.333007812 300 l 1
 333.333007812 244.444335938 l 1025
388.888671875 188.888671875 m 1
 500 188.888671875 l 1
 500 244.444335938 l 1
 388.888671875 244.444335938 l 1
 388.888671875 188.888671875 l 1025
388.888671875 133.333007812 m 1
 500 133.333007812 l 1
 500 188.888671875 l 1
 388.888671875 188.888671875 l 1
 388.888671875 133.333007812 l 1025
388.888671875 77.77734375 m 1
 500 77.77734375 l 1
 500 133.333007812 l 1
 388.888671875 133.333007812 l 1
 388.888671875 77.77734375 l 1025
111.111328125 22.22265625 m 1
 222.22265625 22.22265625 l 1
 222.22265625 77.77734375 l 1
 111.111328125 77.77734375 l 1
 111.111328125 22.22265625 l 1025
333.333007812 22.22265625 m 1
 444.444335938 22.22265625 l 1
 444.444335938 77.77734375 l 1
 333.333007812 77.77734375 l 1
 333.333007812 22.22265625 l 1025
166.666992188 -33.3330078125 m 1
 388.888671875 -33.3330078125 l 1
 388.888671875 22.22265625 l 1
 166.666992188 22.22265625 l 1
 166.666992188 -33.3330078125 l 1
EndSplineSet
EndChar

StartChar: six
Encoding: 54 54 22
Width: 550
VWidth: 0
Flags: HW
LayerCount: 2
Back
Fore
SplineSet
277.77734375 522.22265625 m 1
 444.444335938 522.22265625 l 1
 444.444335938 577.77734375 l 1
 277.77734375 577.77734375 l 1
 277.77734375 522.22265625 l 1025
222.22265625 466.666992188 m 1
 277.77734375 466.666992188 l 1
 277.77734375 522.22265625 l 1
 222.22265625 522.22265625 l 1
 222.22265625 466.666992188 l 1025
166.666992188 411.111328125 m 1
 277.77734375 411.111328125 l 1
 277.77734375 466.666992188 l 1
 166.666992188 466.666992188 l 1
 166.666992188 411.111328125 l 1025
166.666992188 355.555664062 m 1
 222.22265625 355.555664062 l 1
 222.22265625 411.111328125 l 1
 166.666992188 411.111328125 l 1
 166.666992188 355.555664062 l 1025
111.111328125 300 m 1
 222.22265625 300 l 1
 222.22265625 355.555664062 l 1
 111.111328125 355.555664062 l 1
 111.111328125 300 l 1025
277.77734375 300 m 1
 388.888671875 300 l 1
 388.888671875 355.555664062 l 1
 277.77734375 355.555664062 l 1
 277.77734375 300 l 1025
111.111328125 244.444335938 m 1
 277.77734375 244.444335938 l 1
 277.77734375 300 l 1
 111.111328125 300 l 1
 111.111328125 244.444335938 l 1025
333.333007812 244.444335938 m 1
 444.444335938 244.444335938 l 1
 444.444335938 300 l 1
 333.333007812 300 l 1
 333.333007812 244.444335938 l 1025
111.111328125 188.888671875 m 1
 222.22265625 188.888671875 l 1
 222.22265625 244.444335938 l 1
 111.111328125 244.444335938 l 1
 111.111328125 188.888671875 l 1025
388.888671875 188.888671875 m 1
 500 188.888671875 l 1
 500 244.444335938 l 1
 388.888671875 244.444335938 l 1
 388.888671875 188.888671875 l 1025
111.111328125 133.333007812 m 1
 222.22265625 133.333007812 l 1
 222.22265625 188.888671875 l 1
 111.111328125 188.888671875 l 1
 111.111328125 133.333007812 l 1025
388.888671875 133.333007812 m 1
 500 133.333007812 l 1
 500 188.888671875 l 1
 388.888671875 188.888671875 l 1
 388.888671875 133.333007812 l 1025
111.111328125 77.77734375 m 1
 222.22265625 77.77734375 l 1
 222.22265625 133.333007812 l 1
 111.111328125 133.333007812 l 1
 111.111328125 77.77734375 l 1025
388.888671875 77.77734375 m 1
 500 77.77734375 l 1
 500 133.333007812 l 1
 388.888671875 133.333007812 l 1
 388.888671875 77.77734375 l 1025
166.666992188 22.22265625 m 1
 277.77734375 22.22265625 l 1
 277.77734375 77.77734375 l 1
 166.666992188 77.77734375 l 1
 166.666992188 22.22265625 l 1025
333.333007812 22.22265625 m 1
 444.444335938 22.22265625 l 1
 444.444335938 77.77734375 l 1
 333.333007812 77.77734375 l 1
 333.333007812 22.22265625 l 1025
222.22265625 -33.3330078125 m 1
 388.888671875 -33.3330078125 l 1
 388.888671875 22.22265625 l 1
 222.22265625 22.22265625 l 1
 222.22265625 -33.3330078125 l 1
EndSplineSet
EndChar

StartChar: seven
Encoding: 55 55 23
Width: 550
VWidth: 0
Flags: HW
LayerCount: 2
Back
Fore
SplineSet
111.111328125 522.22265625 m 1
 500 522.22265625 l 1
 500 577.77734375 l 1
 111.111328125 577.77734375 l 1
 111.111328125 522.22265625 l 1025
111.111328125 466.666992188 m 1
 222.22265625 466.666992188 l 1
 222.22265625 522.22265625 l 1
 111.111328125 522.22265625 l 1
 111.111328125 466.666992188 l 1025
388.888671875 466.666992188 m 1
 500 466.666992188 l 1
 500 522.22265625 l 1
 388.888671875 522.22265625 l 1
 388.888671875 466.666992188 l 1025
388.888671875 411.111328125 m 1
 500 411.111328125 l 1
 500 466.666992188 l 1
 388.888671875 466.666992188 l 1
 388.888671875 411.111328125 l 1025
333.333007812 355.555664062 m 1
 444.444335938 355.555664062 l 1
 444.444335938 411.111328125 l 1
 333.333007812 411.111328125 l 1
 333.333007812 355.555664062 l 1025
333.333007812 300 m 1
 444.444335938 300 l 1
 444.444335938 355.555664062 l 1
 333.333007812 355.555664062 l 1
 333.333007812 300 l 1025
333.333007812 244.444335938 m 1
 388.888671875 244.444335938 l 1
 388.888671875 300 l 1
 333.333007812 300 l 1
 333.333007812 244.444335938 l 1025
277.77734375 188.888671875 m 1
 388.888671875 188.888671875 l 1
 388.888671875 244.444335938 l 1
 277.77734375 244.444335938 l 1
 277.77734375 188.888671875 l 1025
277.77734375 133.333007812 m 1
 388.888671875 133.333007812 l 1
 388.888671875 188.888671875 l 1
 277.77734375 188.888671875 l 1
 277.77734375 133.333007812 l 1025
277.77734375 77.77734375 m 1
 333.333007812 77.77734375 l 1
 333.333007812 133.333007812 l 1
 277.77734375 133.333007812 l 1
 277.77734375 77.77734375 l 1025
222.22265625 22.22265625 m 1
 333.333007812 22.22265625 l 1
 333.333007812 77.77734375 l 1
 222.22265625 77.77734375 l 1
 222.22265625 22.22265625 l 1025
222.22265625 -33.3330078125 m 1
 333.333007812 -33.3330078125 l 1
 333.333007812 22.22265625 l 1
 222.22265625 22.22265625 l 1
 222.22265625 -33.3330078125 l 1
EndSplineSet
EndChar

StartChar: eight
Encoding: 56 56 24
Width: 550
VWidth: 0
Flags: HW
LayerCount: 2
Back
Fore
SplineSet
222.22265625 522.22265625 m 1
 388.888671875 522.22265625 l 1
 388.888671875 577.77734375 l 1
 222.22265625 577.77734375 l 1
 222.22265625 522.22265625 l 1025
166.666992188 466.666992188 m 1
 277.77734375 466.666992188 l 1
 277.77734375 522.22265625 l 1
 166.666992188 522.22265625 l 1
 166.666992188 466.666992188 l 1025
333.333007812 466.666992188 m 1
 444.444335938 466.666992188 l 1
 444.444335938 522.22265625 l 1
 333.333007812 522.22265625 l 1
 333.333007812 466.666992188 l 1025
111.111328125 411.111328125 m 1
 222.22265625 411.111328125 l 1
 222.22265625 466.666992188 l 1
 111.111328125 466.666992188 l 1
 111.111328125 411.111328125 l 1025
388.888671875 411.111328125 m 1
 500 411.111328125 l 1
 500 466.666992188 l 1
 388.888671875 466.666992188 l 1
 388.888671875 411.111328125 l 1025
111.111328125 355.555664062 m 1
 222.22265625 355.555664062 l 1
 222.22265625 411.111328125 l 1
 111.111328125 411.111328125 l 1
 111.111328125 355.555664062 l 1025
388.888671875 355.555664062 m 1
 500 355.555664062 l 1
 500 411.111328125 l 1
 388.888671875 411.111328125 l 1
 388.888671875 355.555664062 l 1025
166.666992188 300 m 1
 277.77734375 300 l 1
 277.77734375 355.555664062 l 1
 166.666992188 355.555664062 l 1
 166.666992188 300 l 1025
333.333007812 300 m 1
 444.444335938 300 l 1
 444.444335938 355.555664062 l 1
 333.333007812 355.555664062 l 1
 333.333007812 300 l 1025
222.22265625 244.444335938 m 1
 388.888671875 244.444335938 l 1
 388.888671875 300 l 1
 222.22265625 300 l 1
 222.22265625 244.444335938 l 1025
166.666992188 188.888671875 m 1
 277.77734375 188.888671875 l 1
 277.77734375 244.444335938 l 1
 166.666992188 244.444335938 l 1
 166.666992188 188.888671875 l 1025
333.333007812 188.888671875 m 1
 444.444335938 188.888671875 l 1
 444.444335938 244.444335938 l 1
 333.333007812 244.444335938 l 1
 333.333007812 188.888671875 l 1025
111.111328125 133.333007812 m 1
 222.22265625 133.333007812 l 1
 222.22265625 188.888671875 l 1
 111.111328125 188.888671875 l 1
 111.111328125 133.333007812 l 1025
388.888671875 133.333007812 m 1
 500 133.333007812 l 1
 500 188.888671875 l 1
 388.888671875 188.888671875 l 1
 388.888671875 133.333007812 l 1025
111.111328125 77.77734375 m 1
 222.22265625 77.77734375 l 1
 222.22265625 133.333007812 l 1
 111.111328125 133.333007812 l 1
 111.111328125 77.77734375 l 1025
388.888671875 77.77734375 m 1
 500 77.77734375 l 1
 500 133.333007812 l 1
 388.888671875 133.333007812 l 1
 388.888671875 77.77734375 l 1025
166.666992188 22.22265625 m 1
 277.77734375 22.22265625 l 1
 277.77734375 77.77734375 l 1
 166.666992188 77.77734375 l 1
 166.666992188 22.22265625 l 1025
333.333007812 22.22265625 m 1
 444.444335938 22.22265625 l 1
 444.444335938 77.77734375 l 1
 333.333007812 77.77734375 l 1
 333.333007812 22.22265625 l 1025
222.22265625 -33.3330078125 m 1
 388.888671875 -33.3330078125 l 1
 388.888671875 22.22265625 l 1
 222.22265625 22.22265625 l 1
 222.22265625 -33.3330078125 l 1
EndSplineSet
EndChar

StartChar: nine
Encoding: 57 57 25
Width: 550
VWidth: 0
Flags: HW
LayerCount: 2
Back
Fore
SplineSet
222.22265625 522.22265625 m 1
 388.888671875 522.22265625 l 1
 388.888671875 577.77734375 l 1
 222.22265625 577.77734375 l 1
 222.22265625 522.22265625 l 1025
166.666992188 466.666992188 m 1
 277.77734375 466.666992188 l 1
 277.77734375 522.22265625 l 1
 166.666992188 522.22265625 l 1
 166.666992188 466.666992188 l 1025
333.333007812 466.666992188 m 1
 444.444335938 466.666992188 l 1
 444.444335938 522.22265625 l 1
 333.333007812 522.22265625 l 1
 333.333007812 466.666992188 l 1025
111.111328125 411.111328125 m 1
 222.22265625 411.111328125 l 1
 222.22265625 466.666992188 l 1
 111.111328125 466.666992188 l 1
 111.111328125 411.111328125 l 1025
388.888671875 411.111328125 m 1
 500 411.111328125 l 1
 500 466.666992188 l 1
 388.888671875 466.666992188 l 1
 388.888671875 411.111328125 l 1025
111.111328125 355.555664062 m 1
 222.22265625 355.555664062 l 1
 222.22265625 411.111328125 l 1
 111.111328125 411.111328125 l 1
 111.111328125 355.555664062 l 1025
388.888671875 355.555664062 m 1
 500 355.555664062 l 1
 500 411.111328125 l 1
 388.888671875 411.111328125 l 1
 388.888671875 355.555664062 l 1025
111.111328125 300 m 1
 222.22265625 300 l 1
 222.22265625 355.555664062 l 1
 111.111328125 355.555664062 l 1
 111.111328125 300 l 1025
388.888671875 300 m 1
 500 300 l 1
 500 355.555664062 l 1
 388.888671875 355.555664062 l 1
 388.888671875 300 l 1025
166.666992188 244.444335938 m 1
 277.77734375 244.444335938 l 1
 277.77734375 300 l 1
 166.666992188 300 l 1
 166.666992188 244.444335938 l 1025
333.333007812 244.444335938 m 1
 500 244.444335938 l 1
 500 300 l 1
 333.333007812 300 l 1
 333.333007812 244.444335938 l 1025
222.22265625 188.888671875 m 1
 333.333007812 188.888671875 l 1
 333.333007812 244.444335938 l 1
 222.22265625 244.444335938 l 1
 222.22265625 188.888671875 l 1025
388.888671875 188.888671875 m 1
 500 188.888671875 l 1
 500 244.444335938 l 1
 388.888671875 244.444335938 l 1
 388.888671875 188.888671875 l 1025
388.888671875 133.333007812 m 1
 444.444335938 133.333007812 l 1
 444.444335938 188.888671875 l 1
 388.888671875 188.888671875 l 1
 388.888671875 133.333007812 l 1025
333.333007812 77.77734375 m 1
 444.444335938 77.77734375 l 1
 444.444335938 133.333007812 l 1
 333.333007812 133.333007812 l 1
 333.333007812 77.77734375 l 1025
277.77734375 22.22265625 m 1
 388.888671875 22.22265625 l 1
 388.888671875 77.77734375 l 1
 277.77734375 77.77734375 l 1
 277.77734375 22.22265625 l 1025
166.666992188 -33.3330078125 m 1
 333.333007812 -33.3330078125 l 1
 333.333007812 22.22265625 l 1
 166.666992188 22.22265625 l 1
 166.666992188 -33.3330078125 l 1
EndSplineSet
EndChar

StartChar: colon
Encoding: 58 58 26
Width: 550
VWidth: 0
Flags: HW
LayerCount: 2
Back
Fore
SplineSet
277.77734375 411.111328125 m 1
 388.888671875 411.111328125 l 1
 388.888671875 466.666992188 l 1
 277.77734375 466.666992188 l 1
 277.77734375 411.111328125 l 1025
222.22265625 355.555664062 m 1
 444.444335938 355.555664062 l 1
 444.444335938 411.111328125 l 1
 222.22265625 411.111328125 l 1
 222.22265625 355.555664062 l 1025
277.77734375 300 m 1
 388.888671875 300 l 1
 388.888671875 355.555664062 l 1
 277.77734375 355.555664062 l 1
 277.77734375 300 l 1025
277.77734375 77.77734375 m 1
 388.888671875 77.77734375 l 1
 388.888671875 133.333007812 l 1
 277.77734375 133.333007812 l 1
 277.77734375 77.77734375 l 1025
222.22265625 22.22265625 m 1
 444.444335938 22.22265625 l 1
 444.444335938 77.77734375 l 1
 222.22265625 77.77734375 l 1
 222.22265625 22.22265625 l 1025
277.77734375 -33.3330078125 m 1
 388.888671875 -33.3330078125 l 1
 388.888671875 22.22265625 l 1
 277.77734375 22.22265625 l 1
 277.77734375 -33.3330078125 l 1
EndSplineSet
EndChar

StartChar: semicolon
Encoding: 59 59 27
Width: 550
VWidth: 0
Flags: HW
LayerCount: 2
Back
Fore
SplineSet
277.77734375 411.111328125 m 1
 388.888671875 411.111328125 l 1
 388.888671875 466.666992188 l 1
 277.77734375 466.666992188 l 1
 277.77734375 411.111328125 l 1025
222.22265625 355.555664062 m 1
 444.444335938 355.555664062 l 1
 444.444335938 411.111328125 l 1
 222.22265625 411.111328125 l 1
 222.22265625 355.555664062 l 1025
277.77734375 300 m 1
 388.888671875 300 l 1
 388.888671875 355.555664062 l 1
 277.77734375 355.555664062 l 1
 277.77734375 300 l 1025
222.22265625 77.77734375 m 1
 388.888671875 77.77734375 l 1
 388.888671875 133.333007812 l 1
 222.22265625 133.333007812 l 1
 222.22265625 77.77734375 l 1025
222.22265625 22.22265625 m 1
 388.888671875 22.22265625 l 1
 388.888671875 77.77734375 l 1
 222.22265625 77.77734375 l 1
 222.22265625 22.22265625 l 1025
222.22265625 -33.3330078125 m 1
 333.333007812 -33.3330078125 l 1
 333.333007812 22.22265625 l 1
 222.22265625 22.22265625 l 1
 222.22265625 -33.3330078125 l 1025
222.22265625 -88.888671875 m 1
 333.333007812 -88.888671875 l 1
 333.333007812 -33.3330078125 l 1
 222.22265625 -33.3330078125 l 1
 222.22265625 -88.888671875 l 1025
166.666992188 -144.444335938 m 1
 277.77734375 -144.444335938 l 1
 277.77734375 -88.888671875 l 1
 166.666992188 -88.888671875 l 1
 166.666992188 -144.444335938 l 1025
222.22265625 -200 m 1
 277.77734375 -200 l 1
 277.77734375 -144.444335938 l 1
 222.22265625 -144.444335938 l 1
 222.22265625 -200 l 1
EndSplineSet
EndChar

StartChar: less
Encoding: 60 60 28
Width: 550
VWidth: 0
Flags: HW
LayerCount: 2
Back
Fore
SplineSet
444.444335938 466.666992188 m 1
 555.555664062 466.666992188 l 1
 555.555664062 522.22265625 l 1
 444.444335938 522.22265625 l 1
 444.444335938 466.666992188 l 1025
333.333007812 411.111328125 m 1
 555.555664062 411.111328125 l 1
 555.555664062 466.666992188 l 1
 333.333007812 466.666992188 l 1
 333.333007812 411.111328125 l 1025
222.22265625 355.555664062 m 1
 444.444335938 355.555664062 l 1
 444.444335938 411.111328125 l 1
 222.22265625 411.111328125 l 1
 222.22265625 355.555664062 l 1025
111.111328125 300 m 1
 333.333007812 300 l 1
 333.333007812 355.555664062 l 1
 111.111328125 355.555664062 l 1
 111.111328125 300 l 1025
55.5556640625 244.444335938 m 1
 222.22265625 244.444335938 l 1
 222.22265625 300 l 1
 55.5556640625 300 l 1
 55.5556640625 244.444335938 l 1025
111.111328125 188.888671875 m 1
 333.333007812 188.888671875 l 1
 333.333007812 244.444335938 l 1
 111.111328125 244.444335938 l 1
 111.111328125 188.888671875 l 1025
222.22265625 133.333007812 m 1
 444.444335938 133.333007812 l 1
 444.444335938 188.888671875 l 1
 222.22265625 188.888671875 l 1
 222.22265625 133.333007812 l 1025
333.333007812 77.77734375 m 1
 555.555664062 77.77734375 l 1
 555.555664062 133.333007812 l 1
 333.333007812 133.333007812 l 1
 333.333007812 77.77734375 l 1025
444.444335938 22.22265625 m 1
 555.555664062 22.22265625 l 1
 555.555664062 77.77734375 l 1
 444.444335938 77.77734375 l 1
 444.444335938 22.22265625 l 1
EndSplineSet
EndChar

StartChar: equal
Encoding: 61 61 29
Width: 550
VWidth: 0
Flags: HW
LayerCount: 2
Back
Fore
SplineSet
111.111328125 355.555664062 m 1
 555.555664062 355.555664062 l 1
 555.555664062 411.111328125 l 1
 111.111328125 411.111328125 l 1
 111.111328125 355.555664062 l 1025
111.111328125 300 m 1
 555.555664062 300 l 1
 555.555664062 355.555664062 l 1
 111.111328125 355.555664062 l 1
 111.111328125 300 l 1025
111.111328125 133.333007812 m 1
 555.555664062 133.333007812 l 1
 555.555664062 188.888671875 l 1
 111.111328125 188.888671875 l 1
 111.111328125 133.333007812 l 1025
111.111328125 77.77734375 m 1
 555.555664062 77.77734375 l 1
 555.555664062 133.333007812 l 1
 111.111328125 133.333007812 l 1
 111.111328125 77.77734375 l 1
EndSplineSet
EndChar

StartChar: greater
Encoding: 62 62 30
Width: 550
VWidth: 0
Flags: HW
LayerCount: 2
Back
Fore
SplineSet
55.5556640625 466.666992188 m 1
 166.666992188 466.666992188 l 1
 166.666992188 522.22265625 l 1
 55.5556640625 522.22265625 l 1
 55.5556640625 466.666992188 l 1025
55.5556640625 411.111328125 m 1
 277.77734375 411.111328125 l 1
 277.77734375 466.666992188 l 1
 55.5556640625 466.666992188 l 1
 55.5556640625 411.111328125 l 1025
166.666992188 355.555664062 m 1
 388.888671875 355.555664062 l 1
 388.888671875 411.111328125 l 1
 166.666992188 411.111328125 l 1
 166.666992188 355.555664062 l 1025
277.77734375 300 m 1
 500 300 l 1
 500 355.555664062 l 1
 277.77734375 355.555664062 l 1
 277.77734375 300 l 1025
388.888671875 244.444335938 m 1
 555.555664062 244.444335938 l 1
 555.555664062 300 l 1
 388.888671875 300 l 1
 388.888671875 244.444335938 l 1025
277.77734375 188.888671875 m 1
 500 188.888671875 l 1
 500 244.444335938 l 1
 277.77734375 244.444335938 l 1
 277.77734375 188.888671875 l 1025
166.666992188 133.333007812 m 1
 388.888671875 133.333007812 l 1
 388.888671875 188.888671875 l 1
 166.666992188 188.888671875 l 1
 166.666992188 133.333007812 l 1025
55.5556640625 77.77734375 m 1
 277.77734375 77.77734375 l 1
 277.77734375 133.333007812 l 1
 55.5556640625 133.333007812 l 1
 55.5556640625 77.77734375 l 1025
55.5556640625 22.22265625 m 1
 166.666992188 22.22265625 l 1
 166.666992188 77.77734375 l 1
 55.5556640625 77.77734375 l 1
 55.5556640625 22.22265625 l 1
EndSplineSet
EndChar

StartChar: question
Encoding: 63 63 31
Width: 550
VWidth: 0
Flags: HW
LayerCount: 2
Back
Fore
SplineSet
166.666992188 522.22265625 m 1
 500 522.22265625 l 1
 500 577.77734375 l 1
 166.666992188 577.77734375 l 1
 166.666992188 522.22265625 l 1025
111.111328125 466.666992188 m 1
 222.22265625 466.666992188 l 1
 222.22265625 522.22265625 l 1
 111.111328125 522.22265625 l 1
 111.111328125 466.666992188 l 1025
444.444335938 466.666992188 m 1
 555.555664062 466.666992188 l 1
 555.555664062 522.22265625 l 1
 444.444335938 522.22265625 l 1
 444.444335938 466.666992188 l 1025
444.444335938 411.111328125 m 1
 555.555664062 411.111328125 l 1
 555.555664062 466.666992188 l 1
 444.444335938 466.666992188 l 1
 444.444335938 411.111328125 l 1025
444.444335938 355.555664062 m 1
 555.555664062 355.555664062 l 1
 555.555664062 411.111328125 l 1
 444.444335938 411.111328125 l 1
 444.444335938 355.555664062 l 1025
333.333007812 300 m 1
 500 300 l 1
 500 355.555664062 l 1
 333.333007812 355.555664062 l 1
 333.333007812 300 l 1025
222.22265625 244.444335938 m 1
 388.888671875 244.444335938 l 1
 388.888671875 300 l 1
 222.22265625 300 l 1
 222.22265625 244.444335938 l 1025
222.22265625 188.888671875 m 1
 333.333007812 188.888671875 l 1
 333.333007812 244.444335938 l 1
 222.22265625 244.444335938 l 1
 222.22265625 188.888671875 l 1025
222.22265625 77.77734375 m 1
 333.333007812 77.77734375 l 1
 333.333007812 133.333007812 l 1
 222.22265625 133.333007812 l 1
 222.22265625 77.77734375 l 1025
166.666992188 22.22265625 m 1
 388.888671875 22.22265625 l 1
 388.888671875 77.77734375 l 1
 166.666992188 77.77734375 l 1
 166.666992188 22.22265625 l 1025
222.22265625 -33.3330078125 m 1
 333.333007812 -33.3330078125 l 1
 333.333007812 22.22265625 l 1
 222.22265625 22.22265625 l 1
 222.22265625 -33.3330078125 l 1
EndSplineSet
EndChar

StartChar: at
Encoding: 64 64 32
Width: 550
VWidth: 0
Flags: HW
LayerCount: 2
Back
Fore
SplineSet
222.22265625 577.77734375 m 1
 388.888671875 577.77734375 l 1
 388.888671875 633.333007812 l 1
 222.22265625 633.333007812 l 1
 222.22265625 577.77734375 l 1025
111.111328125 522.22265625 m 1
 222.22265625 522.22265625 l 1
 222.22265625 577.77734375 l 1
 111.111328125 577.77734375 l 1
 111.111328125 522.22265625 l 1025
388.888671875 522.22265625 m 1
 500 522.22265625 l 1
 500 577.77734375 l 1
 388.888671875 577.77734375 l 1
 388.888671875 522.22265625 l 1025
111.111328125 466.666992188 m 1
 166.666992188 466.666992188 l 1
 166.666992188 522.22265625 l 1
 111.111328125 522.22265625 l 1
 111.111328125 466.666992188 l 1025
444.444335938 466.666992188 m 1
 500 466.666992188 l 1
 500 522.22265625 l 1
 444.444335938 522.22265625 l 1
 444.444335938 466.666992188 l 1025
55.5556640625 411.111328125 m 1
 166.666992188 411.111328125 l 1
 166.666992188 466.666992188 l 1
 55.5556640625 466.666992188 l 1
 55.5556640625 411.111328125 l 1025
444.444335938 411.111328125 m 1
 555.555664062 411.111328125 l 1
 555.555664062 466.666992188 l 1
 444.444335938 466.666992188 l 1
 444.444335938 411.111328125 l 1025
55.5556640625 355.555664062 m 1
 166.666992188 355.555664062 l 1
 166.666992188 411.111328125 l 1
 55.5556640625 411.111328125 l 1
 55.5556640625 355.555664062 l 1025
333.333007812 355.555664062 m 1
 555.555664062 355.555664062 l 1
 555.555664062 411.111328125 l 1
 333.333007812 411.111328125 l 1
 333.333007812 355.555664062 l 1025
55.5556640625 300 m 1
 166.666992188 300 l 1
 166.666992188 355.555664062 l 1
 55.5556640625 355.555664062 l 1
 55.5556640625 300 l 1025
277.77734375 300 m 1
 333.333007812 300 l 1
 333.333007812 355.555664062 l 1
 277.77734375 355.555664062 l 1
 277.77734375 300 l 1025
444.444335938 300 m 1
 555.555664062 300 l 1
 555.555664062 355.555664062 l 1
 444.444335938 355.555664062 l 1
 444.444335938 300 l 1025
55.5556640625 244.444335938 m 1
 166.666992188 244.444335938 l 1
 166.666992188 300 l 1
 55.5556640625 300 l 1
 55.5556640625 244.444335938 l 1025
222.22265625 244.444335938 m 1
 333.333007812 244.444335938 l 1
 333.333007812 300 l 1
 222.22265625 300 l 1
 222.22265625 244.444335938 l 1025
444.444335938 244.444335938 m 1
 555.555664062 244.444335938 l 1
 555.555664062 300 l 1
 444.444335938 300 l 1
 444.444335938 244.444335938 l 1025
55.5556640625 188.888671875 m 1
 166.666992188 188.888671875 l 1
 166.666992188 244.444335938 l 1
 55.5556640625 244.444335938 l 1
 55.5556640625 188.888671875 l 1025
222.22265625 188.888671875 m 1
 333.333007812 188.888671875 l 1
 333.333007812 244.444335938 l 1
 222.22265625 244.444335938 l 1
 222.22265625 188.888671875 l 1025
444.444335938 188.888671875 m 1
 555.555664062 188.888671875 l 1
 555.555664062 244.444335938 l 1
 444.444335938 244.444335938 l 1
 444.444335938 188.888671875 l 1025
55.5556640625 133.333007812 m 1
 166.666992188 133.333007812 l 1
 166.666992188 188.888671875 l 1
 55.5556640625 188.888671875 l 1
 55.5556640625 133.333007812 l 1025
222.22265625 133.333007812 m 1
 333.333007812 133.333007812 l 1
 333.333007812 188.888671875 l 1
 222.22265625 188.888671875 l 1
 222.22265625 133.333007812 l 1025
444.444335938 133.333007812 m 1
 555.555664062 133.333007812 l 1
 555.555664062 188.888671875 l 1
 444.444335938 188.888671875 l 1
 444.444335938 133.333007812 l 1025
55.5556640625 77.77734375 m 1
 166.666992188 77.77734375 l 1
 166.666992188 133.333007812 l 1
 55.5556640625 133.333007812 l 1
 55.5556640625 77.77734375 l 1025
277.77734375 77.77734375 m 1
 611.111328125 77.77734375 l 1
 611.111328125 133.333007812 l 1
 277.77734375 133.333007812 l 1
 277.77734375 77.77734375 l 1025
55.5556640625 22.22265625 m 1
 166.666992188 22.22265625 l 1
 166.666992188 77.77734375 l 1
 55.5556640625 77.77734375 l 1
 55.5556640625 22.22265625 l 1025
111.111328125 -33.3330078125 m 1
 222.22265625 -33.3330078125 l 1
 222.22265625 22.22265625 l 1
 111.111328125 22.22265625 l 1
 111.111328125 -33.3330078125 l 1025
111.111328125 -88.888671875 m 1
 277.77734375 -88.888671875 l 1
 277.77734375 -33.3330078125 l 1
 111.111328125 -33.3330078125 l 1
 111.111328125 -88.888671875 l 1025
500 -88.888671875 m 1
 555.555664062 -88.888671875 l 1
 555.555664062 -33.3330078125 l 1
 500 -33.3330078125 l 1
 500 -88.888671875 l 1025
222.22265625 -144.444335938 m 1
 500 -144.444335938 l 1
 500 -88.888671875 l 1
 222.22265625 -88.888671875 l 1
 222.22265625 -144.444335938 l 1
EndSplineSet
EndChar

StartChar: A
Encoding: 65 65 33
Width: 550
VWidth: 0
Flags: HW
LayerCount: 2
Back
Fore
SplineSet
222.22265625 522.22265625 m 1
 388.888671875 522.22265625 l 1
 388.888671875 577.77734375 l 1
 222.22265625 577.77734375 l 1
 222.22265625 522.22265625 l 1025
222.22265625 466.666992188 m 1
 388.888671875 466.666992188 l 1
 388.888671875 522.22265625 l 1
 222.22265625 522.22265625 l 1
 222.22265625 466.666992188 l 1025
166.666992188 411.111328125 m 1
 277.77734375 411.111328125 l 1
 277.77734375 466.666992188 l 1
 166.666992188 466.666992188 l 1
 166.666992188 411.111328125 l 1025
333.333007812 411.111328125 m 1
 444.444335938 411.111328125 l 1
 444.444335938 466.666992188 l 1
 333.333007812 466.666992188 l 1
 333.333007812 411.111328125 l 1025
166.666992188 355.555664062 m 1
 277.77734375 355.555664062 l 1
 277.77734375 411.111328125 l 1
 166.666992188 411.111328125 l 1
 166.666992188 355.555664062 l 1025
333.333007812 355.555664062 m 1
 444.444335938 355.555664062 l 1
 444.444335938 411.111328125 l 1
 333.333007812 411.111328125 l 1
 333.333007812 355.555664062 l 1025
166.666992188 300 m 1
 277.77734375 300 l 1
 277.77734375 355.555664062 l 1
 166.666992188 355.555664062 l 1
 166.666992188 300 l 1025
333.333007812 300 m 1
 444.444335938 300 l 1
 444.444335938 355.555664062 l 1
 333.333007812 355.555664062 l 1
 333.333007812 300 l 1025
111.111328125 244.444335938 m 1
 222.22265625 244.444335938 l 1
 222.22265625 300 l 1
 111.111328125 300 l 1
 111.111328125 244.444335938 l 1025
388.888671875 244.444335938 m 1
 500 244.444335938 l 1
 500 300 l 1
 388.888671875 300 l 1
 388.888671875 244.444335938 l 1025
111.111328125 188.888671875 m 1
 222.22265625 188.888671875 l 1
 222.22265625 244.444335938 l 1
 111.111328125 244.444335938 l 1
 111.111328125 188.888671875 l 1025
388.888671875 188.888671875 m 1
 500 188.888671875 l 1
 500 244.444335938 l 1
 388.888671875 244.444335938 l 1
 388.888671875 188.888671875 l 1025
111.111328125 133.333007812 m 1
 500 133.333007812 l 1
 500 188.888671875 l 1
 111.111328125 188.888671875 l 1
 111.111328125 133.333007812 l 1025
55.5556640625 77.77734375 m 1
 166.666992188 77.77734375 l 1
 166.666992188 133.333007812 l 1
 55.5556640625 133.333007812 l 1
 55.5556640625 77.77734375 l 1025
444.444335938 77.77734375 m 1
 555.555664062 77.77734375 l 1
 555.555664062 133.333007812 l 1
 444.444335938 133.333007812 l 1
 444.444335938 77.77734375 l 1025
55.5556640625 22.22265625 m 1
 166.666992188 22.22265625 l 1
 166.666992188 77.77734375 l 1
 55.5556640625 77.77734375 l 1
 55.5556640625 22.22265625 l 1025
444.444335938 22.22265625 m 1
 555.555664062 22.22265625 l 1
 555.555664062 77.77734375 l 1
 444.444335938 77.77734375 l 1
 444.444335938 22.22265625 l 1025
0 -33.3330078125 m 1
 222.22265625 -33.3330078125 l 1
 222.22265625 22.22265625 l 1
 0 22.22265625 l 1
 0 -33.3330078125 l 1025
388.888671875 -33.3330078125 m 1
 611.111328125 -33.3330078125 l 1
 611.111328125 22.22265625 l 1
 388.888671875 22.22265625 l 1
 388.888671875 -33.3330078125 l 1
EndSplineSet
EndChar

StartChar: B
Encoding: 66 66 34
Width: 550
VWidth: 0
Flags: HW
LayerCount: 2
Back
Fore
SplineSet
55.5556640625 522.22265625 m 1
 444.444335938 522.22265625 l 1
 444.444335938 577.77734375 l 1
 55.5556640625 577.77734375 l 1
 55.5556640625 522.22265625 l 1025
111.111328125 466.666992188 m 1
 222.22265625 466.666992188 l 1
 222.22265625 522.22265625 l 1
 111.111328125 522.22265625 l 1
 111.111328125 466.666992188 l 1025
388.888671875 466.666992188 m 1
 500 466.666992188 l 1
 500 522.22265625 l 1
 388.888671875 522.22265625 l 1
 388.888671875 466.666992188 l 1025
111.111328125 411.111328125 m 1
 222.22265625 411.111328125 l 1
 222.22265625 466.666992188 l 1
 111.111328125 466.666992188 l 1
 111.111328125 411.111328125 l 1025
388.888671875 411.111328125 m 1
 500 411.111328125 l 1
 500 466.666992188 l 1
 388.888671875 466.666992188 l 1
 388.888671875 411.111328125 l 1025
111.111328125 355.555664062 m 1
 222.22265625 355.555664062 l 1
 222.22265625 411.111328125 l 1
 111.111328125 411.111328125 l 1
 111.111328125 355.555664062 l 1025
388.888671875 355.555664062 m 1
 500 355.555664062 l 1
 500 411.111328125 l 1
 388.888671875 411.111328125 l 1
 388.888671875 355.555664062 l 1025
111.111328125 300 m 1
 222.22265625 300 l 1
 222.22265625 355.555664062 l 1
 111.111328125 355.555664062 l 1
 111.111328125 300 l 1025
388.888671875 300 m 1
 444.444335938 300 l 1
 444.444335938 355.555664062 l 1
 388.888671875 355.555664062 l 1
 388.888671875 300 l 1025
111.111328125 244.444335938 m 1
 500 244.444335938 l 1
 500 300 l 1
 111.111328125 300 l 1
 111.111328125 244.444335938 l 1025
111.111328125 188.888671875 m 1
 222.22265625 188.888671875 l 1
 222.22265625 244.444335938 l 1
 111.111328125 244.444335938 l 1
 111.111328125 188.888671875 l 1025
444.444335938 188.888671875 m 1
 555.555664062 188.888671875 l 1
 555.555664062 244.444335938 l 1
 444.444335938 244.444335938 l 1
 444.444335938 188.888671875 l 1025
111.111328125 133.333007812 m 1
 222.22265625 133.333007812 l 1
 222.22265625 188.888671875 l 1
 111.111328125 188.888671875 l 1
 111.111328125 133.333007812 l 1025
444.444335938 133.333007812 m 1
 555.555664062 133.333007812 l 1
 555.555664062 188.888671875 l 1
 444.444335938 188.888671875 l 1
 444.444335938 133.333007812 l 1025
111.111328125 77.77734375 m 1
 222.22265625 77.77734375 l 1
 222.22265625 133.333007812 l 1
 111.111328125 133.333007812 l 1
 111.111328125 77.77734375 l 1025
444.444335938 77.77734375 m 1
 555.555664062 77.77734375 l 1
 555.555664062 133.333007812 l 1
 444.444335938 133.333007812 l 1
 444.444335938 77.77734375 l 1025
111.111328125 22.22265625 m 1
 222.22265625 22.22265625 l 1
 222.22265625 77.77734375 l 1
 111.111328125 77.77734375 l 1
 111.111328125 22.22265625 l 1025
444.444335938 22.22265625 m 1
 555.555664062 22.22265625 l 1
 555.555664062 77.77734375 l 1
 444.444335938 77.77734375 l 1
 444.444335938 22.22265625 l 1025
55.5556640625 -33.3330078125 m 1
 500 -33.3330078125 l 1
 500 22.22265625 l 1
 55.5556640625 22.22265625 l 1
 55.5556640625 -33.3330078125 l 1
EndSplineSet
EndChar

StartChar: C
Encoding: 67 67 35
Width: 550
VWidth: 0
Flags: HW
LayerCount: 2
Back
Fore
SplineSet
166.666992188 522.22265625 m 1
 444.444335938 522.22265625 l 1
 444.444335938 577.77734375 l 1
 166.666992188 577.77734375 l 1
 166.666992188 522.22265625 l 1025
500 522.22265625 m 1
 555.555664062 522.22265625 l 1
 555.555664062 577.77734375 l 1
 500 577.77734375 l 1
 500 522.22265625 l 1025
111.111328125 466.666992188 m 1
 222.22265625 466.666992188 l 1
 222.22265625 522.22265625 l 1
 111.111328125 522.22265625 l 1
 111.111328125 466.666992188 l 1025
388.888671875 466.666992188 m 1
 555.555664062 466.666992188 l 1
 555.555664062 522.22265625 l 1
 388.888671875 522.22265625 l 1
 388.888671875 466.666992188 l 1025
55.5556640625 411.111328125 m 1
 166.666992188 411.111328125 l 1
 166.666992188 466.666992188 l 1
 55.5556640625 466.666992188 l 1
 55.5556640625 411.111328125 l 1025
444.444335938 411.111328125 m 1
 555.555664062 411.111328125 l 1
 555.555664062 466.666992188 l 1
 444.444335938 466.666992188 l 1
 444.444335938 411.111328125 l 1025
55.5556640625 355.555664062 m 1
 166.666992188 355.555664062 l 1
 166.666992188 411.111328125 l 1
 55.5556640625 411.111328125 l 1
 55.5556640625 355.555664062 l 1025
444.444335938 355.555664062 m 1
 555.555664062 355.555664062 l 1
 555.555664062 411.111328125 l 1
 444.444335938 411.111328125 l 1
 444.444335938 355.555664062 l 1025
55.5556640625 300 m 1
 166.666992188 300 l 1
 166.666992188 355.555664062 l 1
 55.5556640625 355.555664062 l 1
 55.5556640625 300 l 1025
55.5556640625 244.444335938 m 1
 166.666992188 244.444335938 l 1
 166.666992188 300 l 1
 55.5556640625 300 l 1
 55.5556640625 244.444335938 l 1025
55.5556640625 188.888671875 m 1
 166.666992188 188.888671875 l 1
 166.666992188 244.444335938 l 1
 55.5556640625 244.444335938 l 1
 55.5556640625 188.888671875 l 1025
55.5556640625 133.333007812 m 1
 166.666992188 133.333007812 l 1
 166.666992188 188.888671875 l 1
 55.5556640625 188.888671875 l 1
 55.5556640625 133.333007812 l 1025
55.5556640625 77.77734375 m 1
 166.666992188 77.77734375 l 1
 166.666992188 133.333007812 l 1
 55.5556640625 133.333007812 l 1
 55.5556640625 77.77734375 l 1025
500 77.77734375 m 1
 555.555664062 77.77734375 l 1
 555.555664062 133.333007812 l 1
 500 133.333007812 l 1
 500 77.77734375 l 1025
111.111328125 22.22265625 m 1
 222.22265625 22.22265625 l 1
 222.22265625 77.77734375 l 1
 111.111328125 77.77734375 l 1
 111.111328125 22.22265625 l 1025
444.444335938 22.22265625 m 1
 555.555664062 22.22265625 l 1
 555.555664062 77.77734375 l 1
 444.444335938 77.77734375 l 1
 444.444335938 22.22265625 l 1025
166.666992188 -33.3330078125 m 1
 500 -33.3330078125 l 1
 500 22.22265625 l 1
 166.666992188 22.22265625 l 1
 166.666992188 -33.3330078125 l 1
EndSplineSet
EndChar

StartChar: D
Encoding: 68 68 36
Width: 550
VWidth: 0
Flags: HW
LayerCount: 2
Back
Fore
SplineSet
55.5556640625 522.22265625 m 1
 444.444335938 522.22265625 l 1
 444.444335938 577.77734375 l 1
 55.5556640625 577.77734375 l 1
 55.5556640625 522.22265625 l 1025
111.111328125 466.666992188 m 1
 222.22265625 466.666992188 l 1
 222.22265625 522.22265625 l 1
 111.111328125 522.22265625 l 1
 111.111328125 466.666992188 l 1025
388.888671875 466.666992188 m 1
 500 466.666992188 l 1
 500 522.22265625 l 1
 388.888671875 522.22265625 l 1
 388.888671875 466.666992188 l 1025
111.111328125 411.111328125 m 1
 222.22265625 411.111328125 l 1
 222.22265625 466.666992188 l 1
 111.111328125 466.666992188 l 1
 111.111328125 411.111328125 l 1025
444.444335938 411.111328125 m 1
 555.555664062 411.111328125 l 1
 555.555664062 466.666992188 l 1
 444.444335938 466.666992188 l 1
 444.444335938 411.111328125 l 1025
111.111328125 355.555664062 m 1
 222.22265625 355.555664062 l 1
 222.22265625 411.111328125 l 1
 111.111328125 411.111328125 l 1
 111.111328125 355.555664062 l 1025
444.444335938 355.555664062 m 1
 555.555664062 355.555664062 l 1
 555.555664062 411.111328125 l 1
 444.444335938 411.111328125 l 1
 444.444335938 355.555664062 l 1025
111.111328125 300 m 1
 222.22265625 300 l 1
 222.22265625 355.555664062 l 1
 111.111328125 355.555664062 l 1
 111.111328125 300 l 1025
444.444335938 300 m 1
 555.555664062 300 l 1
 555.555664062 355.555664062 l 1
 444.444335938 355.555664062 l 1
 444.444335938 300 l 1025
111.111328125 244.444335938 m 1
 222.22265625 244.444335938 l 1
 222.22265625 300 l 1
 111.111328125 300 l 1
 111.111328125 244.444335938 l 1025
444.444335938 244.444335938 m 1
 555.555664062 244.444335938 l 1
 555.555664062 300 l 1
 444.444335938 300 l 1
 444.444335938 244.444335938 l 1025
111.111328125 188.888671875 m 1
 222.22265625 188.888671875 l 1
 222.22265625 244.444335938 l 1
 111.111328125 244.444335938 l 1
 111.111328125 188.888671875 l 1025
444.444335938 188.888671875 m 1
 555.555664062 188.888671875 l 1
 555.555664062 244.444335938 l 1
 444.444335938 244.444335938 l 1
 444.444335938 188.888671875 l 1025
111.111328125 133.333007812 m 1
 222.22265625 133.333007812 l 1
 222.22265625 188.888671875 l 1
 111.111328125 188.888671875 l 1
 111.111328125 133.333007812 l 1025
444.444335938 133.333007812 m 1
 555.555664062 133.333007812 l 1
 555.555664062 188.888671875 l 1
 444.444335938 188.888671875 l 1
 444.444335938 133.333007812 l 1025
111.111328125 77.77734375 m 1
 222.22265625 77.77734375 l 1
 222.22265625 133.333007812 l 1
 111.111328125 133.333007812 l 1
 111.111328125 77.77734375 l 1025
444.444335938 77.77734375 m 1
 555.555664062 77.77734375 l 1
 555.555664062 133.333007812 l 1
 444.444335938 133.333007812 l 1
 444.444335938 77.77734375 l 1025
111.111328125 22.22265625 m 1
 222.22265625 22.22265625 l 1
 222.22265625 77.77734375 l 1
 111.111328125 77.77734375 l 1
 111.111328125 22.22265625 l 1025
388.888671875 22.22265625 m 1
 500 22.22265625 l 1
 500 77.77734375 l 1
 388.888671875 77.77734375 l 1
 388.888671875 22.22265625 l 1025
55.5556640625 -33.3330078125 m 1
 444.444335938 -33.3330078125 l 1
 444.444335938 22.22265625 l 1
 55.5556640625 22.22265625 l 1
 55.5556640625 -33.3330078125 l 1
EndSplineSet
EndChar

StartChar: E
Encoding: 69 69 37
Width: 550
VWidth: 0
Flags: HW
LayerCount: 2
Back
Fore
SplineSet
55.5556640625 522.22265625 m 1
 555.555664062 522.22265625 l 1
 555.555664062 577.77734375 l 1
 55.5556640625 577.77734375 l 1
 55.5556640625 522.22265625 l 1025
166.666992188 466.666992188 m 1
 277.77734375 466.666992188 l 1
 277.77734375 522.22265625 l 1
 166.666992188 522.22265625 l 1
 166.666992188 466.666992188 l 1025
500 466.666992188 m 1
 555.555664062 466.666992188 l 1
 555.555664062 522.22265625 l 1
 500 522.22265625 l 1
 500 466.666992188 l 1025
166.666992188 411.111328125 m 1
 277.77734375 411.111328125 l 1
 277.77734375 466.666992188 l 1
 166.666992188 466.666992188 l 1
 166.666992188 411.111328125 l 1025
500 411.111328125 m 1
 555.555664062 411.111328125 l 1
 555.555664062 466.666992188 l 1
 500 466.666992188 l 1
 500 411.111328125 l 1025
166.666992188 355.555664062 m 1
 277.77734375 355.555664062 l 1
 277.77734375 411.111328125 l 1
 166.666992188 411.111328125 l 1
 166.666992188 355.555664062 l 1025
388.888671875 355.555664062 m 1
 444.444335938 355.555664062 l 1
 444.444335938 411.111328125 l 1
 388.888671875 411.111328125 l 1
 388.888671875 355.555664062 l 1025
166.666992188 300 m 1
 277.77734375 300 l 1
 277.77734375 355.555664062 l 1
 166.666992188 355.555664062 l 1
 166.666992188 300 l 1025
388.888671875 300 m 1
 444.444335938 300 l 1
 444.444335938 355.555664062 l 1
 388.888671875 355.555664062 l 1
 388.888671875 300 l 1025
166.666992188 244.444335938 m 1
 444.444335938 244.444335938 l 1
 444.444335938 300 l 1
 166.666992188 300 l 1
 166.666992188 244.444335938 l 1025
166.666992188 188.888671875 m 1
 277.77734375 188.888671875 l 1
 277.77734375 244.444335938 l 1
 166.666992188 244.444335938 l 1
 166.666992188 188.888671875 l 1025
388.888671875 188.888671875 m 1
 444.444335938 188.888671875 l 1
 444.444335938 244.444335938 l 1
 388.888671875 244.444335938 l 1
 388.888671875 188.888671875 l 1025
166.666992188 133.333007812 m 1
 277.77734375 133.333007812 l 1
 277.77734375 188.888671875 l 1
 166.666992188 188.888671875 l 1
 166.666992188 133.333007812 l 1025
500 133.333007812 m 1
 555.555664062 133.333007812 l 1
 555.555664062 188.888671875 l 1
 500 188.888671875 l 1
 500 133.333007812 l 1025
166.666992188 77.77734375 m 1
 277.77734375 77.77734375 l 1
 277.77734375 133.333007812 l 1
 166.666992188 133.333007812 l 1
 166.666992188 77.77734375 l 1025
500 77.77734375 m 1
 555.555664062 77.77734375 l 1
 555.555664062 133.333007812 l 1
 500 133.333007812 l 1
 500 77.77734375 l 1025
166.666992188 22.22265625 m 1
 277.77734375 22.22265625 l 1
 277.77734375 77.77734375 l 1
 166.666992188 77.77734375 l 1
 166.666992188 22.22265625 l 1025
500 22.22265625 m 1
 555.555664062 22.22265625 l 1
 555.555664062 77.77734375 l 1
 500 77.77734375 l 1
 500 22.22265625 l 1025
55.5556640625 -33.3330078125 m 1
 555.555664062 -33.3330078125 l 1
 555.555664062 22.22265625 l 1
 55.5556640625 22.22265625 l 1
 55.5556640625 -33.3330078125 l 1
EndSplineSet
EndChar

StartChar: F
Encoding: 70 70 38
Width: 550
VWidth: 0
Flags: HW
LayerCount: 2
Back
Fore
SplineSet
55.5556640625 522.22265625 m 1
 555.555664062 522.22265625 l 1
 555.555664062 577.77734375 l 1
 55.5556640625 577.77734375 l 1
 55.5556640625 522.22265625 l 1025
166.666992188 466.666992188 m 1
 277.77734375 466.666992188 l 1
 277.77734375 522.22265625 l 1
 166.666992188 522.22265625 l 1
 166.666992188 466.666992188 l 1025
500 466.666992188 m 1
 555.555664062 466.666992188 l 1
 555.555664062 522.22265625 l 1
 500 522.22265625 l 1
 500 466.666992188 l 1025
166.666992188 411.111328125 m 1
 277.77734375 411.111328125 l 1
 277.77734375 466.666992188 l 1
 166.666992188 466.666992188 l 1
 166.666992188 411.111328125 l 1025
500 411.111328125 m 1
 555.555664062 411.111328125 l 1
 555.555664062 466.666992188 l 1
 500 466.666992188 l 1
 500 411.111328125 l 1025
166.666992188 355.555664062 m 1
 277.77734375 355.555664062 l 1
 277.77734375 411.111328125 l 1
 166.666992188 411.111328125 l 1
 166.666992188 355.555664062 l 1025
388.888671875 355.555664062 m 1
 444.444335938 355.555664062 l 1
 444.444335938 411.111328125 l 1
 388.888671875 411.111328125 l 1
 388.888671875 355.555664062 l 1025
166.666992188 300 m 1
 277.77734375 300 l 1
 277.77734375 355.555664062 l 1
 166.666992188 355.555664062 l 1
 166.666992188 300 l 1025
388.888671875 300 m 1
 444.444335938 300 l 1
 444.444335938 355.555664062 l 1
 388.888671875 355.555664062 l 1
 388.888671875 300 l 1025
166.666992188 244.444335938 m 1
 444.444335938 244.444335938 l 1
 444.444335938 300 l 1
 166.666992188 300 l 1
 166.666992188 244.444335938 l 1025
166.666992188 188.888671875 m 1
 277.77734375 188.888671875 l 1
 277.77734375 244.444335938 l 1
 166.666992188 244.444335938 l 1
 166.666992188 188.888671875 l 1025
388.888671875 188.888671875 m 1
 444.444335938 188.888671875 l 1
 444.444335938 244.444335938 l 1
 388.888671875 244.444335938 l 1
 388.888671875 188.888671875 l 1025
166.666992188 133.333007812 m 1
 277.77734375 133.333007812 l 1
 277.77734375 188.888671875 l 1
 166.666992188 188.888671875 l 1
 166.666992188 133.333007812 l 1025
388.888671875 133.333007812 m 1
 444.444335938 133.333007812 l 1
 444.444335938 188.888671875 l 1
 388.888671875 188.888671875 l 1
 388.888671875 133.333007812 l 1025
166.666992188 77.77734375 m 1
 277.77734375 77.77734375 l 1
 277.77734375 133.333007812 l 1
 166.666992188 133.333007812 l 1
 166.666992188 77.77734375 l 1025
166.666992188 22.22265625 m 1
 277.77734375 22.22265625 l 1
 277.77734375 77.77734375 l 1
 166.666992188 77.77734375 l 1
 166.666992188 22.22265625 l 1025
55.5556640625 -33.3330078125 m 1
 388.888671875 -33.3330078125 l 1
 388.888671875 22.22265625 l 1
 55.5556640625 22.22265625 l 1
 55.5556640625 -33.3330078125 l 1
EndSplineSet
EndChar

StartChar: G
Encoding: 71 71 39
Width: 550
VWidth: 0
Flags: HW
LayerCount: 2
Back
Fore
SplineSet
166.666992188 522.22265625 m 1
 444.444335938 522.22265625 l 1
 444.444335938 577.77734375 l 1
 166.666992188 577.77734375 l 1
 166.666992188 522.22265625 l 1025
500 522.22265625 m 1
 555.555664062 522.22265625 l 1
 555.555664062 577.77734375 l 1
 500 577.77734375 l 1
 500 522.22265625 l 1025
111.111328125 466.666992188 m 1
 222.22265625 466.666992188 l 1
 222.22265625 522.22265625 l 1
 111.111328125 522.22265625 l 1
 111.111328125 466.666992188 l 1025
388.888671875 466.666992188 m 1
 555.555664062 466.666992188 l 1
 555.555664062 522.22265625 l 1
 388.888671875 522.22265625 l 1
 388.888671875 466.666992188 l 1025
55.5556640625 411.111328125 m 1
 166.666992188 411.111328125 l 1
 166.666992188 466.666992188 l 1
 55.5556640625 466.666992188 l 1
 55.5556640625 411.111328125 l 1025
444.444335938 411.111328125 m 1
 555.555664062 411.111328125 l 1
 555.555664062 466.666992188 l 1
 444.444335938 466.666992188 l 1
 444.444335938 411.111328125 l 1025
55.5556640625 355.555664062 m 1
 166.666992188 355.555664062 l 1
 166.666992188 411.111328125 l 1
 55.5556640625 411.111328125 l 1
 55.5556640625 355.555664062 l 1025
444.444335938 355.555664062 m 1
 555.555664062 355.555664062 l 1
 555.555664062 411.111328125 l 1
 444.444335938 411.111328125 l 1
 444.444335938 355.555664062 l 1025
55.5556640625 300 m 1
 166.666992188 300 l 1
 166.666992188 355.555664062 l 1
 55.5556640625 355.555664062 l 1
 55.5556640625 300 l 1025
55.5556640625 244.444335938 m 1
 166.666992188 244.444335938 l 1
 166.666992188 300 l 1
 55.5556640625 300 l 1
 55.5556640625 244.444335938 l 1025
55.5556640625 188.888671875 m 1
 166.666992188 188.888671875 l 1
 166.666992188 244.444335938 l 1
 55.5556640625 244.444335938 l 1
 55.5556640625 188.888671875 l 1025
333.333007812 188.888671875 m 1
 611.111328125 188.888671875 l 1
 611.111328125 244.444335938 l 1
 333.333007812 244.444335938 l 1
 333.333007812 188.888671875 l 1025
55.5556640625 133.333007812 m 1
 166.666992188 133.333007812 l 1
 166.666992188 188.888671875 l 1
 55.5556640625 188.888671875 l 1
 55.5556640625 133.333007812 l 1025
444.444335938 133.333007812 m 1
 555.555664062 133.333007812 l 1
 555.555664062 188.888671875 l 1
 444.444335938 188.888671875 l 1
 444.444335938 133.333007812 l 1025
55.5556640625 77.77734375 m 1
 166.666992188 77.77734375 l 1
 166.666992188 133.333007812 l 1
 55.5556640625 133.333007812 l 1
 55.5556640625 77.77734375 l 1025
444.444335938 77.77734375 m 1
 555.555664062 77.77734375 l 1
 555.555664062 133.333007812 l 1
 444.444335938 133.333007812 l 1
 444.444335938 77.77734375 l 1025
111.111328125 22.22265625 m 1
 222.22265625 22.22265625 l 1
 222.22265625 77.77734375 l 1
 111.111328125 77.77734375 l 1
 111.111328125 22.22265625 l 1025
444.444335938 22.22265625 m 1
 555.555664062 22.22265625 l 1
 555.555664062 77.77734375 l 1
 444.444335938 77.77734375 l 1
 444.444335938 22.22265625 l 1025
166.666992188 -33.3330078125 m 1
 500 -33.3330078125 l 1
 500 22.22265625 l 1
 166.666992188 22.22265625 l 1
 166.666992188 -33.3330078125 l 1
EndSplineSet
EndChar

StartChar: H
Encoding: 72 72 40
Width: 550
VWidth: 0
Flags: HW
LayerCount: 2
Back
Fore
SplineSet
55.5556640625 522.22265625 m 1
 277.77734375 522.22265625 l 1
 277.77734375 577.77734375 l 1
 55.5556640625 577.77734375 l 1
 55.5556640625 522.22265625 l 1025
333.333007812 522.22265625 m 1
 555.555664062 522.22265625 l 1
 555.555664062 577.77734375 l 1
 333.333007812 577.77734375 l 1
 333.333007812 522.22265625 l 1025
111.111328125 466.666992188 m 1
 222.22265625 466.666992188 l 1
 222.22265625 522.22265625 l 1
 111.111328125 522.22265625 l 1
 111.111328125 466.666992188 l 1025
388.888671875 466.666992188 m 1
 500 466.666992188 l 1
 500 522.22265625 l 1
 388.888671875 522.22265625 l 1
 388.888671875 466.666992188 l 1025
111.111328125 411.111328125 m 1
 222.22265625 411.111328125 l 1
 222.22265625 466.666992188 l 1
 111.111328125 466.666992188 l 1
 111.111328125 411.111328125 l 1025
388.888671875 411.111328125 m 1
 500 411.111328125 l 1
 500 466.666992188 l 1
 388.888671875 466.666992188 l 1
 388.888671875 411.111328125 l 1025
111.111328125 355.555664062 m 1
 222.22265625 355.555664062 l 1
 222.22265625 411.111328125 l 1
 111.111328125 411.111328125 l 1
 111.111328125 355.555664062 l 1025
388.888671875 355.555664062 m 1
 500 355.555664062 l 1
 500 411.111328125 l 1
 388.888671875 411.111328125 l 1
 388.888671875 355.555664062 l 1025
111.111328125 300 m 1
 222.22265625 300 l 1
 222.22265625 355.555664062 l 1
 111.111328125 355.555664062 l 1
 111.111328125 300 l 1025
388.888671875 300 m 1
 500 300 l 1
 500 355.555664062 l 1
 388.888671875 355.555664062 l 1
 388.888671875 300 l 1025
111.111328125 244.444335938 m 1
 500 244.444335938 l 1
 500 300 l 1
 111.111328125 300 l 1
 111.111328125 244.444335938 l 1025
111.111328125 188.888671875 m 1
 222.22265625 188.888671875 l 1
 222.22265625 244.444335938 l 1
 111.111328125 244.444335938 l 1
 111.111328125 188.888671875 l 1025
388.888671875 188.888671875 m 1
 500 188.888671875 l 1
 500 244.444335938 l 1
 388.888671875 244.444335938 l 1
 388.888671875 188.888671875 l 1025
111.111328125 133.333007812 m 1
 222.22265625 133.333007812 l 1
 222.22265625 188.888671875 l 1
 111.111328125 188.888671875 l 1
 111.111328125 133.333007812 l 1025
388.888671875 133.333007812 m 1
 500 133.333007812 l 1
 500 188.888671875 l 1
 388.888671875 188.888671875 l 1
 388.888671875 133.333007812 l 1025
111.111328125 77.77734375 m 1
 222.22265625 77.77734375 l 1
 222.22265625 133.333007812 l 1
 111.111328125 133.333007812 l 1
 111.111328125 77.77734375 l 1025
388.888671875 77.77734375 m 1
 500 77.77734375 l 1
 500 133.333007812 l 1
 388.888671875 133.333007812 l 1
 388.888671875 77.77734375 l 1025
111.111328125 22.22265625 m 1
 222.22265625 22.22265625 l 1
 222.22265625 77.77734375 l 1
 111.111328125 77.77734375 l 1
 111.111328125 22.22265625 l 1025
388.888671875 22.22265625 m 1
 500 22.22265625 l 1
 500 77.77734375 l 1
 388.888671875 77.77734375 l 1
 388.888671875 22.22265625 l 1025
55.5556640625 -33.3330078125 m 1
 277.77734375 -33.3330078125 l 1
 277.77734375 22.22265625 l 1
 55.5556640625 22.22265625 l 1
 55.5556640625 -33.3330078125 l 1025
333.333007812 -33.3330078125 m 1
 555.555664062 -33.3330078125 l 1
 555.555664062 22.22265625 l 1
 333.333007812 22.22265625 l 1
 333.333007812 -33.3330078125 l 1
EndSplineSet
EndChar

StartChar: I
Encoding: 73 73 41
Width: 550
VWidth: 0
Flags: HW
LayerCount: 2
Back
Fore
SplineSet
111.111328125 522.22265625 m 1
 555.555664062 522.22265625 l 1
 555.555664062 577.77734375 l 1
 111.111328125 577.77734375 l 1
 111.111328125 522.22265625 l 1025
277.77734375 466.666992188 m 1
 388.888671875 466.666992188 l 1
 388.888671875 522.22265625 l 1
 277.77734375 522.22265625 l 1
 277.77734375 466.666992188 l 1025
277.77734375 411.111328125 m 1
 388.888671875 411.111328125 l 1
 388.888671875 466.666992188 l 1
 277.77734375 466.666992188 l 1
 277.77734375 411.111328125 l 1025
277.77734375 355.555664062 m 1
 388.888671875 355.555664062 l 1
 388.888671875 411.111328125 l 1
 277.77734375 411.111328125 l 1
 277.77734375 355.555664062 l 1025
277.77734375 300 m 1
 388.888671875 300 l 1
 388.888671875 355.555664062 l 1
 277.77734375 355.555664062 l 1
 277.77734375 300 l 1025
277.77734375 244.444335938 m 1
 388.888671875 244.444335938 l 1
 388.888671875 300 l 1
 277.77734375 300 l 1
 277.77734375 244.444335938 l 1025
277.77734375 188.888671875 m 1
 388.888671875 188.888671875 l 1
 388.888671875 244.444335938 l 1
 277.77734375 244.444335938 l 1
 277.77734375 188.888671875 l 1025
277.77734375 133.333007812 m 1
 388.888671875 133.333007812 l 1
 388.888671875 188.888671875 l 1
 277.77734375 188.888671875 l 1
 277.77734375 133.333007812 l 1025
277.77734375 77.77734375 m 1
 388.888671875 77.77734375 l 1
 388.888671875 133.333007812 l 1
 277.77734375 133.333007812 l 1
 277.77734375 77.77734375 l 1025
277.77734375 22.22265625 m 1
 388.888671875 22.22265625 l 1
 388.888671875 77.77734375 l 1
 277.77734375 77.77734375 l 1
 277.77734375 22.22265625 l 1025
111.111328125 -33.3330078125 m 1
 555.555664062 -33.3330078125 l 1
 555.555664062 22.22265625 l 1
 111.111328125 22.22265625 l 1
 111.111328125 -33.3330078125 l 1
EndSplineSet
EndChar

StartChar: J
Encoding: 74 74 42
Width: 550
VWidth: 0
Flags: HW
LayerCount: 2
Back
Fore
SplineSet
166.666992188 522.22265625 m 1
 555.555664062 522.22265625 l 1
 555.555664062 577.77734375 l 1
 166.666992188 577.77734375 l 1
 166.666992188 522.22265625 l 1025
333.333007812 466.666992188 m 1
 444.444335938 466.666992188 l 1
 444.444335938 522.22265625 l 1
 333.333007812 522.22265625 l 1
 333.333007812 466.666992188 l 1025
333.333007812 411.111328125 m 1
 444.444335938 411.111328125 l 1
 444.444335938 466.666992188 l 1
 333.333007812 466.666992188 l 1
 333.333007812 411.111328125 l 1025
333.333007812 355.555664062 m 1
 444.444335938 355.555664062 l 1
 444.444335938 411.111328125 l 1
 333.333007812 411.111328125 l 1
 333.333007812 355.555664062 l 1025
333.333007812 300 m 1
 444.444335938 300 l 1
 444.444335938 355.555664062 l 1
 333.333007812 355.555664062 l 1
 333.333007812 300 l 1025
333.333007812 244.444335938 m 1
 444.444335938 244.444335938 l 1
 444.444335938 300 l 1
 333.333007812 300 l 1
 333.333007812 244.444335938 l 1025
55.5556640625 188.888671875 m 1
 111.111328125 188.888671875 l 1
 111.111328125 244.444335938 l 1
 55.5556640625 244.444335938 l 1
 55.5556640625 188.888671875 l 1025
333.333007812 188.888671875 m 1
 444.444335938 188.888671875 l 1
 444.444335938 244.444335938 l 1
 333.333007812 244.444335938 l 1
 333.333007812 188.888671875 l 1025
55.5556640625 133.333007812 m 1
 111.111328125 133.333007812 l 1
 111.111328125 188.888671875 l 1
 55.5556640625 188.888671875 l 1
 55.5556640625 133.333007812 l 1025
333.333007812 133.333007812 m 1
 444.444335938 133.333007812 l 1
 444.444335938 188.888671875 l 1
 333.333007812 188.888671875 l 1
 333.333007812 133.333007812 l 1025
55.5556640625 77.77734375 m 1
 111.111328125 77.77734375 l 1
 111.111328125 133.333007812 l 1
 55.5556640625 133.333007812 l 1
 55.5556640625 77.77734375 l 1025
333.333007812 77.77734375 m 1
 444.444335938 77.77734375 l 1
 444.444335938 133.333007812 l 1
 333.333007812 133.333007812 l 1
 333.333007812 77.77734375 l 1025
55.5556640625 22.22265625 m 1
 166.666992188 22.22265625 l 1
 166.666992188 77.77734375 l 1
 55.5556640625 77.77734375 l 1
 55.5556640625 22.22265625 l 1025
333.333007812 22.22265625 m 1
 444.444335938 22.22265625 l 1
 444.444335938 77.77734375 l 1
 333.333007812 77.77734375 l 1
 333.333007812 22.22265625 l 1025
111.111328125 -33.3330078125 m 1
 388.888671875 -33.3330078125 l 1
 388.888671875 22.22265625 l 1
 111.111328125 22.22265625 l 1
 111.111328125 -33.3330078125 l 1
EndSplineSet
EndChar

StartChar: K
Encoding: 75 75 43
Width: 550
VWidth: 0
Flags: HW
LayerCount: 2
Back
Fore
SplineSet
55.5556640625 522.22265625 m 1
 277.77734375 522.22265625 l 1
 277.77734375 577.77734375 l 1
 55.5556640625 577.77734375 l 1
 55.5556640625 522.22265625 l 1025
333.333007812 522.22265625 m 1
 555.555664062 522.22265625 l 1
 555.555664062 577.77734375 l 1
 333.333007812 577.77734375 l 1
 333.333007812 522.22265625 l 1025
111.111328125 466.666992188 m 1
 222.22265625 466.666992188 l 1
 222.22265625 522.22265625 l 1
 111.111328125 522.22265625 l 1
 111.111328125 466.666992188 l 1025
388.888671875 466.666992188 m 1
 500 466.666992188 l 1
 500 522.22265625 l 1
 388.888671875 522.22265625 l 1
 388.888671875 466.666992188 l 1025
111.111328125 411.111328125 m 1
 222.22265625 411.111328125 l 1
 222.22265625 466.666992188 l 1
 111.111328125 466.666992188 l 1
 111.111328125 411.111328125 l 1025
333.333007812 411.111328125 m 1
 444.444335938 411.111328125 l 1
 444.444335938 466.666992188 l 1
 333.333007812 466.666992188 l 1
 333.333007812 411.111328125 l 1025
111.111328125 355.555664062 m 1
 222.22265625 355.555664062 l 1
 222.22265625 411.111328125 l 1
 111.111328125 411.111328125 l 1
 111.111328125 355.555664062 l 1025
277.77734375 355.555664062 m 1
 388.888671875 355.555664062 l 1
 388.888671875 411.111328125 l 1
 277.77734375 411.111328125 l 1
 277.77734375 355.555664062 l 1025
111.111328125 300 m 1
 333.333007812 300 l 1
 333.333007812 355.555664062 l 1
 111.111328125 355.555664062 l 1
 111.111328125 300 l 1025
111.111328125 244.444335938 m 1
 388.888671875 244.444335938 l 1
 388.888671875 300 l 1
 111.111328125 300 l 1
 111.111328125 244.444335938 l 1025
111.111328125 188.888671875 m 1
 222.22265625 188.888671875 l 1
 222.22265625 244.444335938 l 1
 111.111328125 244.444335938 l 1
 111.111328125 188.888671875 l 1025
333.333007812 188.888671875 m 1
 444.444335938 188.888671875 l 1
 444.444335938 244.444335938 l 1
 333.333007812 244.444335938 l 1
 333.333007812 188.888671875 l 1025
111.111328125 133.333007812 m 1
 222.22265625 133.333007812 l 1
 222.22265625 188.888671875 l 1
 111.111328125 188.888671875 l 1
 111.111328125 133.333007812 l 1025
333.333007812 133.333007812 m 1
 444.444335938 133.333007812 l 1
 444.444335938 188.888671875 l 1
 333.333007812 188.888671875 l 1
 333.333007812 133.333007812 l 1025
111.111328125 77.77734375 m 1
 222.22265625 77.77734375 l 1
 222.22265625 133.333007812 l 1
 111.111328125 133.333007812 l 1
 111.111328125 77.77734375 l 1025
388.888671875 77.77734375 m 1
 500 77.77734375 l 1
 500 133.333007812 l 1
 388.888671875 133.333007812 l 1
 388.888671875 77.77734375 l 1025
111.111328125 22.22265625 m 1
 222.22265625 22.22265625 l 1
 222.22265625 77.77734375 l 1
 111.111328125 77.77734375 l 1
 111.111328125 22.22265625 l 1025
388.888671875 22.22265625 m 1
 500 22.22265625 l 1
 500 77.77734375 l 1
 388.888671875 77.77734375 l 1
 388.888671875 22.22265625 l 1025
55.5556640625 -33.3330078125 m 1
 277.77734375 -33.3330078125 l 1
 277.77734375 22.22265625 l 1
 55.5556640625 22.22265625 l 1
 55.5556640625 -33.3330078125 l 1025
388.888671875 -33.3330078125 m 1
 555.555664062 -33.3330078125 l 1
 555.555664062 22.22265625 l 1
 388.888671875 22.22265625 l 1
 388.888671875 -33.3330078125 l 1
EndSplineSet
EndChar

StartChar: L
Encoding: 76 76 44
Width: 550
VWidth: 0
Flags: HW
LayerCount: 2
Back
Fore
SplineSet
55.5556640625 522.22265625 m 1
 388.888671875 522.22265625 l 1
 388.888671875 577.77734375 l 1
 55.5556640625 577.77734375 l 1
 55.5556640625 522.22265625 l 1025
166.666992188 466.666992188 m 1
 277.77734375 466.666992188 l 1
 277.77734375 522.22265625 l 1
 166.666992188 522.22265625 l 1
 166.666992188 466.666992188 l 1025
166.666992188 411.111328125 m 1
 277.77734375 411.111328125 l 1
 277.77734375 466.666992188 l 1
 166.666992188 466.666992188 l 1
 166.666992188 411.111328125 l 1025
166.666992188 355.555664062 m 1
 277.77734375 355.555664062 l 1
 277.77734375 411.111328125 l 1
 166.666992188 411.111328125 l 1
 166.666992188 355.555664062 l 1025
166.666992188 300 m 1
 277.77734375 300 l 1
 277.77734375 355.555664062 l 1
 166.666992188 355.555664062 l 1
 166.666992188 300 l 1025
166.666992188 244.444335938 m 1
 277.77734375 244.444335938 l 1
 277.77734375 300 l 1
 166.666992188 300 l 1
 166.666992188 244.444335938 l 1025
166.666992188 188.888671875 m 1
 277.77734375 188.888671875 l 1
 277.77734375 244.444335938 l 1
 166.666992188 244.444335938 l 1
 166.666992188 188.888671875 l 1025
166.666992188 133.333007812 m 1
 277.77734375 133.333007812 l 1
 277.77734375 188.888671875 l 1
 166.666992188 188.888671875 l 1
 166.666992188 133.333007812 l 1025
500 133.333007812 m 1
 555.555664062 133.333007812 l 1
 555.555664062 188.888671875 l 1
 500 188.888671875 l 1
 500 133.333007812 l 1025
166.666992188 77.77734375 m 1
 277.77734375 77.77734375 l 1
 277.77734375 133.333007812 l 1
 166.666992188 133.333007812 l 1
 166.666992188 77.77734375 l 1025
500 77.77734375 m 1
 555.555664062 77.77734375 l 1
 555.555664062 133.333007812 l 1
 500 133.333007812 l 1
 500 77.77734375 l 1025
166.666992188 22.22265625 m 1
 277.77734375 22.22265625 l 1
 277.77734375 77.77734375 l 1
 166.666992188 77.77734375 l 1
 166.666992188 22.22265625 l 1025
500 22.22265625 m 1
 555.555664062 22.22265625 l 1
 555.555664062 77.77734375 l 1
 500 77.77734375 l 1
 500 22.22265625 l 1025
55.5556640625 -33.3330078125 m 1
 555.555664062 -33.3330078125 l 1
 555.555664062 22.22265625 l 1
 55.5556640625 22.22265625 l 1
 55.5556640625 -33.3330078125 l 1
EndSplineSet
EndChar

StartChar: M
Encoding: 77 77 45
Width: 550
VWidth: 0
Flags: HW
LayerCount: 2
Back
Fore
SplineSet
0 522.22265625 m 1
 222.22265625 522.22265625 l 1
 222.22265625 577.77734375 l 1
 0 577.77734375 l 1
 0 522.22265625 l 1025
388.888671875 522.22265625 m 1
 611.111328125 522.22265625 l 1
 611.111328125 577.77734375 l 1
 388.888671875 577.77734375 l 1
 388.888671875 522.22265625 l 1025
55.5556640625 466.666992188 m 1
 222.22265625 466.666992188 l 1
 222.22265625 522.22265625 l 1
 55.5556640625 522.22265625 l 1
 55.5556640625 466.666992188 l 1025
388.888671875 466.666992188 m 1
 555.555664062 466.666992188 l 1
 555.555664062 522.22265625 l 1
 388.888671875 522.22265625 l 1
 388.888671875 466.666992188 l 1025
55.5556640625 411.111328125 m 1
 166.666992188 411.111328125 l 1
 166.666992188 466.666992188 l 1
 55.5556640625 466.666992188 l 1
 55.5556640625 411.111328125 l 1025
222.22265625 411.111328125 m 1
 277.77734375 411.111328125 l 1
 277.77734375 466.666992188 l 1
 222.22265625 466.666992188 l 1
 222.22265625 411.111328125 l 1025
333.333007812 411.111328125 m 1
 388.888671875 411.111328125 l 1
 388.888671875 466.666992188 l 1
 333.333007812 466.666992188 l 1
 333.333007812 411.111328125 l 1025
444.444335938 411.111328125 m 1
 555.555664062 411.111328125 l 1
 555.555664062 466.666992188 l 1
 444.444335938 466.666992188 l 1
 444.444335938 411.111328125 l 1025
55.5556640625 355.555664062 m 1
 166.666992188 355.555664062 l 1
 166.666992188 411.111328125 l 1
 55.5556640625 411.111328125 l 1
 55.5556640625 355.555664062 l 1025
222.22265625 355.555664062 m 1
 277.77734375 355.555664062 l 1
 277.77734375 411.111328125 l 1
 222.22265625 411.111328125 l 1
 222.22265625 355.555664062 l 1025
333.333007812 355.555664062 m 1
 388.888671875 355.555664062 l 1
 388.888671875 411.111328125 l 1
 333.333007812 411.111328125 l 1
 333.333007812 355.555664062 l 1025
444.444335938 355.555664062 m 1
 555.555664062 355.555664062 l 1
 555.555664062 411.111328125 l 1
 444.444335938 411.111328125 l 1
 444.444335938 355.555664062 l 1025
55.5556640625 300 m 1
 166.666992188 300 l 1
 166.666992188 355.555664062 l 1
 55.5556640625 355.555664062 l 1
 55.5556640625 300 l 1025
222.22265625 300 m 1
 277.77734375 300 l 1
 277.77734375 355.555664062 l 1
 222.22265625 355.555664062 l 1
 222.22265625 300 l 1025
333.333007812 300 m 1
 388.888671875 300 l 1
 388.888671875 355.555664062 l 1
 333.333007812 355.555664062 l 1
 333.333007812 300 l 1025
444.444335938 300 m 1
 555.555664062 300 l 1
 555.555664062 355.555664062 l 1
 444.444335938 355.555664062 l 1
 444.444335938 300 l 1025
55.5556640625 244.444335938 m 1
 166.666992188 244.444335938 l 1
 166.666992188 300 l 1
 55.5556640625 300 l 1
 55.5556640625 244.444335938 l 1025
222.22265625 244.444335938 m 1
 277.77734375 244.444335938 l 1
 277.77734375 300 l 1
 222.22265625 300 l 1
 222.22265625 244.444335938 l 1025
333.333007812 244.444335938 m 1
 388.888671875 244.444335938 l 1
 388.888671875 300 l 1
 333.333007812 300 l 1
 333.333007812 244.444335938 l 1025
444.444335938 244.444335938 m 1
 555.555664062 244.444335938 l 1
 555.555664062 300 l 1
 444.444335938 300 l 1
 444.444335938 244.444335938 l 1025
55.5556640625 188.888671875 m 1
 166.666992188 188.888671875 l 1
 166.666992188 244.444335938 l 1
 55.5556640625 244.444335938 l 1
 55.5556640625 188.888671875 l 1025
277.77734375 188.888671875 m 1
 333.333007812 188.888671875 l 1
 333.333007812 244.444335938 l 1
 277.77734375 244.444335938 l 1
 277.77734375 188.888671875 l 1025
444.444335938 188.888671875 m 1
 555.555664062 188.888671875 l 1
 555.555664062 244.444335938 l 1
 444.444335938 244.444335938 l 1
 444.444335938 188.888671875 l 1025
55.5556640625 133.333007812 m 1
 166.666992188 133.333007812 l 1
 166.666992188 188.888671875 l 1
 55.5556640625 188.888671875 l 1
 55.5556640625 133.333007812 l 1025
277.77734375 133.333007812 m 1
 333.333007812 133.333007812 l 1
 333.333007812 188.888671875 l 1
 277.77734375 188.888671875 l 1
 277.77734375 133.333007812 l 1025
444.444335938 133.333007812 m 1
 555.555664062 133.333007812 l 1
 555.555664062 188.888671875 l 1
 444.444335938 188.888671875 l 1
 444.444335938 133.333007812 l 1025
55.5556640625 77.77734375 m 1
 166.666992188 77.77734375 l 1
 166.666992188 133.333007812 l 1
 55.5556640625 133.333007812 l 1
 55.5556640625 77.77734375 l 1025
444.444335938 77.77734375 m 1
 555.555664062 77.77734375 l 1
 555.555664062 133.333007812 l 1
 444.444335938 133.333007812 l 1
 444.444335938 77.77734375 l 1025
55.5556640625 22.22265625 m 1
 166.666992188 22.22265625 l 1
 166.666992188 77.77734375 l 1
 55.5556640625 77.77734375 l 1
 55.5556640625 22.22265625 l 1025
444.444335938 22.22265625 m 1
 555.555664062 22.22265625 l 1
 555.555664062 77.77734375 l 1
 444.444335938 77.77734375 l 1
 444.444335938 22.22265625 l 1025
0 -33.3330078125 m 1
 222.22265625 -33.3330078125 l 1
 222.22265625 22.22265625 l 1
 0 22.22265625 l 1
 0 -33.3330078125 l 1025
388.888671875 -33.3330078125 m 1
 611.111328125 -33.3330078125 l 1
 611.111328125 22.22265625 l 1
 388.888671875 22.22265625 l 1
 388.888671875 -33.3330078125 l 1
EndSplineSet
EndChar

StartChar: N
Encoding: 78 78 46
Width: 550
VWidth: 0
Flags: HW
LayerCount: 2
Back
Fore
SplineSet
55.5556640625 522.22265625 m 1
 222.22265625 522.22265625 l 1
 222.22265625 577.77734375 l 1
 55.5556640625 577.77734375 l 1
 55.5556640625 522.22265625 l 1025
388.888671875 522.22265625 m 1
 611.111328125 522.22265625 l 1
 611.111328125 577.77734375 l 1
 388.888671875 577.77734375 l 1
 388.888671875 522.22265625 l 1025
111.111328125 466.666992188 m 1
 277.77734375 466.666992188 l 1
 277.77734375 522.22265625 l 1
 111.111328125 522.22265625 l 1
 111.111328125 466.666992188 l 1025
444.444335938 466.666992188 m 1
 555.555664062 466.666992188 l 1
 555.555664062 522.22265625 l 1
 444.444335938 522.22265625 l 1
 444.444335938 466.666992188 l 1025
111.111328125 411.111328125 m 1
 277.77734375 411.111328125 l 1
 277.77734375 466.666992188 l 1
 111.111328125 466.666992188 l 1
 111.111328125 411.111328125 l 1025
444.444335938 411.111328125 m 1
 555.555664062 411.111328125 l 1
 555.555664062 466.666992188 l 1
 444.444335938 466.666992188 l 1
 444.444335938 411.111328125 l 1025
111.111328125 355.555664062 m 1
 222.22265625 355.555664062 l 1
 222.22265625 411.111328125 l 1
 111.111328125 411.111328125 l 1
 111.111328125 355.555664062 l 1025
277.77734375 355.555664062 m 1
 333.333007812 355.555664062 l 1
 333.333007812 411.111328125 l 1
 277.77734375 411.111328125 l 1
 277.77734375 355.555664062 l 1025
444.444335938 355.555664062 m 1
 555.555664062 355.555664062 l 1
 555.555664062 411.111328125 l 1
 444.444335938 411.111328125 l 1
 444.444335938 355.555664062 l 1025
111.111328125 300 m 1
 222.22265625 300 l 1
 222.22265625 355.555664062 l 1
 111.111328125 355.555664062 l 1
 111.111328125 300 l 1025
277.77734375 300 m 1
 333.333007812 300 l 1
 333.333007812 355.555664062 l 1
 277.77734375 355.555664062 l 1
 277.77734375 300 l 1025
444.444335938 300 m 1
 555.555664062 300 l 1
 555.555664062 355.555664062 l 1
 444.444335938 355.555664062 l 1
 444.444335938 300 l 1025
111.111328125 244.444335938 m 1
 222.22265625 244.444335938 l 1
 222.22265625 300 l 1
 111.111328125 300 l 1
 111.111328125 244.444335938 l 1025
333.333007812 244.444335938 m 1
 388.888671875 244.444335938 l 1
 388.888671875 300 l 1
 333.333007812 300 l 1
 333.333007812 244.444335938 l 1025
444.444335938 244.444335938 m 1
 555.555664062 244.444335938 l 1
 555.555664062 300 l 1
 444.444335938 300 l 1
 444.444335938 244.444335938 l 1025
111.111328125 188.888671875 m 1
 222.22265625 188.888671875 l 1
 222.22265625 244.444335938 l 1
 111.111328125 244.444335938 l 1
 111.111328125 188.888671875 l 1025
333.333007812 188.888671875 m 1
 388.888671875 188.888671875 l 1
 388.888671875 244.444335938 l 1
 333.333007812 244.444335938 l 1
 333.333007812 188.888671875 l 1025
444.444335938 188.888671875 m 1
 555.555664062 188.888671875 l 1
 555.555664062 244.444335938 l 1
 444.444335938 244.444335938 l 1
 444.444335938 188.888671875 l 1025
111.111328125 133.333007812 m 1
 222.22265625 133.333007812 l 1
 222.22265625 188.888671875 l 1
 111.111328125 188.888671875 l 1
 111.111328125 133.333007812 l 1025
388.888671875 133.333007812 m 1
 555.555664062 133.333007812 l 1
 555.555664062 188.888671875 l 1
 388.888671875 188.888671875 l 1
 388.888671875 133.333007812 l 1025
111.111328125 77.77734375 m 1
 222.22265625 77.77734375 l 1
 222.22265625 133.333007812 l 1
 111.111328125 133.333007812 l 1
 111.111328125 77.77734375 l 1025
388.888671875 77.77734375 m 1
 555.555664062 77.77734375 l 1
 555.555664062 133.333007812 l 1
 388.888671875 133.333007812 l 1
 388.888671875 77.77734375 l 1025
111.111328125 22.22265625 m 1
 222.22265625 22.22265625 l 1
 222.22265625 77.77734375 l 1
 111.111328125 77.77734375 l 1
 111.111328125 22.22265625 l 1025
444.444335938 22.22265625 m 1
 555.555664062 22.22265625 l 1
 555.555664062 77.77734375 l 1
 444.444335938 77.77734375 l 1
 444.444335938 22.22265625 l 1025
55.5556640625 -33.3330078125 m 1
 333.333007812 -33.3330078125 l 1
 333.333007812 22.22265625 l 1
 55.5556640625 22.22265625 l 1
 55.5556640625 -33.3330078125 l 1025
444.444335938 -33.3330078125 m 1
 555.555664062 -33.3330078125 l 1
 555.555664062 22.22265625 l 1
 444.444335938 22.22265625 l 1
 444.444335938 -33.3330078125 l 1
EndSplineSet
EndChar

StartChar: O
Encoding: 79 79 47
Width: 550
VWidth: 0
Flags: HW
LayerCount: 2
Back
Fore
SplineSet
166.666992188 522.22265625 m 1
 444.444335938 522.22265625 l 1
 444.444335938 577.77734375 l 1
 166.666992188 577.77734375 l 1
 166.666992188 522.22265625 l 1025
111.111328125 466.666992188 m 1
 222.22265625 466.666992188 l 1
 222.22265625 522.22265625 l 1
 111.111328125 522.22265625 l 1
 111.111328125 466.666992188 l 1025
388.888671875 466.666992188 m 1
 500 466.666992188 l 1
 500 522.22265625 l 1
 388.888671875 522.22265625 l 1
 388.888671875 466.666992188 l 1025
55.5556640625 411.111328125 m 1
 166.666992188 411.111328125 l 1
 166.666992188 466.666992188 l 1
 55.5556640625 466.666992188 l 1
 55.5556640625 411.111328125 l 1025
444.444335938 411.111328125 m 1
 555.555664062 411.111328125 l 1
 555.555664062 466.666992188 l 1
 444.444335938 466.666992188 l 1
 444.444335938 411.111328125 l 1025
55.5556640625 355.555664062 m 1
 166.666992188 355.555664062 l 1
 166.666992188 411.111328125 l 1
 55.5556640625 411.111328125 l 1
 55.5556640625 355.555664062 l 1025
444.444335938 355.555664062 m 1
 555.555664062 355.555664062 l 1
 555.555664062 411.111328125 l 1
 444.444335938 411.111328125 l 1
 444.444335938 355.555664062 l 1025
55.5556640625 300 m 1
 166.666992188 300 l 1
 166.666992188 355.555664062 l 1
 55.5556640625 355.555664062 l 1
 55.5556640625 300 l 1025
444.444335938 300 m 1
 555.555664062 300 l 1
 555.555664062 355.555664062 l 1
 444.444335938 355.555664062 l 1
 444.444335938 300 l 1025
55.5556640625 244.444335938 m 1
 166.666992188 244.444335938 l 1
 166.666992188 300 l 1
 55.5556640625 300 l 1
 55.5556640625 244.444335938 l 1025
444.444335938 244.444335938 m 1
 555.555664062 244.444335938 l 1
 555.555664062 300 l 1
 444.444335938 300 l 1
 444.444335938 244.444335938 l 1025
55.5556640625 188.888671875 m 1
 166.666992188 188.888671875 l 1
 166.666992188 244.444335938 l 1
 55.5556640625 244.444335938 l 1
 55.5556640625 188.888671875 l 1025
444.444335938 188.888671875 m 1
 555.555664062 188.888671875 l 1
 555.555664062 244.444335938 l 1
 444.444335938 244.444335938 l 1
 444.444335938 188.888671875 l 1025
55.5556640625 133.333007812 m 1
 166.666992188 133.333007812 l 1
 166.666992188 188.888671875 l 1
 55.5556640625 188.888671875 l 1
 55.5556640625 133.333007812 l 1025
444.444335938 133.333007812 m 1
 555.555664062 133.333007812 l 1
 555.555664062 188.888671875 l 1
 444.444335938 188.888671875 l 1
 444.444335938 133.333007812 l 1025
55.5556640625 77.77734375 m 1
 166.666992188 77.77734375 l 1
 166.666992188 133.333007812 l 1
 55.5556640625 133.333007812 l 1
 55.5556640625 77.77734375 l 1025
444.444335938 77.77734375 m 1
 555.555664062 77.77734375 l 1
 555.555664062 133.333007812 l 1
 444.444335938 133.333007812 l 1
 444.444335938 77.77734375 l 1025
111.111328125 22.22265625 m 1
 222.22265625 22.22265625 l 1
 222.22265625 77.77734375 l 1
 111.111328125 77.77734375 l 1
 111.111328125 22.22265625 l 1025
388.888671875 22.22265625 m 1
 500 22.22265625 l 1
 500 77.77734375 l 1
 388.888671875 77.77734375 l 1
 388.888671875 22.22265625 l 1025
166.666992188 -33.3330078125 m 1
 444.444335938 -33.3330078125 l 1
 444.444335938 22.22265625 l 1
 166.666992188 22.22265625 l 1
 166.666992188 -33.3330078125 l 1
EndSplineSet
EndChar

StartChar: P
Encoding: 80 80 48
Width: 550
VWidth: 0
Flags: HW
LayerCount: 2
Back
Fore
SplineSet
55.5556640625 522.22265625 m 1
 500 522.22265625 l 1
 500 577.77734375 l 1
 55.5556640625 577.77734375 l 1
 55.5556640625 522.22265625 l 1025
166.666992188 466.666992188 m 1
 277.77734375 466.666992188 l 1
 277.77734375 522.22265625 l 1
 166.666992188 522.22265625 l 1
 166.666992188 466.666992188 l 1025
444.444335938 466.666992188 m 1
 555.555664062 466.666992188 l 1
 555.555664062 522.22265625 l 1
 444.444335938 522.22265625 l 1
 444.444335938 466.666992188 l 1025
166.666992188 411.111328125 m 1
 277.77734375 411.111328125 l 1
 277.77734375 466.666992188 l 1
 166.666992188 466.666992188 l 1
 166.666992188 411.111328125 l 1025
444.444335938 411.111328125 m 1
 555.555664062 411.111328125 l 1
 555.555664062 466.666992188 l 1
 444.444335938 466.666992188 l 1
 444.444335938 411.111328125 l 1025
166.666992188 355.555664062 m 1
 277.77734375 355.555664062 l 1
 277.77734375 411.111328125 l 1
 166.666992188 411.111328125 l 1
 166.666992188 355.555664062 l 1025
444.444335938 355.555664062 m 1
 555.555664062 355.555664062 l 1
 555.555664062 411.111328125 l 1
 444.444335938 411.111328125 l 1
 444.444335938 355.555664062 l 1025
166.666992188 300 m 1
 277.77734375 300 l 1
 277.77734375 355.555664062 l 1
 166.666992188 355.555664062 l 1
 166.666992188 300 l 1025
444.444335938 300 m 1
 555.555664062 300 l 1
 555.555664062 355.555664062 l 1
 444.444335938 355.555664062 l 1
 444.444335938 300 l 1025
166.666992188 244.444335938 m 1
 277.77734375 244.444335938 l 1
 277.77734375 300 l 1
 166.666992188 300 l 1
 166.666992188 244.444335938 l 1025
444.444335938 244.444335938 m 1
 555.555664062 244.444335938 l 1
 555.555664062 300 l 1
 444.444335938 300 l 1
 444.444335938 244.444335938 l 1025
166.666992188 188.888671875 m 1
 500 188.888671875 l 1
 500 244.444335938 l 1
 166.666992188 244.444335938 l 1
 166.666992188 188.888671875 l 1025
166.666992188 133.333007812 m 1
 277.77734375 133.333007812 l 1
 277.77734375 188.888671875 l 1
 166.666992188 188.888671875 l 1
 166.666992188 133.333007812 l 1025
166.666992188 77.77734375 m 1
 277.77734375 77.77734375 l 1
 277.77734375 133.333007812 l 1
 166.666992188 133.333007812 l 1
 166.666992188 77.77734375 l 1025
166.666992188 22.22265625 m 1
 277.77734375 22.22265625 l 1
 277.77734375 77.77734375 l 1
 166.666992188 77.77734375 l 1
 166.666992188 22.22265625 l 1025
55.5556640625 -33.3330078125 m 1
 388.888671875 -33.3330078125 l 1
 388.888671875 22.22265625 l 1
 55.5556640625 22.22265625 l 1
 55.5556640625 -33.3330078125 l 1
EndSplineSet
EndChar

StartChar: Q
Encoding: 81 81 49
Width: 550
VWidth: 0
Flags: HW
LayerCount: 2
Back
Fore
SplineSet
166.666992188 522.22265625 m 1
 444.444335938 522.22265625 l 1
 444.444335938 577.77734375 l 1
 166.666992188 577.77734375 l 1
 166.666992188 522.22265625 l 1025
111.111328125 466.666992188 m 1
 222.22265625 466.666992188 l 1
 222.22265625 522.22265625 l 1
 111.111328125 522.22265625 l 1
 111.111328125 466.666992188 l 1025
388.888671875 466.666992188 m 1
 500 466.666992188 l 1
 500 522.22265625 l 1
 388.888671875 522.22265625 l 1
 388.888671875 466.666992188 l 1025
55.5556640625 411.111328125 m 1
 166.666992188 411.111328125 l 1
 166.666992188 466.666992188 l 1
 55.5556640625 466.666992188 l 1
 55.5556640625 411.111328125 l 1025
444.444335938 411.111328125 m 1
 555.555664062 411.111328125 l 1
 555.555664062 466.666992188 l 1
 444.444335938 466.666992188 l 1
 444.444335938 411.111328125 l 1025
55.5556640625 355.555664062 m 1
 166.666992188 355.555664062 l 1
 166.666992188 411.111328125 l 1
 55.5556640625 411.111328125 l 1
 55.5556640625 355.555664062 l 1025
444.444335938 355.555664062 m 1
 555.555664062 355.555664062 l 1
 555.555664062 411.111328125 l 1
 444.444335938 411.111328125 l 1
 444.444335938 355.555664062 l 1025
55.5556640625 300 m 1
 166.666992188 300 l 1
 166.666992188 355.555664062 l 1
 55.5556640625 355.555664062 l 1
 55.5556640625 300 l 1025
444.444335938 300 m 1
 555.555664062 300 l 1
 555.555664062 355.555664062 l 1
 444.444335938 355.555664062 l 1
 444.444335938 300 l 1025
55.5556640625 244.444335938 m 1
 166.666992188 244.444335938 l 1
 166.666992188 300 l 1
 55.5556640625 300 l 1
 55.5556640625 244.444335938 l 1025
444.444335938 244.444335938 m 1
 555.555664062 244.444335938 l 1
 555.555664062 300 l 1
 444.444335938 300 l 1
 444.444335938 244.444335938 l 1025
55.5556640625 188.888671875 m 1
 166.666992188 188.888671875 l 1
 166.666992188 244.444335938 l 1
 55.5556640625 244.444335938 l 1
 55.5556640625 188.888671875 l 1025
444.444335938 188.888671875 m 1
 555.555664062 188.888671875 l 1
 555.555664062 244.444335938 l 1
 444.444335938 244.444335938 l 1
 444.444335938 188.888671875 l 1025
55.5556640625 133.333007812 m 1
 166.666992188 133.333007812 l 1
 166.666992188 188.888671875 l 1
 55.5556640625 188.888671875 l 1
 55.5556640625 133.333007812 l 1025
444.444335938 133.333007812 m 1
 555.555664062 133.333007812 l 1
 555.555664062 188.888671875 l 1
 444.444335938 188.888671875 l 1
 444.444335938 133.333007812 l 1025
55.5556640625 77.77734375 m 1
 166.666992188 77.77734375 l 1
 166.666992188 133.333007812 l 1
 55.5556640625 133.333007812 l 1
 55.5556640625 77.77734375 l 1025
444.444335938 77.77734375 m 1
 555.555664062 77.77734375 l 1
 555.555664062 133.333007812 l 1
 444.444335938 133.333007812 l 1
 444.444335938 77.77734375 l 1025
111.111328125 22.22265625 m 1
 222.22265625 22.22265625 l 1
 222.22265625 77.77734375 l 1
 111.111328125 77.77734375 l 1
 111.111328125 22.22265625 l 1025
388.888671875 22.22265625 m 1
 500 22.22265625 l 1
 500 77.77734375 l 1
 388.888671875 77.77734375 l 1
 388.888671875 22.22265625 l 1025
166.666992188 -33.3330078125 m 1
 444.444335938 -33.3330078125 l 1
 444.444335938 22.22265625 l 1
 166.666992188 22.22265625 l 1
 166.666992188 -33.3330078125 l 1025
222.22265625 -88.888671875 m 1
 277.77734375 -88.888671875 l 1
 277.77734375 -33.3330078125 l 1
 222.22265625 -33.3330078125 l 1
 222.22265625 -88.888671875 l 1025
166.666992188 -144.444335938 m 1
 222.22265625 -144.444335938 l 1
 222.22265625 -88.888671875 l 1
 166.666992188 -88.888671875 l 1
 166.666992188 -144.444335938 l 1025
277.77734375 -144.444335938 m 1
 444.444335938 -144.444335938 l 1
 444.444335938 -88.888671875 l 1
 277.77734375 -88.888671875 l 1
 277.77734375 -144.444335938 l 1025
500 -144.444335938 m 1
 611.111328125 -144.444335938 l 1
 611.111328125 -88.888671875 l 1
 500 -88.888671875 l 1
 500 -144.444335938 l 1025
166.666992188 -200 m 1
 277.77734375 -200 l 1
 277.77734375 -144.444335938 l 1
 166.666992188 -144.444335938 l 1
 166.666992188 -200 l 1025
388.888671875 -200 m 1
 555.555664062 -200 l 1
 555.555664062 -144.444335938 l 1
 388.888671875 -144.444335938 l 1
 388.888671875 -200 l 1
EndSplineSet
EndChar

StartChar: R
Encoding: 82 82 50
Width: 550
VWidth: 0
Flags: HW
LayerCount: 2
Back
Fore
SplineSet
55.5556640625 522.22265625 m 1
 500 522.22265625 l 1
 500 577.77734375 l 1
 55.5556640625 577.77734375 l 1
 55.5556640625 522.22265625 l 1025
111.111328125 466.666992188 m 1
 222.22265625 466.666992188 l 1
 222.22265625 522.22265625 l 1
 111.111328125 522.22265625 l 1
 111.111328125 466.666992188 l 1025
388.888671875 466.666992188 m 1
 555.555664062 466.666992188 l 1
 555.555664062 522.22265625 l 1
 388.888671875 522.22265625 l 1
 388.888671875 466.666992188 l 1025
111.111328125 411.111328125 m 1
 222.22265625 411.111328125 l 1
 222.22265625 466.666992188 l 1
 111.111328125 466.666992188 l 1
 111.111328125 411.111328125 l 1025
444.444335938 411.111328125 m 1
 555.555664062 411.111328125 l 1
 555.555664062 466.666992188 l 1
 444.444335938 466.666992188 l 1
 444.444335938 411.111328125 l 1025
111.111328125 355.555664062 m 1
 222.22265625 355.555664062 l 1
 222.22265625 411.111328125 l 1
 111.111328125 411.111328125 l 1
 111.111328125 355.555664062 l 1025
444.444335938 355.555664062 m 1
 555.555664062 355.555664062 l 1
 555.555664062 411.111328125 l 1
 444.444335938 411.111328125 l 1
 444.444335938 355.555664062 l 1025
111.111328125 300 m 1
 222.22265625 300 l 1
 222.22265625 355.555664062 l 1
 111.111328125 355.555664062 l 1
 111.111328125 300 l 1025
388.888671875 300 m 1
 500 300 l 1
 500 355.555664062 l 1
 388.888671875 355.555664062 l 1
 388.888671875 300 l 1025
111.111328125 244.444335938 m 1
 444.444335938 244.444335938 l 1
 444.444335938 300 l 1
 111.111328125 300 l 1
 111.111328125 244.444335938 l 1025
111.111328125 188.888671875 m 1
 222.22265625 188.888671875 l 1
 222.22265625 244.444335938 l 1
 111.111328125 244.444335938 l 1
 111.111328125 188.888671875 l 1025
388.888671875 188.888671875 m 1
 500 188.888671875 l 1
 500 244.444335938 l 1
 388.888671875 244.444335938 l 1
 388.888671875 188.888671875 l 1025
111.111328125 133.333007812 m 1
 222.22265625 133.333007812 l 1
 222.22265625 188.888671875 l 1
 111.111328125 188.888671875 l 1
 111.111328125 133.333007812 l 1025
388.888671875 133.333007812 m 1
 500 133.333007812 l 1
 500 188.888671875 l 1
 388.888671875 188.888671875 l 1
 388.888671875 133.333007812 l 1025
111.111328125 77.77734375 m 1
 222.22265625 77.77734375 l 1
 222.22265625 133.333007812 l 1
 111.111328125 133.333007812 l 1
 111.111328125 77.77734375 l 1025
444.444335938 77.77734375 m 1
 555.555664062 77.77734375 l 1
 555.555664062 133.333007812 l 1
 444.444335938 133.333007812 l 1
 444.444335938 77.77734375 l 1025
111.111328125 22.22265625 m 1
 222.22265625 22.22265625 l 1
 222.22265625 77.77734375 l 1
 111.111328125 77.77734375 l 1
 111.111328125 22.22265625 l 1025
444.444335938 22.22265625 m 1
 555.555664062 22.22265625 l 1
 555.555664062 77.77734375 l 1
 444.444335938 77.77734375 l 1
 444.444335938 22.22265625 l 1025
55.5556640625 -33.3330078125 m 1
 277.77734375 -33.3330078125 l 1
 277.77734375 22.22265625 l 1
 55.5556640625 22.22265625 l 1
 55.5556640625 -33.3330078125 l 1025
444.444335938 -33.3330078125 m 1
 611.111328125 -33.3330078125 l 1
 611.111328125 22.22265625 l 1
 444.444335938 22.22265625 l 1
 444.444335938 -33.3330078125 l 1
EndSplineSet
EndChar

StartChar: S
Encoding: 83 83 51
Width: 550
VWidth: 0
Flags: HW
LayerCount: 2
Back
Fore
SplineSet
222.22265625 522.22265625 m 1
 388.888671875 522.22265625 l 1
 388.888671875 577.77734375 l 1
 222.22265625 577.77734375 l 1
 222.22265625 522.22265625 l 1025
444.444335938 522.22265625 m 1
 555.555664062 522.22265625 l 1
 555.555664062 577.77734375 l 1
 444.444335938 577.77734375 l 1
 444.444335938 522.22265625 l 1025
111.111328125 466.666992188 m 1
 277.77734375 466.666992188 l 1
 277.77734375 522.22265625 l 1
 111.111328125 522.22265625 l 1
 111.111328125 466.666992188 l 1025
388.888671875 466.666992188 m 1
 555.555664062 466.666992188 l 1
 555.555664062 522.22265625 l 1
 388.888671875 522.22265625 l 1
 388.888671875 466.666992188 l 1025
111.111328125 411.111328125 m 1
 222.22265625 411.111328125 l 1
 222.22265625 466.666992188 l 1
 111.111328125 466.666992188 l 1
 111.111328125 411.111328125 l 1025
444.444335938 411.111328125 m 1
 555.555664062 411.111328125 l 1
 555.555664062 466.666992188 l 1
 444.444335938 466.666992188 l 1
 444.444335938 411.111328125 l 1025
111.111328125 355.555664062 m 1
 222.22265625 355.555664062 l 1
 222.22265625 411.111328125 l 1
 111.111328125 411.111328125 l 1
 111.111328125 355.555664062 l 1025
111.111328125 300 m 1
 277.77734375 300 l 1
 277.77734375 355.555664062 l 1
 111.111328125 355.555664062 l 1
 111.111328125 300 l 1025
166.666992188 244.444335938 m 1
 500 244.444335938 l 1
 500 300 l 1
 166.666992188 300 l 1
 166.666992188 244.444335938 l 1025
388.888671875 188.888671875 m 1
 555.555664062 188.888671875 l 1
 555.555664062 244.444335938 l 1
 388.888671875 244.444335938 l 1
 388.888671875 188.888671875 l 1025
444.444335938 133.333007812 m 1
 555.555664062 133.333007812 l 1
 555.555664062 188.888671875 l 1
 444.444335938 188.888671875 l 1
 444.444335938 133.333007812 l 1025
111.111328125 77.77734375 m 1
 222.22265625 77.77734375 l 1
 222.22265625 133.333007812 l 1
 111.111328125 133.333007812 l 1
 111.111328125 77.77734375 l 1025
444.444335938 77.77734375 m 1
 555.555664062 77.77734375 l 1
 555.555664062 133.333007812 l 1
 444.444335938 133.333007812 l 1
 444.444335938 77.77734375 l 1025
111.111328125 22.22265625 m 1
 277.77734375 22.22265625 l 1
 277.77734375 77.77734375 l 1
 111.111328125 77.77734375 l 1
 111.111328125 22.22265625 l 1025
388.888671875 22.22265625 m 1
 555.555664062 22.22265625 l 1
 555.555664062 77.77734375 l 1
 388.888671875 77.77734375 l 1
 388.888671875 22.22265625 l 1025
111.111328125 -33.3330078125 m 1
 222.22265625 -33.3330078125 l 1
 222.22265625 22.22265625 l 1
 111.111328125 22.22265625 l 1
 111.111328125 -33.3330078125 l 1025
277.77734375 -33.3330078125 m 1
 444.444335938 -33.3330078125 l 1
 444.444335938 22.22265625 l 1
 277.77734375 22.22265625 l 1
 277.77734375 -33.3330078125 l 1
EndSplineSet
EndChar

StartChar: T
Encoding: 84 84 52
Width: 550
VWidth: 0
Flags: HW
LayerCount: 2
Back
Fore
SplineSet
55.5556640625 522.22265625 m 1
 611.111328125 522.22265625 l 1
 611.111328125 577.77734375 l 1
 55.5556640625 577.77734375 l 1
 55.5556640625 522.22265625 l 1025
55.5556640625 466.666992188 m 1
 111.111328125 466.666992188 l 1
 111.111328125 522.22265625 l 1
 55.5556640625 522.22265625 l 1
 55.5556640625 466.666992188 l 1025
277.77734375 466.666992188 m 1
 388.888671875 466.666992188 l 1
 388.888671875 522.22265625 l 1
 277.77734375 522.22265625 l 1
 277.77734375 466.666992188 l 1025
555.555664062 466.666992188 m 1
 611.111328125 466.666992188 l 1
 611.111328125 522.22265625 l 1
 555.555664062 522.22265625 l 1
 555.555664062 466.666992188 l 1025
55.5556640625 411.111328125 m 1
 111.111328125 411.111328125 l 1
 111.111328125 466.666992188 l 1
 55.5556640625 466.666992188 l 1
 55.5556640625 411.111328125 l 1025
277.77734375 411.111328125 m 1
 388.888671875 411.111328125 l 1
 388.888671875 466.666992188 l 1
 277.77734375 466.666992188 l 1
 277.77734375 411.111328125 l 1025
555.555664062 411.111328125 m 1
 611.111328125 411.111328125 l 1
 611.111328125 466.666992188 l 1
 555.555664062 466.666992188 l 1
 555.555664062 411.111328125 l 1025
55.5556640625 355.555664062 m 1
 111.111328125 355.555664062 l 1
 111.111328125 411.111328125 l 1
 55.5556640625 411.111328125 l 1
 55.5556640625 355.555664062 l 1025
277.77734375 355.555664062 m 1
 388.888671875 355.555664062 l 1
 388.888671875 411.111328125 l 1
 277.77734375 411.111328125 l 1
 277.77734375 355.555664062 l 1025
555.555664062 355.555664062 m 1
 611.111328125 355.555664062 l 1
 611.111328125 411.111328125 l 1
 555.555664062 411.111328125 l 1
 555.555664062 355.555664062 l 1025
277.77734375 300 m 1
 388.888671875 300 l 1
 388.888671875 355.555664062 l 1
 277.77734375 355.555664062 l 1
 277.77734375 300 l 1025
277.77734375 244.444335938 m 1
 388.888671875 244.444335938 l 1
 388.888671875 300 l 1
 277.77734375 300 l 1
 277.77734375 244.444335938 l 1025
277.77734375 188.888671875 m 1
 388.888671875 188.888671875 l 1
 388.888671875 244.444335938 l 1
 277.77734375 244.444335938 l 1
 277.77734375 188.888671875 l 1025
277.77734375 133.333007812 m 1
 388.888671875 133.333007812 l 1
 388.888671875 188.888671875 l 1
 277.77734375 188.888671875 l 1
 277.77734375 133.333007812 l 1025
277.77734375 77.77734375 m 1
 388.888671875 77.77734375 l 1
 388.888671875 133.333007812 l 1
 277.77734375 133.333007812 l 1
 277.77734375 77.77734375 l 1025
277.77734375 22.22265625 m 1
 388.888671875 22.22265625 l 1
 388.888671875 77.77734375 l 1
 277.77734375 77.77734375 l 1
 277.77734375 22.22265625 l 1025
166.666992188 -33.3330078125 m 1
 500 -33.3330078125 l 1
 500 22.22265625 l 1
 166.666992188 22.22265625 l 1
 166.666992188 -33.3330078125 l 1
EndSplineSet
EndChar

StartChar: U
Encoding: 85 85 53
Width: 550
VWidth: 0
Flags: HW
LayerCount: 2
Back
Fore
SplineSet
55.5556640625 522.22265625 m 1
 277.77734375 522.22265625 l 1
 277.77734375 577.77734375 l 1
 55.5556640625 577.77734375 l 1
 55.5556640625 522.22265625 l 1025
388.888671875 522.22265625 m 1
 611.111328125 522.22265625 l 1
 611.111328125 577.77734375 l 1
 388.888671875 577.77734375 l 1
 388.888671875 522.22265625 l 1025
111.111328125 466.666992188 m 1
 222.22265625 466.666992188 l 1
 222.22265625 522.22265625 l 1
 111.111328125 522.22265625 l 1
 111.111328125 466.666992188 l 1025
444.444335938 466.666992188 m 1
 555.555664062 466.666992188 l 1
 555.555664062 522.22265625 l 1
 444.444335938 522.22265625 l 1
 444.444335938 466.666992188 l 1025
111.111328125 411.111328125 m 1
 222.22265625 411.111328125 l 1
 222.22265625 466.666992188 l 1
 111.111328125 466.666992188 l 1
 111.111328125 411.111328125 l 1025
444.444335938 411.111328125 m 1
 555.555664062 411.111328125 l 1
 555.555664062 466.666992188 l 1
 444.444335938 466.666992188 l 1
 444.444335938 411.111328125 l 1025
111.111328125 355.555664062 m 1
 222.22265625 355.555664062 l 1
 222.22265625 411.111328125 l 1
 111.111328125 411.111328125 l 1
 111.111328125 355.555664062 l 1025
444.444335938 355.555664062 m 1
 555.555664062 355.555664062 l 1
 555.555664062 411.111328125 l 1
 444.444335938 411.111328125 l 1
 444.444335938 355.555664062 l 1025
111.111328125 300 m 1
 222.22265625 300 l 1
 222.22265625 355.555664062 l 1
 111.111328125 355.555664062 l 1
 111.111328125 300 l 1025
444.444335938 300 m 1
 555.555664062 300 l 1
 555.555664062 355.555664062 l 1
 444.444335938 355.555664062 l 1
 444.444335938 300 l 1025
111.111328125 244.444335938 m 1
 222.22265625 244.444335938 l 1
 222.22265625 300 l 1
 111.111328125 300 l 1
 111.111328125 244.444335938 l 1025
444.444335938 244.444335938 m 1
 555.555664062 244.444335938 l 1
 555.555664062 300 l 1
 444.444335938 300 l 1
 444.444335938 244.444335938 l 1025
111.111328125 188.888671875 m 1
 222.22265625 188.888671875 l 1
 222.22265625 244.444335938 l 1
 111.111328125 244.444335938 l 1
 111.111328125 188.888671875 l 1025
444.444335938 188.888671875 m 1
 555.555664062 188.888671875 l 1
 555.555664062 244.444335938 l 1
 444.444335938 244.444335938 l 1
 444.444335938 188.888671875 l 1025
111.111328125 133.333007812 m 1
 222.22265625 133.333007812 l 1
 222.22265625 188.888671875 l 1
 111.111328125 188.888671875 l 1
 111.111328125 133.333007812 l 1025
444.444335938 133.333007812 m 1
 555.555664062 133.333007812 l 1
 555.555664062 188.888671875 l 1
 444.444335938 188.888671875 l 1
 444.444335938 133.333007812 l 1025
111.111328125 77.77734375 m 1
 222.22265625 77.77734375 l 1
 222.22265625 133.333007812 l 1
 111.111328125 133.333007812 l 1
 111.111328125 77.77734375 l 1025
444.444335938 77.77734375 m 1
 555.555664062 77.77734375 l 1
 555.555664062 133.333007812 l 1
 444.444335938 133.333007812 l 1
 444.444335938 77.77734375 l 1025
166.666992188 22.22265625 m 1
 277.77734375 22.22265625 l 1
 277.77734375 77.77734375 l 1
 166.666992188 77.77734375 l 1
 166.666992188 22.22265625 l 1025
388.888671875 22.22265625 m 1
 500 22.22265625 l 1
 500 77.77734375 l 1
 388.888671875 77.77734375 l 1
 388.888671875 22.22265625 l 1025
222.22265625 -33.3330078125 m 1
 444.444335938 -33.3330078125 l 1
 444.444335938 22.22265625 l 1
 222.22265625 22.22265625 l 1
 222.22265625 -33.3330078125 l 1
EndSplineSet
EndChar

StartChar: V
Encoding: 86 86 54
Width: 550
VWidth: 0
Flags: HW
LayerCount: 2
Back
Fore
SplineSet
0 522.22265625 m 1
 222.22265625 522.22265625 l 1
 222.22265625 577.77734375 l 1
 0 577.77734375 l 1
 0 522.22265625 l 1025
388.888671875 522.22265625 m 1
 611.111328125 522.22265625 l 1
 611.111328125 577.77734375 l 1
 388.888671875 577.77734375 l 1
 388.888671875 522.22265625 l 1025
55.5556640625 466.666992188 m 1
 166.666992188 466.666992188 l 1
 166.666992188 522.22265625 l 1
 55.5556640625 522.22265625 l 1
 55.5556640625 466.666992188 l 1025
444.444335938 466.666992188 m 1
 555.555664062 466.666992188 l 1
 555.555664062 522.22265625 l 1
 444.444335938 522.22265625 l 1
 444.444335938 466.666992188 l 1025
55.5556640625 411.111328125 m 1
 166.666992188 411.111328125 l 1
 166.666992188 466.666992188 l 1
 55.5556640625 466.666992188 l 1
 55.5556640625 411.111328125 l 1025
444.444335938 411.111328125 m 1
 555.555664062 411.111328125 l 1
 555.555664062 466.666992188 l 1
 444.444335938 466.666992188 l 1
 444.444335938 411.111328125 l 1025
111.111328125 355.555664062 m 1
 222.22265625 355.555664062 l 1
 222.22265625 411.111328125 l 1
 111.111328125 411.111328125 l 1
 111.111328125 355.555664062 l 1025
388.888671875 355.555664062 m 1
 500 355.555664062 l 1
 500 411.111328125 l 1
 388.888671875 411.111328125 l 1
 388.888671875 355.555664062 l 1025
111.111328125 300 m 1
 222.22265625 300 l 1
 222.22265625 355.555664062 l 1
 111.111328125 355.555664062 l 1
 111.111328125 300 l 1025
388.888671875 300 m 1
 500 300 l 1
 500 355.555664062 l 1
 388.888671875 355.555664062 l 1
 388.888671875 300 l 1025
111.111328125 244.444335938 m 1
 222.22265625 244.444335938 l 1
 222.22265625 300 l 1
 111.111328125 300 l 1
 111.111328125 244.444335938 l 1025
388.888671875 244.444335938 m 1
 500 244.444335938 l 1
 500 300 l 1
 388.888671875 300 l 1
 388.888671875 244.444335938 l 1025
166.666992188 188.888671875 m 1
 277.77734375 188.888671875 l 1
 277.77734375 244.444335938 l 1
 166.666992188 244.444335938 l 1
 166.666992188 188.888671875 l 1025
333.333007812 188.888671875 m 1
 444.444335938 188.888671875 l 1
 444.444335938 244.444335938 l 1
 333.333007812 244.444335938 l 1
 333.333007812 188.888671875 l 1025
166.666992188 133.333007812 m 1
 277.77734375 133.333007812 l 1
 277.77734375 188.888671875 l 1
 166.666992188 188.888671875 l 1
 166.666992188 133.333007812 l 1025
333.333007812 133.333007812 m 1
 444.444335938 133.333007812 l 1
 444.444335938 188.888671875 l 1
 333.333007812 188.888671875 l 1
 333.333007812 133.333007812 l 1025
222.22265625 77.77734375 m 1
 277.77734375 77.77734375 l 1
 277.77734375 133.333007812 l 1
 222.22265625 133.333007812 l 1
 222.22265625 77.77734375 l 1025
333.333007812 77.77734375 m 1
 388.888671875 77.77734375 l 1
 388.888671875 133.333007812 l 1
 333.333007812 133.333007812 l 1
 333.333007812 77.77734375 l 1025
222.22265625 22.22265625 m 1
 388.888671875 22.22265625 l 1
 388.888671875 77.77734375 l 1
 222.22265625 77.77734375 l 1
 222.22265625 22.22265625 l 1025
277.77734375 -33.3330078125 m 1
 333.333007812 -33.3330078125 l 1
 333.333007812 22.22265625 l 1
 277.77734375 22.22265625 l 1
 277.77734375 -33.3330078125 l 1
EndSplineSet
EndChar

StartChar: W
Encoding: 87 87 55
Width: 550
VWidth: 0
Flags: HW
LayerCount: 2
Back
Fore
SplineSet
0 522.22265625 m 1
 222.22265625 522.22265625 l 1
 222.22265625 577.77734375 l 1
 0 577.77734375 l 1
 0 522.22265625 l 1025
388.888671875 522.22265625 m 1
 611.111328125 522.22265625 l 1
 611.111328125 577.77734375 l 1
 388.888671875 577.77734375 l 1
 388.888671875 522.22265625 l 1025
55.5556640625 466.666992188 m 1
 166.666992188 466.666992188 l 1
 166.666992188 522.22265625 l 1
 55.5556640625 522.22265625 l 1
 55.5556640625 466.666992188 l 1025
444.444335938 466.666992188 m 1
 555.555664062 466.666992188 l 1
 555.555664062 522.22265625 l 1
 444.444335938 522.22265625 l 1
 444.444335938 466.666992188 l 1025
55.5556640625 411.111328125 m 1
 166.666992188 411.111328125 l 1
 166.666992188 466.666992188 l 1
 55.5556640625 466.666992188 l 1
 55.5556640625 411.111328125 l 1025
444.444335938 411.111328125 m 1
 555.555664062 411.111328125 l 1
 555.555664062 466.666992188 l 1
 444.444335938 466.666992188 l 1
 444.444335938 411.111328125 l 1025
55.5556640625 355.555664062 m 1
 166.666992188 355.555664062 l 1
 166.666992188 411.111328125 l 1
 55.5556640625 411.111328125 l 1
 55.5556640625 355.555664062 l 1025
277.77734375 355.555664062 m 1
 333.333007812 355.555664062 l 1
 333.333007812 411.111328125 l 1
 277.77734375 411.111328125 l 1
 277.77734375 355.555664062 l 1025
444.444335938 355.555664062 m 1
 555.555664062 355.555664062 l 1
 555.555664062 411.111328125 l 1
 444.444335938 411.111328125 l 1
 444.444335938 355.555664062 l 1025
55.5556640625 300 m 1
 166.666992188 300 l 1
 166.666992188 355.555664062 l 1
 55.5556640625 355.555664062 l 1
 55.5556640625 300 l 1025
277.77734375 300 m 1
 333.333007812 300 l 1
 333.333007812 355.555664062 l 1
 277.77734375 355.555664062 l 1
 277.77734375 300 l 1025
444.444335938 300 m 1
 555.555664062 300 l 1
 555.555664062 355.555664062 l 1
 444.444335938 355.555664062 l 1
 444.444335938 300 l 1025
55.5556640625 244.444335938 m 1
 166.666992188 244.444335938 l 1
 166.666992188 300 l 1
 55.5556640625 300 l 1
 55.5556640625 244.444335938 l 1025
222.22265625 244.444335938 m 1
 388.888671875 244.444335938 l 1
 388.888671875 300 l 1
 222.22265625 300 l 1
 222.22265625 244.444335938 l 1025
444.444335938 244.444335938 m 1
 555.555664062 244.444335938 l 1
 555.555664062 300 l 1
 444.444335938 300 l 1
 444.444335938 244.444335938 l 1025
55.5556640625 188.888671875 m 1
 166.666992188 188.888671875 l 1
 166.666992188 244.444335938 l 1
 55.5556640625 244.444335938 l 1
 55.5556640625 188.888671875 l 1025
222.22265625 188.888671875 m 1
 277.77734375 188.888671875 l 1
 277.77734375 244.444335938 l 1
 222.22265625 244.444335938 l 1
 222.22265625 188.888671875 l 1025
333.333007812 188.888671875 m 1
 388.888671875 188.888671875 l 1
 388.888671875 244.444335938 l 1
 333.333007812 244.444335938 l 1
 333.333007812 188.888671875 l 1025
444.444335938 188.888671875 m 1
 555.555664062 188.888671875 l 1
 555.555664062 244.444335938 l 1
 444.444335938 244.444335938 l 1
 444.444335938 188.888671875 l 1025
111.111328125 133.333007812 m 1
 166.666992188 133.333007812 l 1
 166.666992188 188.888671875 l 1
 111.111328125 188.888671875 l 1
 111.111328125 133.333007812 l 1025
222.22265625 133.333007812 m 1
 277.77734375 133.333007812 l 1
 277.77734375 188.888671875 l 1
 222.22265625 188.888671875 l 1
 222.22265625 133.333007812 l 1025
333.333007812 133.333007812 m 1
 388.888671875 133.333007812 l 1
 388.888671875 188.888671875 l 1
 333.333007812 188.888671875 l 1
 333.333007812 133.333007812 l 1025
444.444335938 133.333007812 m 1
 500 133.333007812 l 1
 500 188.888671875 l 1
 444.444335938 188.888671875 l 1
 444.444335938 133.333007812 l 1025
111.111328125 77.77734375 m 1
 277.77734375 77.77734375 l 1
 277.77734375 133.333007812 l 1
 111.111328125 133.333007812 l 1
 111.111328125 77.77734375 l 1025
333.333007812 77.77734375 m 1
 500 77.77734375 l 1
 500 133.333007812 l 1
 333.333007812 133.333007812 l 1
 333.333007812 77.77734375 l 1025
111.111328125 22.22265625 m 1
 222.22265625 22.22265625 l 1
 222.22265625 77.77734375 l 1
 111.111328125 77.77734375 l 1
 111.111328125 22.22265625 l 1025
388.888671875 22.22265625 m 1
 500 22.22265625 l 1
 500 77.77734375 l 1
 388.888671875 77.77734375 l 1
 388.888671875 22.22265625 l 1025
111.111328125 -33.3330078125 m 1
 222.22265625 -33.3330078125 l 1
 222.22265625 22.22265625 l 1
 111.111328125 22.22265625 l 1
 111.111328125 -33.3330078125 l 1025
388.888671875 -33.3330078125 m 1
 500 -33.3330078125 l 1
 500 22.22265625 l 1
 388.888671875 22.22265625 l 1
 388.888671875 -33.3330078125 l 1
EndSplineSet
EndChar

StartChar: X
Encoding: 88 88 56
Width: 550
VWidth: 0
Flags: HW
LayerCount: 2
Back
Fore
SplineSet
55.5556640625 522.22265625 m 1
 277.77734375 522.22265625 l 1
 277.77734375 577.77734375 l 1
 55.5556640625 577.77734375 l 1
 55.5556640625 522.22265625 l 1025
333.333007812 522.22265625 m 1
 555.555664062 522.22265625 l 1
 555.555664062 577.77734375 l 1
 333.333007812 577.77734375 l 1
 333.333007812 522.22265625 l 1025
111.111328125 466.666992188 m 1
 222.22265625 466.666992188 l 1
 222.22265625 522.22265625 l 1
 111.111328125 522.22265625 l 1
 111.111328125 466.666992188 l 1025
388.888671875 466.666992188 m 1
 500 466.666992188 l 1
 500 522.22265625 l 1
 388.888671875 522.22265625 l 1
 388.888671875 466.666992188 l 1025
111.111328125 411.111328125 m 1
 222.22265625 411.111328125 l 1
 222.22265625 466.666992188 l 1
 111.111328125 466.666992188 l 1
 111.111328125 411.111328125 l 1025
388.888671875 411.111328125 m 1
 500 411.111328125 l 1
 500 466.666992188 l 1
 388.888671875 466.666992188 l 1
 388.888671875 411.111328125 l 1025
166.666992188 355.555664062 m 1
 277.77734375 355.555664062 l 1
 277.77734375 411.111328125 l 1
 166.666992188 411.111328125 l 1
 166.666992188 355.555664062 l 1025
333.333007812 355.555664062 m 1
 444.444335938 355.555664062 l 1
 444.444335938 411.111328125 l 1
 333.333007812 411.111328125 l 1
 333.333007812 355.555664062 l 1025
222.22265625 300 m 1
 388.888671875 300 l 1
 388.888671875 355.555664062 l 1
 222.22265625 355.555664062 l 1
 222.22265625 300 l 1025
222.22265625 244.444335938 m 1
 388.888671875 244.444335938 l 1
 388.888671875 300 l 1
 222.22265625 300 l 1
 222.22265625 244.444335938 l 1025
222.22265625 188.888671875 m 1
 388.888671875 188.888671875 l 1
 388.888671875 244.444335938 l 1
 222.22265625 244.444335938 l 1
 222.22265625 188.888671875 l 1025
166.666992188 133.333007812 m 1
 277.77734375 133.333007812 l 1
 277.77734375 188.888671875 l 1
 166.666992188 188.888671875 l 1
 166.666992188 133.333007812 l 1025
333.333007812 133.333007812 m 1
 444.444335938 133.333007812 l 1
 444.444335938 188.888671875 l 1
 333.333007812 188.888671875 l 1
 333.333007812 133.333007812 l 1025
111.111328125 77.77734375 m 1
 222.22265625 77.77734375 l 1
 222.22265625 133.333007812 l 1
 111.111328125 133.333007812 l 1
 111.111328125 77.77734375 l 1025
388.888671875 77.77734375 m 1
 500 77.77734375 l 1
 500 133.333007812 l 1
 388.888671875 133.333007812 l 1
 388.888671875 77.77734375 l 1025
111.111328125 22.22265625 m 1
 222.22265625 22.22265625 l 1
 222.22265625 77.77734375 l 1
 111.111328125 77.77734375 l 1
 111.111328125 22.22265625 l 1025
388.888671875 22.22265625 m 1
 500 22.22265625 l 1
 500 77.77734375 l 1
 388.888671875 77.77734375 l 1
 388.888671875 22.22265625 l 1025
55.5556640625 -33.3330078125 m 1
 277.77734375 -33.3330078125 l 1
 277.77734375 22.22265625 l 1
 55.5556640625 22.22265625 l 1
 55.5556640625 -33.3330078125 l 1025
333.333007812 -33.3330078125 m 1
 555.555664062 -33.3330078125 l 1
 555.555664062 22.22265625 l 1
 333.333007812 22.22265625 l 1
 333.333007812 -33.3330078125 l 1
EndSplineSet
EndChar

StartChar: Y
Encoding: 89 89 57
Width: 550
VWidth: 0
Flags: HW
LayerCount: 2
Back
Fore
SplineSet
55.5556640625 522.22265625 m 1
 277.77734375 522.22265625 l 1
 277.77734375 577.77734375 l 1
 55.5556640625 577.77734375 l 1
 55.5556640625 522.22265625 l 1025
388.888671875 522.22265625 m 1
 611.111328125 522.22265625 l 1
 611.111328125 577.77734375 l 1
 388.888671875 577.77734375 l 1
 388.888671875 522.22265625 l 1025
111.111328125 466.666992188 m 1
 222.22265625 466.666992188 l 1
 222.22265625 522.22265625 l 1
 111.111328125 522.22265625 l 1
 111.111328125 466.666992188 l 1025
444.444335938 466.666992188 m 1
 555.555664062 466.666992188 l 1
 555.555664062 522.22265625 l 1
 444.444335938 522.22265625 l 1
 444.444335938 466.666992188 l 1025
166.666992188 411.111328125 m 1
 222.22265625 411.111328125 l 1
 222.22265625 466.666992188 l 1
 166.666992188 466.666992188 l 1
 166.666992188 411.111328125 l 1025
444.444335938 411.111328125 m 1
 500 411.111328125 l 1
 500 466.666992188 l 1
 444.444335938 466.666992188 l 1
 444.444335938 411.111328125 l 1025
166.666992188 355.555664062 m 1
 277.77734375 355.555664062 l 1
 277.77734375 411.111328125 l 1
 166.666992188 411.111328125 l 1
 166.666992188 355.555664062 l 1025
388.888671875 355.555664062 m 1
 500 355.555664062 l 1
 500 411.111328125 l 1
 388.888671875 411.111328125 l 1
 388.888671875 355.555664062 l 1025
222.22265625 300 m 1
 277.77734375 300 l 1
 277.77734375 355.555664062 l 1
 222.22265625 355.555664062 l 1
 222.22265625 300 l 1025
388.888671875 300 m 1
 444.444335938 300 l 1
 444.444335938 355.555664062 l 1
 388.888671875 355.555664062 l 1
 388.888671875 300 l 1025
222.22265625 244.444335938 m 1
 444.444335938 244.444335938 l 1
 444.444335938 300 l 1
 222.22265625 300 l 1
 222.22265625 244.444335938 l 1025
277.77734375 188.888671875 m 1
 388.888671875 188.888671875 l 1
 388.888671875 244.444335938 l 1
 277.77734375 244.444335938 l 1
 277.77734375 188.888671875 l 1025
277.77734375 133.333007812 m 1
 388.888671875 133.333007812 l 1
 388.888671875 188.888671875 l 1
 277.77734375 188.888671875 l 1
 277.77734375 133.333007812 l 1025
277.77734375 77.77734375 m 1
 388.888671875 77.77734375 l 1
 388.888671875 133.333007812 l 1
 277.77734375 133.333007812 l 1
 277.77734375 77.77734375 l 1025
277.77734375 22.22265625 m 1
 388.888671875 22.22265625 l 1
 388.888671875 77.77734375 l 1
 277.77734375 77.77734375 l 1
 277.77734375 22.22265625 l 1025
222.22265625 -33.3330078125 m 1
 444.444335938 -33.3330078125 l 1
 444.444335938 22.22265625 l 1
 222.22265625 22.22265625 l 1
 222.22265625 -33.3330078125 l 1
EndSplineSet
EndChar

StartChar: Z
Encoding: 90 90 58
Width: 550
VWidth: 0
Flags: HW
LayerCount: 2
Back
Fore
SplineSet
111.111328125 522.22265625 m 1
 555.555664062 522.22265625 l 1
 555.555664062 577.77734375 l 1
 111.111328125 577.77734375 l 1
 111.111328125 522.22265625 l 1025
111.111328125 466.666992188 m 1
 166.666992188 466.666992188 l 1
 166.666992188 522.22265625 l 1
 111.111328125 522.22265625 l 1
 111.111328125 466.666992188 l 1025
444.444335938 466.666992188 m 1
 555.555664062 466.666992188 l 1
 555.555664062 522.22265625 l 1
 444.444335938 522.22265625 l 1
 444.444335938 466.666992188 l 1025
111.111328125 411.111328125 m 1
 166.666992188 411.111328125 l 1
 166.666992188 466.666992188 l 1
 111.111328125 466.666992188 l 1
 111.111328125 411.111328125 l 1025
388.888671875 411.111328125 m 1
 500 411.111328125 l 1
 500 466.666992188 l 1
 388.888671875 466.666992188 l 1
 388.888671875 411.111328125 l 1025
388.888671875 355.555664062 m 1
 500 355.555664062 l 1
 500 411.111328125 l 1
 388.888671875 411.111328125 l 1
 388.888671875 355.555664062 l 1025
333.333007812 300 m 1
 444.444335938 300 l 1
 444.444335938 355.555664062 l 1
 333.333007812 355.555664062 l 1
 333.333007812 300 l 1025
333.333007812 244.444335938 m 1
 444.444335938 244.444335938 l 1
 444.444335938 300 l 1
 333.333007812 300 l 1
 333.333007812 244.444335938 l 1025
277.77734375 188.888671875 m 1
 388.888671875 188.888671875 l 1
 388.888671875 244.444335938 l 1
 277.77734375 244.444335938 l 1
 277.77734375 188.888671875 l 1025
222.22265625 133.333007812 m 1
 333.333007812 133.333007812 l 1
 333.333007812 188.888671875 l 1
 222.22265625 188.888671875 l 1
 222.22265625 133.333007812 l 1025
222.22265625 77.77734375 m 1
 333.333007812 77.77734375 l 1
 333.333007812 133.333007812 l 1
 222.22265625 133.333007812 l 1
 222.22265625 77.77734375 l 1025
500 77.77734375 m 1
 555.555664062 77.77734375 l 1
 555.555664062 133.333007812 l 1
 500 133.333007812 l 1
 500 77.77734375 l 1025
166.666992188 22.22265625 m 1
 277.77734375 22.22265625 l 1
 277.77734375 77.77734375 l 1
 166.666992188 77.77734375 l 1
 166.666992188 22.22265625 l 1025
500 22.22265625 m 1
 555.555664062 22.22265625 l 1
 555.555664062 77.77734375 l 1
 500 77.77734375 l 1
 500 22.22265625 l 1025
111.111328125 -33.3330078125 m 1
 555.555664062 -33.3330078125 l 1
 555.555664062 22.22265625 l 1
 111.111328125 22.22265625 l 1
 111.111328125 -33.3330078125 l 1
EndSplineSet
EndChar

StartChar: bracketleft
Encoding: 91 91 59
Width: 550
VWidth: 0
Flags: HW
LayerCount: 2
Back
Fore
SplineSet
222.22265625 577.77734375 m 1
 444.444335938 577.77734375 l 1
 444.444335938 633.333007812 l 1
 222.22265625 633.333007812 l 1
 222.22265625 577.77734375 l 1025
222.22265625 522.22265625 m 1
 333.333007812 522.22265625 l 1
 333.333007812 577.77734375 l 1
 222.22265625 577.77734375 l 1
 222.22265625 522.22265625 l 1025
222.22265625 466.666992188 m 1
 333.333007812 466.666992188 l 1
 333.333007812 522.22265625 l 1
 222.22265625 522.22265625 l 1
 222.22265625 466.666992188 l 1025
222.22265625 411.111328125 m 1
 333.333007812 411.111328125 l 1
 333.333007812 466.666992188 l 1
 222.22265625 466.666992188 l 1
 222.22265625 411.111328125 l 1025
222.22265625 355.555664062 m 1
 333.333007812 355.555664062 l 1
 333.333007812 411.111328125 l 1
 222.22265625 411.111328125 l 1
 222.22265625 355.555664062 l 1025
222.22265625 300 m 1
 333.333007812 300 l 1
 333.333007812 355.555664062 l 1
 222.22265625 355.555664062 l 1
 222.22265625 300 l 1025
222.22265625 244.444335938 m 1
 333.333007812 244.444335938 l 1
 333.333007812 300 l 1
 222.22265625 300 l 1
 222.22265625 244.444335938 l 1025
222.22265625 188.888671875 m 1
 333.333007812 188.888671875 l 1
 333.333007812 244.444335938 l 1
 222.22265625 244.444335938 l 1
 222.22265625 188.888671875 l 1025
222.22265625 133.333007812 m 1
 333.333007812 133.333007812 l 1
 333.333007812 188.888671875 l 1
 222.22265625 188.888671875 l 1
 222.22265625 133.333007812 l 1025
222.22265625 77.77734375 m 1
 333.333007812 77.77734375 l 1
 333.333007812 133.333007812 l 1
 222.22265625 133.333007812 l 1
 222.22265625 77.77734375 l 1025
222.22265625 22.22265625 m 1
 333.333007812 22.22265625 l 1
 333.333007812 77.77734375 l 1
 222.22265625 77.77734375 l 1
 222.22265625 22.22265625 l 1025
222.22265625 -33.3330078125 m 1
 333.333007812 -33.3330078125 l 1
 333.333007812 22.22265625 l 1
 222.22265625 22.22265625 l 1
 222.22265625 -33.3330078125 l 1025
222.22265625 -88.888671875 m 1
 333.333007812 -88.888671875 l 1
 333.333007812 -33.3330078125 l 1
 222.22265625 -33.3330078125 l 1
 222.22265625 -88.888671875 l 1025
222.22265625 -144.444335938 m 1
 444.444335938 -144.444335938 l 1
 444.444335938 -88.888671875 l 1
 222.22265625 -88.888671875 l 1
 222.22265625 -144.444335938 l 1
EndSplineSet
EndChar

StartChar: backslash
Encoding: 92 92 60
Width: 550
VWidth: 0
Flags: HW
LayerCount: 2
Back
Fore
SplineSet
111.111328125 577.77734375 m 1
 222.22265625 577.77734375 l 1
 222.22265625 633.333007812 l 1
 111.111328125 633.333007812 l 1
 111.111328125 577.77734375 l 1025
166.666992188 522.22265625 m 1
 222.22265625 522.22265625 l 1
 222.22265625 577.77734375 l 1
 166.666992188 577.77734375 l 1
 166.666992188 522.22265625 l 1025
166.666992188 466.666992188 m 1
 277.77734375 466.666992188 l 1
 277.77734375 522.22265625 l 1
 166.666992188 522.22265625 l 1
 166.666992188 466.666992188 l 1025
222.22265625 411.111328125 m 1
 277.77734375 411.111328125 l 1
 277.77734375 466.666992188 l 1
 222.22265625 466.666992188 l 1
 222.22265625 411.111328125 l 1025
222.22265625 355.555664062 m 1
 333.333007812 355.555664062 l 1
 333.333007812 411.111328125 l 1
 222.22265625 411.111328125 l 1
 222.22265625 355.555664062 l 1025
277.77734375 300 m 1
 333.333007812 300 l 1
 333.333007812 355.555664062 l 1
 277.77734375 355.555664062 l 1
 277.77734375 300 l 1025
277.77734375 244.444335938 m 1
 388.888671875 244.444335938 l 1
 388.888671875 300 l 1
 277.77734375 300 l 1
 277.77734375 244.444335938 l 1025
333.333007812 188.888671875 m 1
 388.888671875 188.888671875 l 1
 388.888671875 244.444335938 l 1
 333.333007812 244.444335938 l 1
 333.333007812 188.888671875 l 1025
333.333007812 133.333007812 m 1
 444.444335938 133.333007812 l 1
 444.444335938 188.888671875 l 1
 333.333007812 188.888671875 l 1
 333.333007812 133.333007812 l 1025
388.888671875 77.77734375 m 1
 444.444335938 77.77734375 l 1
 444.444335938 133.333007812 l 1
 388.888671875 133.333007812 l 1
 388.888671875 77.77734375 l 1025
388.888671875 22.22265625 m 1
 500 22.22265625 l 1
 500 77.77734375 l 1
 388.888671875 77.77734375 l 1
 388.888671875 22.22265625 l 1025
444.444335938 -33.3330078125 m 1
 500 -33.3330078125 l 1
 500 22.22265625 l 1
 444.444335938 22.22265625 l 1
 444.444335938 -33.3330078125 l 1025
444.444335938 -88.888671875 m 1
 555.555664062 -88.888671875 l 1
 555.555664062 -33.3330078125 l 1
 444.444335938 -33.3330078125 l 1
 444.444335938 -88.888671875 l 1
EndSplineSet
EndChar

StartChar: bracketright
Encoding: 93 93 61
Width: 550
VWidth: 0
Flags: HW
LayerCount: 2
Back
Fore
SplineSet
166.666992188 577.77734375 m 1
 388.888671875 577.77734375 l 1
 388.888671875 633.333007812 l 1
 166.666992188 633.333007812 l 1
 166.666992188 577.77734375 l 1025
277.77734375 522.22265625 m 1
 388.888671875 522.22265625 l 1
 388.888671875 577.77734375 l 1
 277.77734375 577.77734375 l 1
 277.77734375 522.22265625 l 1025
277.77734375 466.666992188 m 1
 388.888671875 466.666992188 l 1
 388.888671875 522.22265625 l 1
 277.77734375 522.22265625 l 1
 277.77734375 466.666992188 l 1025
277.77734375 411.111328125 m 1
 388.888671875 411.111328125 l 1
 388.888671875 466.666992188 l 1
 277.77734375 466.666992188 l 1
 277.77734375 411.111328125 l 1025
277.77734375 355.555664062 m 1
 388.888671875 355.555664062 l 1
 388.888671875 411.111328125 l 1
 277.77734375 411.111328125 l 1
 277.77734375 355.555664062 l 1025
277.77734375 300 m 1
 388.888671875 300 l 1
 388.888671875 355.555664062 l 1
 277.77734375 355.555664062 l 1
 277.77734375 300 l 1025
277.77734375 244.444335938 m 1
 388.888671875 244.444335938 l 1
 388.888671875 300 l 1
 277.77734375 300 l 1
 277.77734375 244.444335938 l 1025
277.77734375 188.888671875 m 1
 388.888671875 188.888671875 l 1
 388.888671875 244.444335938 l 1
 277.77734375 244.444335938 l 1
 277.77734375 188.888671875 l 1025
277.77734375 133.333007812 m 1
 388.888671875 133.333007812 l 1
 388.888671875 188.888671875 l 1
 277.77734375 188.888671875 l 1
 277.77734375 133.333007812 l 1025
277.77734375 77.77734375 m 1
 388.888671875 77.77734375 l 1
 388.888671875 133.333007812 l 1
 277.77734375 133.333007812 l 1
 277.77734375 77.77734375 l 1025
277.77734375 22.22265625 m 1
 388.888671875 22.22265625 l 1
 388.888671875 77.77734375 l 1
 277.77734375 77.77734375 l 1
 277.77734375 22.22265625 l 1025
277.77734375 -33.3330078125 m 1
 388.888671875 -33.3330078125 l 1
 388.888671875 22.22265625 l 1
 277.77734375 22.22265625 l 1
 277.77734375 -33.3330078125 l 1025
277.77734375 -88.888671875 m 1
 388.888671875 -88.888671875 l 1
 388.888671875 -33.3330078125 l 1
 277.77734375 -33.3330078125 l 1
 277.77734375 -88.888671875 l 1025
166.666992188 -144.444335938 m 1
 388.888671875 -144.444335938 l 1
 388.888671875 -88.888671875 l 1
 166.666992188 -88.888671875 l 1
 166.666992188 -144.444335938 l 1
EndSplineSet
EndChar

StartChar: asciicircum
Encoding: 94 94 62
Width: 550
VWidth: 0
Flags: HW
LayerCount: 2
Back
Fore
SplineSet
277.77734375 411.111328125 m 1
 333.333007812 411.111328125 l 1
 333.333007812 466.666992188 l 1
 277.77734375 466.666992188 l 1
 277.77734375 411.111328125 l 1025
222.22265625 355.555664062 m 1
 388.888671875 355.555664062 l 1
 388.888671875 411.111328125 l 1
 222.22265625 411.111328125 l 1
 222.22265625 355.555664062 l 1025
166.666992188 300 m 1
 277.77734375 300 l 1
 277.77734375 355.555664062 l 1
 166.666992188 355.555664062 l 1
 166.666992188 300 l 1025
333.333007812 300 m 1
 444.444335938 300 l 1
 444.444335938 355.555664062 l 1
 333.333007812 355.555664062 l 1
 333.333007812 300 l 1025
111.111328125 244.444335938 m 1
 222.22265625 244.444335938 l 1
 222.22265625 300 l 1
 111.111328125 300 l 1
 111.111328125 244.444335938 l 1025
388.888671875 244.444335938 m 1
 500 244.444335938 l 1
 500 300 l 1
 388.888671875 300 l 1
 388.888671875 244.444335938 l 1
EndSplineSet
EndChar

StartChar: underscore
Encoding: 95 95 63
Width: 550
VWidth: 0
Flags: HW
LayerCount: 2
Back
Fore
SplineSet
55.5556640625 22.22265625 m 1
 611.111328125 22.22265625 l 1
 611.111328125 77.77734375 l 1
 55.5556640625 77.77734375 l 1
 55.5556640625 22.22265625 l 1025
55.5556640625 -33.3330078125 m 1
 611.111328125 -33.3330078125 l 1
 611.111328125 22.22265625 l 1
 55.5556640625 22.22265625 l 1
 55.5556640625 -33.3330078125 l 1
EndSplineSet
EndChar

StartChar: quoteleft
Encoding: 96 8216 64
Width: 550
VWidth: 0
Flags: HW
LayerCount: 2
Back
Fore
SplineSet
166.666992188 633.333007812 m 1
 277.77734375 633.333007812 l 1
 277.77734375 688.888671875 l 1
 166.666992188 688.888671875 l 1
 166.666992188 633.333007812 l 1025
166.666992188 577.77734375 m 1
 333.333007812 577.77734375 l 1
 333.333007812 633.333007812 l 1
 166.666992188 633.333007812 l 1
 166.666992188 577.77734375 l 1025
277.77734375 522.22265625 m 1
 388.888671875 522.22265625 l 1
 388.888671875 577.77734375 l 1
 277.77734375 577.77734375 l 1
 277.77734375 522.22265625 l 1025
333.333007812 466.666992188 m 1
 444.444335938 466.666992188 l 1
 444.444335938 522.22265625 l 1
 333.333007812 522.22265625 l 1
 333.333007812 466.666992188 l 1025
444.444335938 411.111328125 m 1
 500 411.111328125 l 1
 500 466.666992188 l 1
 444.444335938 466.666992188 l 1
 444.444335938 411.111328125 l 1
EndSplineSet
EndChar

StartChar: a
Encoding: 97 97 65
Width: 550
VWidth: 0
Flags: HW
LayerCount: 2
Back
Fore
SplineSet
166.666992188 411.111328125 m 1
 444.444335938 411.111328125 l 1
 444.444335938 466.666992188 l 1
 166.666992188 466.666992188 l 1
 166.666992188 411.111328125 l 1025
111.111328125 355.555664062 m 1
 222.22265625 355.555664062 l 1
 222.22265625 411.111328125 l 1
 111.111328125 411.111328125 l 1
 111.111328125 355.555664062 l 1025
388.888671875 355.555664062 m 1
 500 355.555664062 l 1
 500 411.111328125 l 1
 388.888671875 411.111328125 l 1
 388.888671875 355.555664062 l 1025
388.888671875 300 m 1
 500 300 l 1
 500 355.555664062 l 1
 388.888671875 355.555664062 l 1
 388.888671875 300 l 1025
166.666992188 244.444335938 m 1
 500 244.444335938 l 1
 500 300 l 1
 166.666992188 300 l 1
 166.666992188 244.444335938 l 1025
111.111328125 188.888671875 m 1
 222.22265625 188.888671875 l 1
 222.22265625 244.444335938 l 1
 111.111328125 244.444335938 l 1
 111.111328125 188.888671875 l 1025
388.888671875 188.888671875 m 1
 500 188.888671875 l 1
 500 244.444335938 l 1
 388.888671875 244.444335938 l 1
 388.888671875 188.888671875 l 1025
55.5556640625 133.333007812 m 1
 166.666992188 133.333007812 l 1
 166.666992188 188.888671875 l 1
 55.5556640625 188.888671875 l 1
 55.5556640625 133.333007812 l 1025
388.888671875 133.333007812 m 1
 500 133.333007812 l 1
 500 188.888671875 l 1
 388.888671875 188.888671875 l 1
 388.888671875 133.333007812 l 1025
55.5556640625 77.77734375 m 1
 166.666992188 77.77734375 l 1
 166.666992188 133.333007812 l 1
 55.5556640625 133.333007812 l 1
 55.5556640625 77.77734375 l 1025
388.888671875 77.77734375 m 1
 500 77.77734375 l 1
 500 133.333007812 l 1
 388.888671875 133.333007812 l 1
 388.888671875 77.77734375 l 1025
55.5556640625 22.22265625 m 1
 222.22265625 22.22265625 l 1
 222.22265625 77.77734375 l 1
 55.5556640625 77.77734375 l 1
 55.5556640625 22.22265625 l 1025
333.333007812 22.22265625 m 1
 500 22.22265625 l 1
 500 77.77734375 l 1
 333.333007812 77.77734375 l 1
 333.333007812 22.22265625 l 1025
111.111328125 -33.3330078125 m 1
 333.333007812 -33.3330078125 l 1
 333.333007812 22.22265625 l 1
 111.111328125 22.22265625 l 1
 111.111328125 -33.3330078125 l 1025
388.888671875 -33.3330078125 m 1
 555.555664062 -33.3330078125 l 1
 555.555664062 22.22265625 l 1
 388.888671875 22.22265625 l 1
 388.888671875 -33.3330078125 l 1
EndSplineSet
EndChar

StartChar: b
Encoding: 98 98 66
Width: 550
VWidth: 0
Flags: HW
LayerCount: 2
Back
Fore
SplineSet
55.5556640625 577.77734375 m 1
 222.22265625 577.77734375 l 1
 222.22265625 633.333007812 l 1
 55.5556640625 633.333007812 l 1
 55.5556640625 577.77734375 l 1025
111.111328125 522.22265625 m 1
 222.22265625 522.22265625 l 1
 222.22265625 577.77734375 l 1
 111.111328125 577.77734375 l 1
 111.111328125 522.22265625 l 1025
111.111328125 466.666992188 m 1
 222.22265625 466.666992188 l 1
 222.22265625 522.22265625 l 1
 111.111328125 522.22265625 l 1
 111.111328125 466.666992188 l 1025
111.111328125 411.111328125 m 1
 222.22265625 411.111328125 l 1
 222.22265625 466.666992188 l 1
 111.111328125 466.666992188 l 1
 111.111328125 411.111328125 l 1025
277.77734375 411.111328125 m 1
 444.444335938 411.111328125 l 1
 444.444335938 466.666992188 l 1
 277.77734375 466.666992188 l 1
 277.77734375 411.111328125 l 1025
111.111328125 355.555664062 m 1
 277.77734375 355.555664062 l 1
 277.77734375 411.111328125 l 1
 111.111328125 411.111328125 l 1
 111.111328125 355.555664062 l 1025
388.888671875 355.555664062 m 1
 500 355.555664062 l 1
 500 411.111328125 l 1
 388.888671875 411.111328125 l 1
 388.888671875 355.555664062 l 1025
111.111328125 300 m 1
 222.22265625 300 l 1
 222.22265625 355.555664062 l 1
 111.111328125 355.555664062 l 1
 111.111328125 300 l 1025
444.444335938 300 m 1
 555.555664062 300 l 1
 555.555664062 355.555664062 l 1
 444.444335938 355.555664062 l 1
 444.444335938 300 l 1025
111.111328125 244.444335938 m 1
 222.22265625 244.444335938 l 1
 222.22265625 300 l 1
 111.111328125 300 l 1
 111.111328125 244.444335938 l 1025
444.444335938 244.444335938 m 1
 555.555664062 244.444335938 l 1
 555.555664062 300 l 1
 444.444335938 300 l 1
 444.444335938 244.444335938 l 1025
111.111328125 188.888671875 m 1
 222.22265625 188.888671875 l 1
 222.22265625 244.444335938 l 1
 111.111328125 244.444335938 l 1
 111.111328125 188.888671875 l 1025
444.444335938 188.888671875 m 1
 555.555664062 188.888671875 l 1
 555.555664062 244.444335938 l 1
 444.444335938 244.444335938 l 1
 444.444335938 188.888671875 l 1025
111.111328125 133.333007812 m 1
 222.22265625 133.333007812 l 1
 222.22265625 188.888671875 l 1
 111.111328125 188.888671875 l 1
 111.111328125 133.333007812 l 1025
444.444335938 133.333007812 m 1
 555.555664062 133.333007812 l 1
 555.555664062 188.888671875 l 1
 444.444335938 188.888671875 l 1
 444.444335938 133.333007812 l 1025
111.111328125 77.77734375 m 1
 222.22265625 77.77734375 l 1
 222.22265625 133.333007812 l 1
 111.111328125 133.333007812 l 1
 111.111328125 77.77734375 l 1025
444.444335938 77.77734375 m 1
 555.555664062 77.77734375 l 1
 555.555664062 133.333007812 l 1
 444.444335938 133.333007812 l 1
 444.444335938 77.77734375 l 1025
111.111328125 22.22265625 m 1
 277.77734375 22.22265625 l 1
 277.77734375 77.77734375 l 1
 111.111328125 77.77734375 l 1
 111.111328125 22.22265625 l 1025
388.888671875 22.22265625 m 1
 500 22.22265625 l 1
 500 77.77734375 l 1
 388.888671875 77.77734375 l 1
 388.888671875 22.22265625 l 1025
55.5556640625 -33.3330078125 m 1
 222.22265625 -33.3330078125 l 1
 222.22265625 22.22265625 l 1
 55.5556640625 22.22265625 l 1
 55.5556640625 -33.3330078125 l 1025
277.77734375 -33.3330078125 m 1
 444.444335938 -33.3330078125 l 1
 444.444335938 22.22265625 l 1
 277.77734375 22.22265625 l 1
 277.77734375 -33.3330078125 l 1
EndSplineSet
EndChar

StartChar: c
Encoding: 99 99 67
Width: 550
VWidth: 0
Flags: HW
LayerCount: 2
Back
Fore
SplineSet
222.22265625 411.111328125 m 1
 444.444335938 411.111328125 l 1
 444.444335938 466.666992188 l 1
 222.22265625 466.666992188 l 1
 222.22265625 411.111328125 l 1025
500 411.111328125 m 1
 555.555664062 411.111328125 l 1
 555.555664062 466.666992188 l 1
 500 466.666992188 l 1
 500 411.111328125 l 1025
166.666992188 355.555664062 m 1
 277.77734375 355.555664062 l 1
 277.77734375 411.111328125 l 1
 166.666992188 411.111328125 l 1
 166.666992188 355.555664062 l 1025
388.888671875 355.555664062 m 1
 555.555664062 355.555664062 l 1
 555.555664062 411.111328125 l 1
 388.888671875 411.111328125 l 1
 388.888671875 355.555664062 l 1025
111.111328125 300 m 1
 222.22265625 300 l 1
 222.22265625 355.555664062 l 1
 111.111328125 355.555664062 l 1
 111.111328125 300 l 1025
444.444335938 300 m 1
 555.555664062 300 l 1
 555.555664062 355.555664062 l 1
 444.444335938 355.555664062 l 1
 444.444335938 300 l 1025
111.111328125 244.444335938 m 1
 222.22265625 244.444335938 l 1
 222.22265625 300 l 1
 111.111328125 300 l 1
 111.111328125 244.444335938 l 1025
500 244.444335938 m 1
 555.555664062 244.444335938 l 1
 555.555664062 300 l 1
 500 300 l 1
 500 244.444335938 l 1025
111.111328125 188.888671875 m 1
 222.22265625 188.888671875 l 1
 222.22265625 244.444335938 l 1
 111.111328125 244.444335938 l 1
 111.111328125 188.888671875 l 1025
111.111328125 133.333007812 m 1
 222.22265625 133.333007812 l 1
 222.22265625 188.888671875 l 1
 111.111328125 188.888671875 l 1
 111.111328125 133.333007812 l 1025
111.111328125 77.77734375 m 1
 222.22265625 77.77734375 l 1
 222.22265625 133.333007812 l 1
 111.111328125 133.333007812 l 1
 111.111328125 77.77734375 l 1025
500 77.77734375 m 1
 555.555664062 77.77734375 l 1
 555.555664062 133.333007812 l 1
 500 133.333007812 l 1
 500 77.77734375 l 1025
166.666992188 22.22265625 m 1
 277.77734375 22.22265625 l 1
 277.77734375 77.77734375 l 1
 166.666992188 77.77734375 l 1
 166.666992188 22.22265625 l 1025
444.444335938 22.22265625 m 1
 555.555664062 22.22265625 l 1
 555.555664062 77.77734375 l 1
 444.444335938 77.77734375 l 1
 444.444335938 22.22265625 l 1025
222.22265625 -33.3330078125 m 1
 500 -33.3330078125 l 1
 500 22.22265625 l 1
 222.22265625 22.22265625 l 1
 222.22265625 -33.3330078125 l 1
EndSplineSet
EndChar

StartChar: d
Encoding: 100 100 68
Width: 550
VWidth: 0
Flags: HW
LayerCount: 2
Back
Fore
SplineSet
277.77734375 577.77734375 m 1
 500 577.77734375 l 1
 500 633.333007812 l 1
 277.77734375 633.333007812 l 1
 277.77734375 577.77734375 l 1025
388.888671875 522.22265625 m 1
 500 522.22265625 l 1
 500 577.77734375 l 1
 388.888671875 577.77734375 l 1
 388.888671875 522.22265625 l 1025
388.888671875 466.666992188 m 1
 500 466.666992188 l 1
 500 522.22265625 l 1
 388.888671875 522.22265625 l 1
 388.888671875 466.666992188 l 1025
166.666992188 411.111328125 m 1
 333.333007812 411.111328125 l 1
 333.333007812 466.666992188 l 1
 166.666992188 466.666992188 l 1
 166.666992188 411.111328125 l 1025
388.888671875 411.111328125 m 1
 500 411.111328125 l 1
 500 466.666992188 l 1
 388.888671875 466.666992188 l 1
 388.888671875 411.111328125 l 1025
111.111328125 355.555664062 m 1
 222.22265625 355.555664062 l 1
 222.22265625 411.111328125 l 1
 111.111328125 411.111328125 l 1
 111.111328125 355.555664062 l 1025
333.333007812 355.555664062 m 1
 500 355.555664062 l 1
 500 411.111328125 l 1
 333.333007812 411.111328125 l 1
 333.333007812 355.555664062 l 1025
55.5556640625 300 m 1
 166.666992188 300 l 1
 166.666992188 355.555664062 l 1
 55.5556640625 355.555664062 l 1
 55.5556640625 300 l 1025
388.888671875 300 m 1
 500 300 l 1
 500 355.555664062 l 1
 388.888671875 355.555664062 l 1
 388.888671875 300 l 1025
55.5556640625 244.444335938 m 1
 166.666992188 244.444335938 l 1
 166.666992188 300 l 1
 55.5556640625 300 l 1
 55.5556640625 244.444335938 l 1025
388.888671875 244.444335938 m 1
 500 244.444335938 l 1
 500 300 l 1
 388.888671875 300 l 1
 388.888671875 244.444335938 l 1025
55.5556640625 188.888671875 m 1
 166.666992188 188.888671875 l 1
 166.666992188 244.444335938 l 1
 55.5556640625 244.444335938 l 1
 55.5556640625 188.888671875 l 1025
388.888671875 188.888671875 m 1
 500 188.888671875 l 1
 500 244.444335938 l 1
 388.888671875 244.444335938 l 1
 388.888671875 188.888671875 l 1025
55.5556640625 133.333007812 m 1
 166.666992188 133.333007812 l 1
 166.666992188 188.888671875 l 1
 55.5556640625 188.888671875 l 1
 55.5556640625 133.333007812 l 1025
388.888671875 133.333007812 m 1
 500 133.333007812 l 1
 500 188.888671875 l 1
 388.888671875 188.888671875 l 1
 388.888671875 133.333007812 l 1025
55.5556640625 77.77734375 m 1
 166.666992188 77.77734375 l 1
 166.666992188 133.333007812 l 1
 55.5556640625 133.333007812 l 1
 55.5556640625 77.77734375 l 1025
388.888671875 77.77734375 m 1
 500 77.77734375 l 1
 500 133.333007812 l 1
 388.888671875 133.333007812 l 1
 388.888671875 77.77734375 l 1025
111.111328125 22.22265625 m 1
 222.22265625 22.22265625 l 1
 222.22265625 77.77734375 l 1
 111.111328125 77.77734375 l 1
 111.111328125 22.22265625 l 1025
333.333007812 22.22265625 m 1
 500 22.22265625 l 1
 500 77.77734375 l 1
 333.333007812 77.77734375 l 1
 333.333007812 22.22265625 l 1025
166.666992188 -33.3330078125 m 1
 333.333007812 -33.3330078125 l 1
 333.333007812 22.22265625 l 1
 166.666992188 22.22265625 l 1
 166.666992188 -33.3330078125 l 1025
388.888671875 -33.3330078125 m 1
 555.555664062 -33.3330078125 l 1
 555.555664062 22.22265625 l 1
 388.888671875 22.22265625 l 1
 388.888671875 -33.3330078125 l 1
EndSplineSet
EndChar

StartChar: e
Encoding: 101 101 69
Width: 550
VWidth: 0
Flags: HW
LayerCount: 2
Back
Fore
SplineSet
166.666992188 411.111328125 m 1
 444.444335938 411.111328125 l 1
 444.444335938 466.666992188 l 1
 166.666992188 466.666992188 l 1
 166.666992188 411.111328125 l 1025
111.111328125 355.555664062 m 1
 222.22265625 355.555664062 l 1
 222.22265625 411.111328125 l 1
 111.111328125 411.111328125 l 1
 111.111328125 355.555664062 l 1025
388.888671875 355.555664062 m 1
 500 355.555664062 l 1
 500 411.111328125 l 1
 388.888671875 411.111328125 l 1
 388.888671875 355.555664062 l 1025
55.5556640625 300 m 1
 166.666992188 300 l 1
 166.666992188 355.555664062 l 1
 55.5556640625 355.555664062 l 1
 55.5556640625 300 l 1025
444.444335938 300 m 1
 555.555664062 300 l 1
 555.555664062 355.555664062 l 1
 444.444335938 355.555664062 l 1
 444.444335938 300 l 1025
55.5556640625 244.444335938 m 1
 166.666992188 244.444335938 l 1
 166.666992188 300 l 1
 55.5556640625 300 l 1
 55.5556640625 244.444335938 l 1025
444.444335938 244.444335938 m 1
 555.555664062 244.444335938 l 1
 555.555664062 300 l 1
 444.444335938 300 l 1
 444.444335938 244.444335938 l 1025
55.5556640625 188.888671875 m 1
 555.555664062 188.888671875 l 1
 555.555664062 244.444335938 l 1
 55.5556640625 244.444335938 l 1
 55.5556640625 188.888671875 l 1025
55.5556640625 133.333007812 m 1
 166.666992188 133.333007812 l 1
 166.666992188 188.888671875 l 1
 55.5556640625 188.888671875 l 1
 55.5556640625 133.333007812 l 1025
55.5556640625 77.77734375 m 1
 166.666992188 77.77734375 l 1
 166.666992188 133.333007812 l 1
 55.5556640625 133.333007812 l 1
 55.5556640625 77.77734375 l 1025
111.111328125 22.22265625 m 1
 222.22265625 22.22265625 l 1
 222.22265625 77.77734375 l 1
 111.111328125 77.77734375 l 1
 111.111328125 22.22265625 l 1025
444.444335938 22.22265625 m 1
 555.555664062 22.22265625 l 1
 555.555664062 77.77734375 l 1
 444.444335938 77.77734375 l 1
 444.444335938 22.22265625 l 1025
166.666992188 -33.3330078125 m 1
 444.444335938 -33.3330078125 l 1
 444.444335938 22.22265625 l 1
 166.666992188 22.22265625 l 1
 166.666992188 -33.3330078125 l 1
EndSplineSet
EndChar

StartChar: f
Encoding: 102 102 70
Width: 550
VWidth: 0
Flags: HW
LayerCount: 2
Back
Fore
SplineSet
222.22265625 577.77734375 m 1
 555.555664062 577.77734375 l 1
 555.555664062 633.333007812 l 1
 222.22265625 633.333007812 l 1
 222.22265625 577.77734375 l 1025
166.666992188 522.22265625 m 1
 277.77734375 522.22265625 l 1
 277.77734375 577.77734375 l 1
 166.666992188 577.77734375 l 1
 166.666992188 522.22265625 l 1025
166.666992188 466.666992188 m 1
 277.77734375 466.666992188 l 1
 277.77734375 522.22265625 l 1
 166.666992188 522.22265625 l 1
 166.666992188 466.666992188 l 1025
55.5556640625 411.111328125 m 1
 500 411.111328125 l 1
 500 466.666992188 l 1
 55.5556640625 466.666992188 l 1
 55.5556640625 411.111328125 l 1025
166.666992188 355.555664062 m 1
 277.77734375 355.555664062 l 1
 277.77734375 411.111328125 l 1
 166.666992188 411.111328125 l 1
 166.666992188 355.555664062 l 1025
166.666992188 300 m 1
 277.77734375 300 l 1
 277.77734375 355.555664062 l 1
 166.666992188 355.555664062 l 1
 166.666992188 300 l 1025
166.666992188 244.444335938 m 1
 277.77734375 244.444335938 l 1
 277.77734375 300 l 1
 166.666992188 300 l 1
 166.666992188 244.444335938 l 1025
166.666992188 188.888671875 m 1
 277.77734375 188.888671875 l 1
 277.77734375 244.444335938 l 1
 166.666992188 244.444335938 l 1
 166.666992188 188.888671875 l 1025
166.666992188 133.333007812 m 1
 277.77734375 133.333007812 l 1
 277.77734375 188.888671875 l 1
 166.666992188 188.888671875 l 1
 166.666992188 133.333007812 l 1025
166.666992188 77.77734375 m 1
 277.77734375 77.77734375 l 1
 277.77734375 133.333007812 l 1
 166.666992188 133.333007812 l 1
 166.666992188 77.77734375 l 1025
166.666992188 22.22265625 m 1
 277.77734375 22.22265625 l 1
 277.77734375 77.77734375 l 1
 166.666992188 77.77734375 l 1
 166.666992188 22.22265625 l 1025
55.5556640625 -33.3330078125 m 1
 444.444335938 -33.3330078125 l 1
 444.444335938 22.22265625 l 1
 55.5556640625 22.22265625 l 1
 55.5556640625 -33.3330078125 l 1
EndSplineSet
EndChar

StartChar: g
Encoding: 103 103 71
Width: 550
VWidth: 0
Flags: HW
LayerCount: 2
Back
Fore
SplineSet
166.666992188 411.111328125 m 1
 333.333007812 411.111328125 l 1
 333.333007812 466.666992188 l 1
 166.666992188 466.666992188 l 1
 166.666992188 411.111328125 l 1025
388.888671875 411.111328125 m 1
 555.555664062 411.111328125 l 1
 555.555664062 466.666992188 l 1
 388.888671875 466.666992188 l 1
 388.888671875 411.111328125 l 1025
111.111328125 355.555664062 m 1
 222.22265625 355.555664062 l 1
 222.22265625 411.111328125 l 1
 111.111328125 411.111328125 l 1
 111.111328125 355.555664062 l 1025
333.333007812 355.555664062 m 1
 500 355.555664062 l 1
 500 411.111328125 l 1
 333.333007812 411.111328125 l 1
 333.333007812 355.555664062 l 1025
55.5556640625 300 m 1
 166.666992188 300 l 1
 166.666992188 355.555664062 l 1
 55.5556640625 355.555664062 l 1
 55.5556640625 300 l 1025
388.888671875 300 m 1
 500 300 l 1
 500 355.555664062 l 1
 388.888671875 355.555664062 l 1
 388.888671875 300 l 1025
55.5556640625 244.444335938 m 1
 166.666992188 244.444335938 l 1
 166.666992188 300 l 1
 55.5556640625 300 l 1
 55.5556640625 244.444335938 l 1025
388.888671875 244.444335938 m 1
 500 244.444335938 l 1
 500 300 l 1
 388.888671875 300 l 1
 388.888671875 244.444335938 l 1025
55.5556640625 188.888671875 m 1
 166.666992188 188.888671875 l 1
 166.666992188 244.444335938 l 1
 55.5556640625 244.444335938 l 1
 55.5556640625 188.888671875 l 1025
388.888671875 188.888671875 m 1
 500 188.888671875 l 1
 500 244.444335938 l 1
 388.888671875 244.444335938 l 1
 388.888671875 188.888671875 l 1025
55.5556640625 133.333007812 m 1
 166.666992188 133.333007812 l 1
 166.666992188 188.888671875 l 1
 55.5556640625 188.888671875 l 1
 55.5556640625 133.333007812 l 1025
388.888671875 133.333007812 m 1
 500 133.333007812 l 1
 500 188.888671875 l 1
 388.888671875 188.888671875 l 1
 388.888671875 133.333007812 l 1025
55.5556640625 77.77734375 m 1
 166.666992188 77.77734375 l 1
 166.666992188 133.333007812 l 1
 55.5556640625 133.333007812 l 1
 55.5556640625 77.77734375 l 1025
388.888671875 77.77734375 m 1
 500 77.77734375 l 1
 500 133.333007812 l 1
 388.888671875 133.333007812 l 1
 388.888671875 77.77734375 l 1025
111.111328125 22.22265625 m 1
 222.22265625 22.22265625 l 1
 222.22265625 77.77734375 l 1
 111.111328125 77.77734375 l 1
 111.111328125 22.22265625 l 1025
333.333007812 22.22265625 m 1
 500 22.22265625 l 1
 500 77.77734375 l 1
 333.333007812 77.77734375 l 1
 333.333007812 22.22265625 l 1025
166.666992188 -33.3330078125 m 1
 333.333007812 -33.3330078125 l 1
 333.333007812 22.22265625 l 1
 166.666992188 22.22265625 l 1
 166.666992188 -33.3330078125 l 1025
388.888671875 -33.3330078125 m 1
 500 -33.3330078125 l 1
 500 22.22265625 l 1
 388.888671875 22.22265625 l 1
 388.888671875 -33.3330078125 l 1025
388.888671875 -88.888671875 m 1
 500 -88.888671875 l 1
 500 -33.3330078125 l 1
 388.888671875 -33.3330078125 l 1
 388.888671875 -88.888671875 l 1025
388.888671875 -144.444335938 m 1
 500 -144.444335938 l 1
 500 -88.888671875 l 1
 388.888671875 -88.888671875 l 1
 388.888671875 -144.444335938 l 1025
111.111328125 -200 m 1
 444.444335938 -200 l 1
 444.444335938 -144.444335938 l 1
 111.111328125 -144.444335938 l 1
 111.111328125 -200 l 1
EndSplineSet
EndChar

StartChar: h
Encoding: 104 104 72
Width: 550
VWidth: 0
Flags: HW
LayerCount: 2
Back
Fore
SplineSet
55.5556640625 577.77734375 m 1
 222.22265625 577.77734375 l 1
 222.22265625 633.333007812 l 1
 55.5556640625 633.333007812 l 1
 55.5556640625 577.77734375 l 1025
111.111328125 522.22265625 m 1
 222.22265625 522.22265625 l 1
 222.22265625 577.77734375 l 1
 111.111328125 577.77734375 l 1
 111.111328125 522.22265625 l 1025
111.111328125 466.666992188 m 1
 222.22265625 466.666992188 l 1
 222.22265625 522.22265625 l 1
 111.111328125 522.22265625 l 1
 111.111328125 466.666992188 l 1025
111.111328125 411.111328125 m 1
 222.22265625 411.111328125 l 1
 222.22265625 466.666992188 l 1
 111.111328125 466.666992188 l 1
 111.111328125 411.111328125 l 1025
277.77734375 411.111328125 m 1
 444.444335938 411.111328125 l 1
 444.444335938 466.666992188 l 1
 277.77734375 466.666992188 l 1
 277.77734375 411.111328125 l 1025
111.111328125 355.555664062 m 1
 277.77734375 355.555664062 l 1
 277.77734375 411.111328125 l 1
 111.111328125 411.111328125 l 1
 111.111328125 355.555664062 l 1025
388.888671875 355.555664062 m 1
 500 355.555664062 l 1
 500 411.111328125 l 1
 388.888671875 411.111328125 l 1
 388.888671875 355.555664062 l 1025
111.111328125 300 m 1
 222.22265625 300 l 1
 222.22265625 355.555664062 l 1
 111.111328125 355.555664062 l 1
 111.111328125 300 l 1025
388.888671875 300 m 1
 500 300 l 1
 500 355.555664062 l 1
 388.888671875 355.555664062 l 1
 388.888671875 300 l 1025
111.111328125 244.444335938 m 1
 222.22265625 244.444335938 l 1
 222.22265625 300 l 1
 111.111328125 300 l 1
 111.111328125 244.444335938 l 1025
388.888671875 244.444335938 m 1
 500 244.444335938 l 1
 500 300 l 1
 388.888671875 300 l 1
 388.888671875 244.444335938 l 1025
111.111328125 188.888671875 m 1
 222.22265625 188.888671875 l 1
 222.22265625 244.444335938 l 1
 111.111328125 244.444335938 l 1
 111.111328125 188.888671875 l 1025
388.888671875 188.888671875 m 1
 500 188.888671875 l 1
 500 244.444335938 l 1
 388.888671875 244.444335938 l 1
 388.888671875 188.888671875 l 1025
111.111328125 133.333007812 m 1
 222.22265625 133.333007812 l 1
 222.22265625 188.888671875 l 1
 111.111328125 188.888671875 l 1
 111.111328125 133.333007812 l 1025
388.888671875 133.333007812 m 1
 500 133.333007812 l 1
 500 188.888671875 l 1
 388.888671875 188.888671875 l 1
 388.888671875 133.333007812 l 1025
111.111328125 77.77734375 m 1
 222.22265625 77.77734375 l 1
 222.22265625 133.333007812 l 1
 111.111328125 133.333007812 l 1
 111.111328125 77.77734375 l 1025
388.888671875 77.77734375 m 1
 500 77.77734375 l 1
 500 133.333007812 l 1
 388.888671875 133.333007812 l 1
 388.888671875 77.77734375 l 1025
111.111328125 22.22265625 m 1
 222.22265625 22.22265625 l 1
 222.22265625 77.77734375 l 1
 111.111328125 77.77734375 l 1
 111.111328125 22.22265625 l 1025
388.888671875 22.22265625 m 1
 500 22.22265625 l 1
 500 77.77734375 l 1
 388.888671875 77.77734375 l 1
 388.888671875 22.22265625 l 1025
55.5556640625 -33.3330078125 m 1
 277.77734375 -33.3330078125 l 1
 277.77734375 22.22265625 l 1
 55.5556640625 22.22265625 l 1
 55.5556640625 -33.3330078125 l 1025
333.333007812 -33.3330078125 m 1
 555.555664062 -33.3330078125 l 1
 555.555664062 22.22265625 l 1
 333.333007812 22.22265625 l 1
 333.333007812 -33.3330078125 l 1
EndSplineSet
EndChar

StartChar: i
Encoding: 105 105 73
Width: 550
VWidth: 0
Flags: HW
LayerCount: 2
Back
Fore
SplineSet
277.77734375 633.333007812 m 1
 388.888671875 633.333007812 l 1
 388.888671875 688.888671875 l 1
 277.77734375 688.888671875 l 1
 277.77734375 633.333007812 l 1025
277.77734375 577.77734375 m 1
 388.888671875 577.77734375 l 1
 388.888671875 633.333007812 l 1
 277.77734375 633.333007812 l 1
 277.77734375 577.77734375 l 1025
166.666992188 411.111328125 m 1
 388.888671875 411.111328125 l 1
 388.888671875 466.666992188 l 1
 166.666992188 466.666992188 l 1
 166.666992188 411.111328125 l 1025
277.77734375 355.555664062 m 1
 388.888671875 355.555664062 l 1
 388.888671875 411.111328125 l 1
 277.77734375 411.111328125 l 1
 277.77734375 355.555664062 l 1025
277.77734375 300 m 1
 388.888671875 300 l 1
 388.888671875 355.555664062 l 1
 277.77734375 355.555664062 l 1
 277.77734375 300 l 1025
277.77734375 244.444335938 m 1
 388.888671875 244.444335938 l 1
 388.888671875 300 l 1
 277.77734375 300 l 1
 277.77734375 244.444335938 l 1025
277.77734375 188.888671875 m 1
 388.888671875 188.888671875 l 1
 388.888671875 244.444335938 l 1
 277.77734375 244.444335938 l 1
 277.77734375 188.888671875 l 1025
277.77734375 133.333007812 m 1
 388.888671875 133.333007812 l 1
 388.888671875 188.888671875 l 1
 277.77734375 188.888671875 l 1
 277.77734375 133.333007812 l 1025
277.77734375 77.77734375 m 1
 388.888671875 77.77734375 l 1
 388.888671875 133.333007812 l 1
 277.77734375 133.333007812 l 1
 277.77734375 77.77734375 l 1025
277.77734375 22.22265625 m 1
 388.888671875 22.22265625 l 1
 388.888671875 77.77734375 l 1
 277.77734375 77.77734375 l 1
 277.77734375 22.22265625 l 1025
111.111328125 -33.3330078125 m 1
 555.555664062 -33.3330078125 l 1
 555.555664062 22.22265625 l 1
 111.111328125 22.22265625 l 1
 111.111328125 -33.3330078125 l 1
EndSplineSet
EndChar

StartChar: j
Encoding: 106 106 74
Width: 550
VWidth: 0
Flags: HW
LayerCount: 2
Back
Fore
SplineSet
388.888671875 633.333007812 m 1
 500 633.333007812 l 1
 500 688.888671875 l 1
 388.888671875 688.888671875 l 1
 388.888671875 633.333007812 l 1025
388.888671875 577.77734375 m 1
 500 577.77734375 l 1
 500 633.333007812 l 1
 388.888671875 633.333007812 l 1
 388.888671875 577.77734375 l 1025
166.666992188 411.111328125 m 1
 500 411.111328125 l 1
 500 466.666992188 l 1
 166.666992188 466.666992188 l 1
 166.666992188 411.111328125 l 1025
388.888671875 355.555664062 m 1
 500 355.555664062 l 1
 500 411.111328125 l 1
 388.888671875 411.111328125 l 1
 388.888671875 355.555664062 l 1025
388.888671875 300 m 1
 500 300 l 1
 500 355.555664062 l 1
 388.888671875 355.555664062 l 1
 388.888671875 300 l 1025
388.888671875 244.444335938 m 1
 500 244.444335938 l 1
 500 300 l 1
 388.888671875 300 l 1
 388.888671875 244.444335938 l 1025
388.888671875 188.888671875 m 1
 500 188.888671875 l 1
 500 244.444335938 l 1
 388.888671875 244.444335938 l 1
 388.888671875 188.888671875 l 1025
388.888671875 133.333007812 m 1
 500 133.333007812 l 1
 500 188.888671875 l 1
 388.888671875 188.888671875 l 1
 388.888671875 133.333007812 l 1025
388.888671875 77.77734375 m 1
 500 77.77734375 l 1
 500 133.333007812 l 1
 388.888671875 133.333007812 l 1
 388.888671875 77.77734375 l 1025
388.888671875 22.22265625 m 1
 500 22.22265625 l 1
 500 77.77734375 l 1
 388.888671875 77.77734375 l 1
 388.888671875 22.22265625 l 1025
388.888671875 -33.3330078125 m 1
 500 -33.3330078125 l 1
 500 22.22265625 l 1
 388.888671875 22.22265625 l 1
 388.888671875 -33.3330078125 l 1025
388.888671875 -88.888671875 m 1
 500 -88.888671875 l 1
 500 -33.3330078125 l 1
 388.888671875 -33.3330078125 l 1
 388.888671875 -88.888671875 l 1025
388.888671875 -144.444335938 m 1
 500 -144.444335938 l 1
 500 -88.888671875 l 1
 388.888671875 -88.888671875 l 1
 388.888671875 -144.444335938 l 1025
166.666992188 -200 m 1
 444.444335938 -200 l 1
 444.444335938 -144.444335938 l 1
 166.666992188 -144.444335938 l 1
 166.666992188 -200 l 1
EndSplineSet
EndChar

StartChar: k
Encoding: 107 107 75
Width: 550
VWidth: 0
Flags: HW
LayerCount: 2
Back
Fore
SplineSet
55.5556640625 577.77734375 m 1
 222.22265625 577.77734375 l 1
 222.22265625 633.333007812 l 1
 55.5556640625 633.333007812 l 1
 55.5556640625 577.77734375 l 1025
111.111328125 522.22265625 m 1
 222.22265625 522.22265625 l 1
 222.22265625 577.77734375 l 1
 111.111328125 577.77734375 l 1
 111.111328125 522.22265625 l 1025
111.111328125 466.666992188 m 1
 222.22265625 466.666992188 l 1
 222.22265625 522.22265625 l 1
 111.111328125 522.22265625 l 1
 111.111328125 466.666992188 l 1025
111.111328125 411.111328125 m 1
 222.22265625 411.111328125 l 1
 222.22265625 466.666992188 l 1
 111.111328125 466.666992188 l 1
 111.111328125 411.111328125 l 1025
333.333007812 411.111328125 m 1
 555.555664062 411.111328125 l 1
 555.555664062 466.666992188 l 1
 333.333007812 466.666992188 l 1
 333.333007812 411.111328125 l 1025
111.111328125 355.555664062 m 1
 222.22265625 355.555664062 l 1
 222.22265625 411.111328125 l 1
 111.111328125 411.111328125 l 1
 111.111328125 355.555664062 l 1025
333.333007812 355.555664062 m 1
 444.444335938 355.555664062 l 1
 444.444335938 411.111328125 l 1
 333.333007812 411.111328125 l 1
 333.333007812 355.555664062 l 1025
111.111328125 300 m 1
 222.22265625 300 l 1
 222.22265625 355.555664062 l 1
 111.111328125 355.555664062 l 1
 111.111328125 300 l 1025
277.77734375 300 m 1
 388.888671875 300 l 1
 388.888671875 355.555664062 l 1
 277.77734375 355.555664062 l 1
 277.77734375 300 l 1025
111.111328125 244.444335938 m 1
 333.333007812 244.444335938 l 1
 333.333007812 300 l 1
 111.111328125 300 l 1
 111.111328125 244.444335938 l 1025
111.111328125 188.888671875 m 1
 333.333007812 188.888671875 l 1
 333.333007812 244.444335938 l 1
 111.111328125 244.444335938 l 1
 111.111328125 188.888671875 l 1025
111.111328125 133.333007812 m 1
 222.22265625 133.333007812 l 1
 222.22265625 188.888671875 l 1
 111.111328125 188.888671875 l 1
 111.111328125 133.333007812 l 1025
277.77734375 133.333007812 m 1
 388.888671875 133.333007812 l 1
 388.888671875 188.888671875 l 1
 277.77734375 188.888671875 l 1
 277.77734375 133.333007812 l 1025
111.111328125 77.77734375 m 1
 222.22265625 77.77734375 l 1
 222.22265625 133.333007812 l 1
 111.111328125 133.333007812 l 1
 111.111328125 77.77734375 l 1025
333.333007812 77.77734375 m 1
 444.444335938 77.77734375 l 1
 444.444335938 133.333007812 l 1
 333.333007812 133.333007812 l 1
 333.333007812 77.77734375 l 1025
111.111328125 22.22265625 m 1
 222.22265625 22.22265625 l 1
 222.22265625 77.77734375 l 1
 111.111328125 77.77734375 l 1
 111.111328125 22.22265625 l 1025
388.888671875 22.22265625 m 1
 500 22.22265625 l 1
 500 77.77734375 l 1
 388.888671875 77.77734375 l 1
 388.888671875 22.22265625 l 1025
55.5556640625 -33.3330078125 m 1
 222.22265625 -33.3330078125 l 1
 222.22265625 22.22265625 l 1
 55.5556640625 22.22265625 l 1
 55.5556640625 -33.3330078125 l 1025
333.333007812 -33.3330078125 m 1
 555.555664062 -33.3330078125 l 1
 555.555664062 22.22265625 l 1
 333.333007812 22.22265625 l 1
 333.333007812 -33.3330078125 l 1
EndSplineSet
EndChar

StartChar: l
Encoding: 108 108 76
Width: 550
VWidth: 0
Flags: HW
LayerCount: 2
Back
Fore
SplineSet
55.5556640625 577.77734375 m 1
 333.333007812 577.77734375 l 1
 333.333007812 633.333007812 l 1
 55.5556640625 633.333007812 l 1
 55.5556640625 577.77734375 l 1025
222.22265625 522.22265625 m 1
 333.333007812 522.22265625 l 1
 333.333007812 577.77734375 l 1
 222.22265625 577.77734375 l 1
 222.22265625 522.22265625 l 1025
222.22265625 466.666992188 m 1
 333.333007812 466.666992188 l 1
 333.333007812 522.22265625 l 1
 222.22265625 522.22265625 l 1
 222.22265625 466.666992188 l 1025
222.22265625 411.111328125 m 1
 333.333007812 411.111328125 l 1
 333.333007812 466.666992188 l 1
 222.22265625 466.666992188 l 1
 222.22265625 411.111328125 l 1025
222.22265625 355.555664062 m 1
 333.333007812 355.555664062 l 1
 333.333007812 411.111328125 l 1
 222.22265625 411.111328125 l 1
 222.22265625 355.555664062 l 1025
222.22265625 300 m 1
 333.333007812 300 l 1
 333.333007812 355.555664062 l 1
 222.22265625 355.555664062 l 1
 222.22265625 300 l 1025
222.22265625 244.444335938 m 1
 333.333007812 244.444335938 l 1
 333.333007812 300 l 1
 222.22265625 300 l 1
 222.22265625 244.444335938 l 1025
222.22265625 188.888671875 m 1
 333.333007812 188.888671875 l 1
 333.333007812 244.444335938 l 1
 222.22265625 244.444335938 l 1
 222.22265625 188.888671875 l 1025
222.22265625 133.333007812 m 1
 333.333007812 133.333007812 l 1
 333.333007812 188.888671875 l 1
 222.22265625 188.888671875 l 1
 222.22265625 133.333007812 l 1025
222.22265625 77.77734375 m 1
 333.333007812 77.77734375 l 1
 333.333007812 133.333007812 l 1
 222.22265625 133.333007812 l 1
 222.22265625 77.77734375 l 1025
222.22265625 22.22265625 m 1
 333.333007812 22.22265625 l 1
 333.333007812 77.77734375 l 1
 222.22265625 77.77734375 l 1
 222.22265625 22.22265625 l 1025
55.5556640625 -33.3330078125 m 1
 500 -33.3330078125 l 1
 500 22.22265625 l 1
 55.5556640625 22.22265625 l 1
 55.5556640625 -33.3330078125 l 1
EndSplineSet
EndChar

StartChar: m
Encoding: 109 109 77
Width: 550
VWidth: 0
Flags: HW
LayerCount: 2
Back
Fore
SplineSet
55.5556640625 411.111328125 m 1
 111.111328125 411.111328125 l 1
 111.111328125 466.666992188 l 1
 55.5556640625 466.666992188 l 1
 55.5556640625 411.111328125 l 1025
166.666992188 411.111328125 m 1
 333.333007812 411.111328125 l 1
 333.333007812 466.666992188 l 1
 166.666992188 466.666992188 l 1
 166.666992188 411.111328125 l 1025
388.888671875 411.111328125 m 1
 555.555664062 411.111328125 l 1
 555.555664062 466.666992188 l 1
 388.888671875 466.666992188 l 1
 388.888671875 411.111328125 l 1025
55.5556640625 355.555664062 m 1
 166.666992188 355.555664062 l 1
 166.666992188 411.111328125 l 1
 55.5556640625 411.111328125 l 1
 55.5556640625 355.555664062 l 1025
277.77734375 355.555664062 m 1
 388.888671875 355.555664062 l 1
 388.888671875 411.111328125 l 1
 277.77734375 411.111328125 l 1
 277.77734375 355.555664062 l 1025
500 355.555664062 m 1
 611.111328125 355.555664062 l 1
 611.111328125 411.111328125 l 1
 500 411.111328125 l 1
 500 355.555664062 l 1025
55.5556640625 300 m 1
 166.666992188 300 l 1
 166.666992188 355.555664062 l 1
 55.5556640625 355.555664062 l 1
 55.5556640625 300 l 1025
277.77734375 300 m 1
 388.888671875 300 l 1
 388.888671875 355.555664062 l 1
 277.77734375 355.555664062 l 1
 277.77734375 300 l 1025
500 300 m 1
 611.111328125 300 l 1
 611.111328125 355.555664062 l 1
 500 355.555664062 l 1
 500 300 l 1025
55.5556640625 244.444335938 m 1
 166.666992188 244.444335938 l 1
 166.666992188 300 l 1
 55.5556640625 300 l 1
 55.5556640625 244.444335938 l 1025
277.77734375 244.444335938 m 1
 388.888671875 244.444335938 l 1
 388.888671875 300 l 1
 277.77734375 300 l 1
 277.77734375 244.444335938 l 1025
500 244.444335938 m 1
 611.111328125 244.444335938 l 1
 611.111328125 300 l 1
 500 300 l 1
 500 244.444335938 l 1025
55.5556640625 188.888671875 m 1
 166.666992188 188.888671875 l 1
 166.666992188 244.444335938 l 1
 55.5556640625 244.444335938 l 1
 55.5556640625 188.888671875 l 1025
277.77734375 188.888671875 m 1
 388.888671875 188.888671875 l 1
 388.888671875 244.444335938 l 1
 277.77734375 244.444335938 l 1
 277.77734375 188.888671875 l 1025
500 188.888671875 m 1
 611.111328125 188.888671875 l 1
 611.111328125 244.444335938 l 1
 500 244.444335938 l 1
 500 188.888671875 l 1025
55.5556640625 133.333007812 m 1
 166.666992188 133.333007812 l 1
 166.666992188 188.888671875 l 1
 55.5556640625 188.888671875 l 1
 55.5556640625 133.333007812 l 1025
277.77734375 133.333007812 m 1
 388.888671875 133.333007812 l 1
 388.888671875 188.888671875 l 1
 277.77734375 188.888671875 l 1
 277.77734375 133.333007812 l 1025
500 133.333007812 m 1
 611.111328125 133.333007812 l 1
 611.111328125 188.888671875 l 1
 500 188.888671875 l 1
 500 133.333007812 l 1025
55.5556640625 77.77734375 m 1
 166.666992188 77.77734375 l 1
 166.666992188 133.333007812 l 1
 55.5556640625 133.333007812 l 1
 55.5556640625 77.77734375 l 1025
277.77734375 77.77734375 m 1
 388.888671875 77.77734375 l 1
 388.888671875 133.333007812 l 1
 277.77734375 133.333007812 l 1
 277.77734375 77.77734375 l 1025
500 77.77734375 m 1
 611.111328125 77.77734375 l 1
 611.111328125 133.333007812 l 1
 500 133.333007812 l 1
 500 77.77734375 l 1025
55.5556640625 22.22265625 m 1
 166.666992188 22.22265625 l 1
 166.666992188 77.77734375 l 1
 55.5556640625 77.77734375 l 1
 55.5556640625 22.22265625 l 1025
277.77734375 22.22265625 m 1
 388.888671875 22.22265625 l 1
 388.888671875 77.77734375 l 1
 277.77734375 77.77734375 l 1
 277.77734375 22.22265625 l 1025
500 22.22265625 m 1
 611.111328125 22.22265625 l 1
 611.111328125 77.77734375 l 1
 500 77.77734375 l 1
 500 22.22265625 l 1025
55.5556640625 -33.3330078125 m 1
 166.666992188 -33.3330078125 l 1
 166.666992188 22.22265625 l 1
 55.5556640625 22.22265625 l 1
 55.5556640625 -33.3330078125 l 1025
277.77734375 -33.3330078125 m 1
 388.888671875 -33.3330078125 l 1
 388.888671875 22.22265625 l 1
 277.77734375 22.22265625 l 1
 277.77734375 -33.3330078125 l 1025
500 -33.3330078125 m 1
 611.111328125 -33.3330078125 l 1
 611.111328125 22.22265625 l 1
 500 22.22265625 l 1
 500 -33.3330078125 l 1
EndSplineSet
EndChar

StartChar: n
Encoding: 110 110 78
Width: 550
VWidth: 0
Flags: HW
LayerCount: 2
Back
Fore
SplineSet
55.5556640625 411.111328125 m 1
 222.22265625 411.111328125 l 1
 222.22265625 466.666992188 l 1
 55.5556640625 466.666992188 l 1
 55.5556640625 411.111328125 l 1025
277.77734375 411.111328125 m 1
 444.444335938 411.111328125 l 1
 444.444335938 466.666992188 l 1
 277.77734375 466.666992188 l 1
 277.77734375 411.111328125 l 1025
111.111328125 355.555664062 m 1
 277.77734375 355.555664062 l 1
 277.77734375 411.111328125 l 1
 111.111328125 411.111328125 l 1
 111.111328125 355.555664062 l 1025
388.888671875 355.555664062 m 1
 500 355.555664062 l 1
 500 411.111328125 l 1
 388.888671875 411.111328125 l 1
 388.888671875 355.555664062 l 1025
111.111328125 300 m 1
 222.22265625 300 l 1
 222.22265625 355.555664062 l 1
 111.111328125 355.555664062 l 1
 111.111328125 300 l 1025
388.888671875 300 m 1
 500 300 l 1
 500 355.555664062 l 1
 388.888671875 355.555664062 l 1
 388.888671875 300 l 1025
111.111328125 244.444335938 m 1
 222.22265625 244.444335938 l 1
 222.22265625 300 l 1
 111.111328125 300 l 1
 111.111328125 244.444335938 l 1025
388.888671875 244.444335938 m 1
 500 244.444335938 l 1
 500 300 l 1
 388.888671875 300 l 1
 388.888671875 244.444335938 l 1025
111.111328125 188.888671875 m 1
 222.22265625 188.888671875 l 1
 222.22265625 244.444335938 l 1
 111.111328125 244.444335938 l 1
 111.111328125 188.888671875 l 1025
388.888671875 188.888671875 m 1
 500 188.888671875 l 1
 500 244.444335938 l 1
 388.888671875 244.444335938 l 1
 388.888671875 188.888671875 l 1025
111.111328125 133.333007812 m 1
 222.22265625 133.333007812 l 1
 222.22265625 188.888671875 l 1
 111.111328125 188.888671875 l 1
 111.111328125 133.333007812 l 1025
388.888671875 133.333007812 m 1
 500 133.333007812 l 1
 500 188.888671875 l 1
 388.888671875 188.888671875 l 1
 388.888671875 133.333007812 l 1025
111.111328125 77.77734375 m 1
 222.22265625 77.77734375 l 1
 222.22265625 133.333007812 l 1
 111.111328125 133.333007812 l 1
 111.111328125 77.77734375 l 1025
388.888671875 77.77734375 m 1
 500 77.77734375 l 1
 500 133.333007812 l 1
 388.888671875 133.333007812 l 1
 388.888671875 77.77734375 l 1025
111.111328125 22.22265625 m 1
 222.22265625 22.22265625 l 1
 222.22265625 77.77734375 l 1
 111.111328125 77.77734375 l 1
 111.111328125 22.22265625 l 1025
388.888671875 22.22265625 m 1
 500 22.22265625 l 1
 500 77.77734375 l 1
 388.888671875 77.77734375 l 1
 388.888671875 22.22265625 l 1025
55.5556640625 -33.3330078125 m 1
 277.77734375 -33.3330078125 l 1
 277.77734375 22.22265625 l 1
 55.5556640625 22.22265625 l 1
 55.5556640625 -33.3330078125 l 1025
333.333007812 -33.3330078125 m 1
 555.555664062 -33.3330078125 l 1
 555.555664062 22.22265625 l 1
 333.333007812 22.22265625 l 1
 333.333007812 -33.3330078125 l 1
EndSplineSet
EndChar

